<?xml version="1.0" encoding="UTF-8" standalone="no"?>
<svg width="46px" height="48px" viewBox="0 0 46 48" version="1.1" xmlns="http://www.w3.org/2000/svg" xmlns:xlink="http://www.w3.org/1999/xlink">
    <!-- Generator: Sketch 45.2 (43514) - http://www.bohemiancoding.com/sketch -->
    <title>automation_deselected</title>
    <desc>Created with Sketch.</desc>
    <defs></defs>
    <g id="Page-1" stroke="none" stroke-width="1" fill="none" fill-rule="evenodd">
        <g id="2-copy" transform="translate(-462.000000, -249.000000)" fill-rule="nonzero" fill="#879BA3">
            <path d="M507.363551,277.828342 C506.373093,276.304911 505.383693,274.780426 504.364664,273.275965 C504.131864,272.932389 504.149324,272.704217 504.373129,272.370654 C505.359884,270.896229 506.318596,269.403889 507.282071,267.914182 C508.416971,266.159417 507.820156,264.419934 505.857758,263.699057 C504.188476,263.08568 502.531364,262.441739 500.862611,261.827308 C500.511294,261.698203 500.377434,261.501649 500.361033,261.124348 C500.282198,259.314252 500.170031,257.505737 500.075324,255.696696 C499.975325,253.781736 498.460009,252.678289 496.590731,253.176262 C494.832562,253.6442 493.073864,254.109502 491.325747,254.612746 C490.923109,254.728676 490.710944,254.637513 490.463858,254.327662 C489.343244,252.922269 488.195645,251.538482 487.061274,250.143628 C485.821614,248.619142 483.960802,248.616508 482.714793,250.149424 C481.594707,251.527416 480.467214,252.900137 479.379404,254.302896 C479.080467,254.688101 478.81116,254.755551 478.359316,254.627501 C476.647178,254.141647 474.9234,253.695315 473.685327,253.363859 C471.282196,252.791584 469.881693,253.768035 469.742013,255.718828 C469.610798,257.54684 469.531434,259.379595 469.468473,261.211296 C469.454716,261.605986 469.322973,261.774612 468.970069,261.906351 C467.246291,262.549765 465.527274,263.20688 463.815136,263.880857 C462.034745,264.581709 461.482374,266.320666 462.524154,267.927883 C463.511967,269.452896 464.504542,270.975273 465.520925,272.481842 C465.749493,272.820675 465.743144,273.056224 465.519338,273.392949 C464.492902,274.937459 463.481809,276.492508 462.490822,278.060203 C461.535813,279.570461 462.136331,281.327334 463.807729,281.970221 C465.542618,282.637348 467.276449,283.308163 469.022978,283.944727 C469.394929,284.080155 469.511329,284.265643 469.52826,284.641363 C469.607624,286.390859 469.806562,288.140355 469.788044,289.887742 C469.768996,291.675706 471.338809,293.233389 473.474749,292.564155 C475.170485,292.032982 476.906962,291.629861 478.619629,291.149276 C478.963538,291.052843 479.166709,291.116605 479.391573,291.398 C480.526473,292.818148 481.678833,294.223541 482.835425,295.626826 C484.102598,297.165012 485.927433,297.162904 487.177674,295.625245 C488.323156,294.216163 489.466522,292.805501 490.595073,291.382718 C490.812529,291.108701 491.007234,291.020699 491.361196,291.118713 C493.135238,291.609309 494.917216,292.072504 496.697078,292.542549 C498.527733,293.025769 500.059451,291.91916 500.155216,290.051626 C500.248865,288.220979 500.366324,286.390859 500.43246,284.559158 C500.447804,284.130215 500.627694,283.975817 500.989064,283.840916 C502.674747,283.210676 504.351965,282.558304 506.029713,281.90804 C507.84132,281.202972 508.4175,279.448734 507.363551,277.828342 Z M491.045329,271.911675 C488.5713,276.181076 486.094625,280.449424 483.619009,284.717772 C483.609485,284.734108 483.598904,284.749916 483.589909,284.766252 C483.421658,285.080318 483.223778,285.38121 482.804209,285.229447 C482.366122,285.070833 482.468765,284.686682 482.527494,284.359442 C482.719025,283.285504 482.927487,282.214729 483.130658,281.143426 C483.488324,279.259029 483.847576,277.374633 484.203125,275.489709 C484.233284,275.329515 484.242278,275.164577 484.268733,274.93377 C484.034874,274.922704 483.837524,274.904788 483.641231,274.905842 C482.241785,274.910584 480.842869,274.92165 479.443424,274.924285 C478.620158,274.925866 478.426511,274.584925 478.843964,273.864575 C481.317993,269.595174 483.794667,265.326826 486.270284,261.058478 C486.279807,261.042142 486.290389,261.026334 486.299384,261.009998 C486.467634,260.695932 486.665514,260.39504 487.085084,260.546803 C487.523171,260.705417 487.420527,261.089569 487.361798,261.416809 C487.170267,262.490746 486.962334,263.561522 486.758634,264.632824 C486.400969,266.517221 486.041716,268.401617 485.686167,270.286541 C485.656009,270.446736 485.647014,270.611673 485.62056,270.84248 C485.854418,270.853546 486.051769,270.871462 486.248062,270.870409 C487.647507,270.865666 489.046424,270.8546 490.445869,270.851965 C491.269134,270.850384 491.462782,271.191852 491.045329,271.911675 Z" id="automation_deselected"></path>
        </g>
    </g>
</svg>