<?xml version="1.0" encoding="UTF-8" standalone="no"?>
<svg width="299px" height="299px" viewBox="0 0 299 299" version="1.1" xmlns="http://www.w3.org/2000/svg" xmlns:xlink="http://www.w3.org/1999/xlink">
    <!-- Generator: Sketch 45.2 (43514) - http://www.bohemiancoding.com/sketch -->
    <title>automatic card</title>
    <desc>Created with Sketch.</desc>
    <defs>
        <rect id="path-1" x="0" y="0" width="294.922777" height="294.922777" rx="2"></rect>
        <filter x="-1.2%" y="-0.8%" width="102.4%" height="102.4%" filterUnits="objectBoundingBox" id="filter-2">
            <feOffset dx="0" dy="1" in="SourceAlpha" result="shadowOffsetOuter1"></feOffset>
            <feGaussianBlur stdDeviation="1" in="shadowOffsetOuter1" result="shadowBlurOuter1"></feGaussianBlur>
            <feColorMatrix values="0 0 0 0 0   0 0 0 0 0   0 0 0 0 0  0 0 0 0.2 0" type="matrix" in="shadowBlurOuter1"></feColorMatrix>
        </filter>
    </defs>
    <g id="Page-1" stroke="none" stroke-width="1" fill="none" fill-rule="evenodd">
        <g id="2-copy-2" transform="translate(-347.000000, -405.000000)">
            <g id="automatic-card" transform="translate(349.000000, 406.000000)">
                <g id="Group-4">
                    <g id="Rectangle-6">
                        <use fill="black" fill-opacity="1" filter="url(#filter-2)" xlink:href="#path-1"></use>
                        <use fill="#FFFFFF" fill-rule="evenodd" xlink:href="#path-1"></use>
                    </g>
                    <path d="M46.434,227 L47.778,227 L44.054,221.526 L47.736,217.76 L46.266,217.76 L41.618,222.52 L41.618,217.76 L40.498,217.76 L40.498,227 L41.618,227 L41.618,224.032 L43.27,222.352 L46.434,227 Z M52.776,219.86 C51.684,219.86 50.928,220.294 50.536,221.148 L50.382,220 L49.472,220 L49.472,227 L50.592,227 L50.592,223.22 C50.592,221.652 51.6,220.91 52.44,220.91 C52.804,220.91 53.112,220.98 53.322,221.092 L53.546,220 C53.336,219.888 53.014,219.86 52.776,219.86 Z M60.126,220 L60.126,223.808 C60.126,225.46 59.076,226.16 57.886,226.16 C56.878,226.16 56.234,225.726 56.234,224.284 L56.234,220 L55.114,220 L55.114,224.578 C55.114,226.426 56.304,227.14 57.69,227.14 C58.81,227.14 59.706,226.776 60.196,225.936 L60.266,227 L61.246,227 L61.246,220 L60.126,220 Z M63.346,227 L69.254,227 L69.254,226.034 L65.964,226.034 L64.606,226.062 L65.474,225.152 L69.142,220.854 L69.142,220 L63.388,220 L63.388,220.966 L66.65,220.966 L67.896,220.938 L67.014,221.848 L63.346,226.146 L63.346,227 Z M74.63,219.86 C73.538,219.86 72.782,220.294 72.39,221.148 L72.236,220 L71.326,220 L71.326,227 L72.446,227 L72.446,223.22 C72.446,221.652 73.454,220.91 74.294,220.91 C74.658,220.91 74.966,220.98 75.176,221.092 L75.4,220 C75.19,219.888 74.868,219.86 74.63,219.86 Z M84.892,219.86 C83.94,219.86 83.1,220.21 82.61,221.05 L82.61,216.78 L81.49,216.78 L81.49,227 L82.61,227 L82.61,223.29 C82.61,221.498 83.758,220.84 84.78,220.84 C85.746,220.84 86.502,221.358 86.502,222.912 L86.502,227 L87.622,227 L87.622,222.52 C87.622,220.714 86.39,219.86 84.892,219.86 Z M95.896,226.188 C96.078,226.188 96.288,226.16 96.456,226.118 L96.386,227 C96.19,227.07 95.896,227.14 95.546,227.14 C94.86,227.14 94.412,226.888 94.286,226.104 C93.838,226.762 92.928,227.14 92.032,227.14 C90.716,227.14 89.652,226.524 89.652,225.264 C89.652,224.214 90.576,223.388 92.382,223.08 L94.244,222.772 L94.244,222.38 C94.244,221.456 93.656,220.84 92.606,220.84 C91.682,220.84 90.982,221.288 90.604,222.17 L89.778,221.568 C90.142,220.532 91.248,219.86 92.606,219.86 C94.202,219.86 95.364,220.616 95.364,222.24 L95.364,225.684 C95.364,226.02 95.504,226.188 95.896,226.188 Z M92.088,226.16 C93.208,226.16 94.244,225.572 94.244,224.648 L94.244,223.682 L92.676,223.976 C91.444,224.2 90.814,224.606 90.814,225.264 C90.814,225.852 91.29,226.16 92.088,226.16 Z M100.46,227.14 C102.252,227.14 103.386,226.286 103.386,225.068 C103.386,223.92 102.686,223.332 100.726,223.01 C99.298,222.772 98.836,222.464 98.836,221.862 C98.836,221.344 99.536,220.84 100.474,220.84 C101.356,220.84 101.986,221.176 102.294,222.1 L103.246,221.54 C102.854,220.392 101.972,219.86 100.474,219.86 C98.766,219.86 97.716,220.826 97.716,221.96 C97.716,223.136 98.444,223.682 100.432,224.046 C101.832,224.298 102.266,224.606 102.266,225.124 C102.266,225.698 101.72,226.16 100.572,226.16 C99.564,226.16 98.696,225.782 98.36,224.928 L97.45,225.558 C97.982,226.636 99.172,227.14 100.46,227.14 Z M115.328,216.78 L116.448,216.78 L116.448,227 L115.468,227 L115.398,225.782 C114.992,226.58 114.11,227.14 113.004,227.14 C111.058,227.14 109.812,225.782 109.812,223.5 C109.812,221.218 111.058,219.86 113.004,219.86 C114.054,219.86 114.894,220.364 115.328,221.092 L115.328,216.78 Z M113.13,226.16 C114.46,226.16 115.328,225.166 115.328,223.584 L115.328,223.416 C115.328,221.834 114.46,220.84 113.13,220.84 C111.758,220.84 110.932,221.876 110.932,223.5 C110.932,225.124 111.758,226.16 113.13,226.16 Z M125.058,223.136 C125.058,223.458 125.03,223.724 125.002,223.92 L119.724,223.92 C119.864,225.334 120.718,226.16 122.006,226.16 C123.028,226.16 123.728,225.796 123.98,225.124 L124.918,225.614 C124.386,226.566 123.518,227.14 122.006,227.14 C119.892,227.14 118.618,225.768 118.618,223.5 C118.618,221.232 119.808,219.86 121.922,219.86 C123.952,219.86 125.058,221.33 125.058,223.136 Z M121.922,220.84 C120.676,220.84 119.906,221.61 119.738,222.926 L123.98,222.926 C123.826,221.638 123.112,220.84 121.922,220.84 Z M130.868,225.572 C130.546,225.894 130.182,226.09 129.678,226.09 C129.062,226.09 128.628,225.754 128.628,225.068 L128.628,220.966 L131.218,220.966 L131.218,220 L128.628,220 L128.628,218.012 L127.508,218.32 L127.508,220 L126.108,220 L126.108,220.966 L127.508,220.966 L127.508,225.264 C127.522,226.622 128.418,227.14 129.454,227.14 C130.224,227.14 130.826,226.902 131.26,226.51 L130.868,225.572 Z M138.848,223.136 C138.848,223.458 138.82,223.724 138.792,223.92 L133.514,223.92 C133.654,225.334 134.508,226.16 135.796,226.16 C136.818,226.16 137.518,225.796 137.77,225.124 L138.708,225.614 C138.176,226.566 137.308,227.14 135.796,227.14 C133.682,227.14 132.408,225.768 132.408,223.5 C132.408,221.232 133.598,219.86 135.712,219.86 C137.742,219.86 138.848,221.33 138.848,223.136 Z M135.712,220.84 C134.466,220.84 133.696,221.61 133.528,222.926 L137.77,222.926 C137.616,221.638 136.902,220.84 135.712,220.84 Z M143.93,219.86 C141.816,219.86 140.542,221.232 140.542,223.5 C140.542,225.768 141.816,227.14 143.93,227.14 C145.414,227.14 146.422,226.37 146.898,225.082 L145.862,224.718 C145.652,225.642 144.994,226.16 143.902,226.16 C142.502,226.16 141.662,225.166 141.662,223.5 C141.662,221.834 142.502,220.84 143.902,220.84 C144.868,220.84 145.47,221.33 145.764,222.226 L146.828,221.722 C146.31,220.574 145.372,219.86 143.93,219.86 Z M152.764,225.572 C152.442,225.894 152.078,226.09 151.574,226.09 C150.958,226.09 150.524,225.754 150.524,225.068 L150.524,220.966 L153.114,220.966 L153.114,220 L150.524,220 L150.524,218.012 L149.404,218.32 L149.404,220 L148.004,220 L148.004,220.966 L149.404,220.966 L149.404,225.264 C149.418,226.622 150.314,227.14 151.35,227.14 C152.12,227.14 152.722,226.902 153.156,226.51 L152.764,225.572 Z M160.744,223.136 C160.744,223.458 160.716,223.724 160.688,223.92 L155.41,223.92 C155.55,225.334 156.404,226.16 157.692,226.16 C158.714,226.16 159.414,225.796 159.666,225.124 L160.604,225.614 C160.072,226.566 159.204,227.14 157.692,227.14 C155.578,227.14 154.304,225.768 154.304,223.5 C154.304,221.232 155.494,219.86 157.608,219.86 C159.638,219.86 160.744,221.33 160.744,223.136 Z M157.608,220.84 C156.362,220.84 155.592,221.61 155.424,222.926 L159.666,222.926 C159.512,221.638 158.798,220.84 157.608,220.84 Z M167.968,216.78 L169.088,216.78 L169.088,227 L168.108,227 L168.038,225.782 C167.632,226.58 166.75,227.14 165.644,227.14 C163.698,227.14 162.452,225.782 162.452,223.5 C162.452,221.218 163.698,219.86 165.644,219.86 C166.694,219.86 167.534,220.364 167.968,221.092 L167.968,216.78 Z M165.77,226.16 C167.1,226.16 167.968,225.166 167.968,223.584 L167.968,223.416 C167.968,221.834 167.1,220.84 165.77,220.84 C164.398,220.84 163.572,221.876 163.572,223.5 C163.572,225.124 164.398,226.16 165.77,226.16 Z M181.562,216.78 L182.682,216.78 L182.682,227 L181.702,227 L181.632,225.782 C181.226,226.58 180.344,227.14 179.238,227.14 C177.292,227.14 176.046,225.782 176.046,223.5 C176.046,221.218 177.292,219.86 179.238,219.86 C180.288,219.86 181.128,220.364 181.562,221.092 L181.562,216.78 Z M179.364,226.16 C180.694,226.16 181.562,225.166 181.562,223.584 L181.562,223.416 C181.562,221.834 180.694,220.84 179.364,220.84 C177.992,220.84 177.166,221.876 177.166,223.5 C177.166,225.124 177.992,226.16 179.364,226.16 Z M188.59,219.86 C187.498,219.86 186.742,220.294 186.35,221.148 L186.196,220 L185.286,220 L185.286,227 L186.406,227 L186.406,223.22 C186.406,221.652 187.414,220.91 188.254,220.91 C188.618,220.91 188.926,220.98 189.136,221.092 L189.36,220 C189.15,219.888 188.828,219.86 188.59,219.86 Z M191.558,218.656 C192.062,218.656 192.398,218.32 192.398,217.816 C192.398,217.312 192.062,216.976 191.558,216.976 C191.054,216.976 190.718,217.312 190.718,217.816 C190.718,218.32 191.054,218.656 191.558,218.656 Z M192.118,220 L190.998,220 L190.998,227 L192.118,227 L192.118,220 Z M199.356,220 L197.074,225.866 L194.862,220 L193.588,220 L196.5,227 L197.62,227 L200.532,220 L199.356,220 Z M202.562,218.656 C203.066,218.656 203.402,218.32 203.402,217.816 C203.402,217.312 203.066,216.976 202.562,216.976 C202.058,216.976 201.722,217.312 201.722,217.816 C201.722,218.32 202.058,218.656 202.562,218.656 Z M203.122,220 L202.002,220 L202.002,227 L203.122,227 L203.122,220 Z M209.128,219.86 C208.162,219.86 207.266,220.21 206.776,221.092 L206.706,220 L205.726,220 L205.726,227 L206.846,227 L206.846,223.276 C206.846,221.484 207.994,220.84 209.016,220.84 C209.982,220.84 210.738,221.358 210.738,222.912 L210.738,227 L211.858,227 L211.858,222.52 C211.858,220.714 210.626,219.86 209.128,219.86 Z M218.298,226.104 C219.628,226.104 220.412,226.762 220.412,227.77 C220.412,229.156 218.844,230.01 216.954,230.01 C214.742,230.01 213.734,229.212 213.734,228.162 C213.734,227.518 214.196,227.014 214.966,226.804 C214.434,226.552 214.014,226.132 214.014,225.516 C214.014,224.788 214.448,224.354 215.064,224.144 C214.392,223.724 214.042,223.038 214.042,222.226 C214.042,220.84 215.232,219.86 216.912,219.86 C217.444,219.86 217.92,219.958 218.34,220.14 C218.606,219.174 219.264,218.712 220.314,218.712 L220.566,219.692 C219.628,219.692 219.096,219.958 218.9,220.462 C219.46,220.882 219.782,221.498 219.782,222.226 C219.782,223.612 218.592,224.592 216.912,224.592 C216.506,224.592 216.142,224.55 215.834,224.466 C215.274,224.592 215.05,224.872 215.05,225.348 C215.05,225.838 215.428,226.104 215.974,226.104 L218.298,226.104 Z M216.912,220.77 C215.946,220.77 215.204,221.358 215.204,222.226 C215.204,223.094 215.946,223.682 216.912,223.682 C217.878,223.682 218.62,223.094 218.62,222.226 C218.62,221.358 217.878,220.77 216.912,220.77 Z M217.08,229.072 C218.564,229.072 219.376,228.512 219.376,227.896 C219.376,227.392 219.04,227.07 217.99,227.07 L216.114,227.07 C215.232,227.07 214.77,227.406 214.77,227.938 C214.77,228.624 215.54,229.072 217.08,229.072 Z M232.536,225.348 C233.292,226.146 233.684,226.3 234.328,226.3 L234.048,227.14 C233.348,227.14 232.858,226.986 231.934,226.062 C231.234,226.72 230.296,227.14 229.162,227.14 C227.426,227.14 226.222,226.118 226.222,224.746 C226.222,223.626 226.81,222.758 228.434,221.89 C227.65,220.882 227.37,220.364 227.37,219.664 C227.37,218.656 228.112,217.62 229.54,217.62 C230.632,217.62 231.696,218.138 231.696,219.524 C231.696,220.49 231.416,221.232 229.876,222.128 C230.128,222.464 230.436,222.842 230.8,223.29 C231.248,223.836 231.612,224.298 231.92,224.662 C232.34,223.976 232.564,223.08 232.494,222.03 L233.39,222.142 C233.46,223.29 233.166,224.438 232.536,225.348 Z M229.526,218.572 C228.784,218.572 228.42,219.076 228.42,219.65 C228.42,220.126 228.56,220.434 229.33,221.442 C230.576,220.756 230.702,220.168 230.702,219.552 C230.702,218.88 230.268,218.572 229.526,218.572 Z M229.12,226.23 C229.96,226.23 230.73,225.936 231.318,225.404 C230.954,224.998 230.534,224.494 230.044,223.892 C229.652,223.402 229.302,222.982 229.008,222.618 C227.566,223.444 227.272,223.99 227.272,224.662 C227.272,225.586 228.14,226.23 229.12,226.23 Z M240.908,218.656 C241.412,218.656 241.748,218.32 241.748,217.816 C241.748,217.312 241.412,216.976 240.908,216.976 C240.404,216.976 240.068,217.312 240.068,217.816 C240.068,218.32 240.404,218.656 240.908,218.656 Z M241.468,220 L240.348,220 L240.348,227 L241.468,227 L241.468,220 Z M247.964,225.572 C247.642,225.894 247.278,226.09 246.774,226.09 C246.158,226.09 245.724,225.754 245.724,225.068 L245.724,220.966 L248.314,220.966 L248.314,220 L245.724,220 L245.724,218.012 L244.604,218.32 L244.604,220 L243.204,220 L243.204,220.966 L244.604,220.966 L244.604,225.264 C244.618,226.622 245.514,227.14 246.55,227.14 C247.32,227.14 247.922,226.902 248.356,226.51 L247.964,225.572 Z M252.318,227.14 C254.11,227.14 255.244,226.286 255.244,225.068 C255.244,223.92 254.544,223.332 252.584,223.01 C251.156,222.772 250.694,222.464 250.694,221.862 C250.694,221.344 251.394,220.84 252.332,220.84 C253.214,220.84 253.844,221.176 254.152,222.1 L255.104,221.54 C254.712,220.392 253.83,219.86 252.332,219.86 C250.624,219.86 249.574,220.826 249.574,221.96 C249.574,223.136 250.302,223.682 252.29,224.046 C253.69,224.298 254.124,224.606 254.124,225.124 C254.124,225.698 253.578,226.16 252.43,226.16 C251.422,226.16 250.554,225.782 250.218,224.928 L249.308,225.558 C249.84,226.636 251.03,227.14 252.318,227.14 Z M46.441,241.86 C45.489,241.86 44.649,242.21 44.159,243.05 L44.159,238.78 L43.039,238.78 L43.039,249 L44.159,249 L44.159,245.29 C44.159,243.498 45.307,242.84 46.329,242.84 C47.295,242.84 48.051,243.358 48.051,244.912 L48.051,249 L49.171,249 L49.171,244.52 C49.171,242.714 47.939,241.86 46.441,241.86 Z M57.445,248.188 C57.627,248.188 57.837,248.16 58.005,248.118 L57.935,249 C57.739,249.07 57.445,249.14 57.095,249.14 C56.409,249.14 55.961,248.888 55.835,248.104 C55.387,248.762 54.477,249.14 53.581,249.14 C52.265,249.14 51.201,248.524 51.201,247.264 C51.201,246.214 52.125,245.388 53.931,245.08 L55.793,244.772 L55.793,244.38 C55.793,243.456 55.205,242.84 54.155,242.84 C53.231,242.84 52.531,243.288 52.153,244.17 L51.327,243.568 C51.691,242.532 52.797,241.86 54.155,241.86 C55.751,241.86 56.913,242.616 56.913,244.24 L56.913,247.684 C56.913,248.02 57.053,248.188 57.445,248.188 Z M53.637,248.16 C54.757,248.16 55.793,247.572 55.793,246.648 L55.793,245.682 L54.225,245.976 C52.993,246.2 52.363,246.606 52.363,247.264 C52.363,247.852 52.839,248.16 53.637,248.16 Z M63.031,241.86 C62.065,241.86 61.169,242.21 60.679,243.092 L60.609,242 L59.629,242 L59.629,249 L60.749,249 L60.749,245.276 C60.749,243.484 61.897,242.84 62.919,242.84 C63.885,242.84 64.641,243.358 64.641,244.912 L64.641,249 L65.761,249 L65.761,244.52 C65.761,242.714 64.529,241.86 63.031,241.86 Z M73.391,238.78 L74.511,238.78 L74.511,249 L73.531,249 L73.461,247.782 C73.055,248.58 72.173,249.14 71.067,249.14 C69.121,249.14 67.875,247.782 67.875,245.5 C67.875,243.218 69.121,241.86 71.067,241.86 C72.117,241.86 72.957,242.364 73.391,243.092 L73.391,238.78 Z M71.193,248.16 C72.523,248.16 73.391,247.166 73.391,245.584 L73.391,245.416 C73.391,243.834 72.523,242.84 71.193,242.84 C69.821,242.84 68.995,243.876 68.995,245.5 C68.995,247.124 69.821,248.16 71.193,248.16 Z M78.179,238.78 L77.059,238.78 L77.059,247.264 C77.059,248.538 77.605,249.14 78.739,249.14 C79.103,249.14 79.481,249.07 79.775,248.944 L79.957,247.866 C79.551,248.02 79.313,248.062 78.935,248.062 C78.361,248.062 78.179,247.838 78.179,247.124 L78.179,238.78 Z M81.959,240.656 C82.463,240.656 82.799,240.32 82.799,239.816 C82.799,239.312 82.463,238.976 81.959,238.976 C81.455,238.976 81.119,239.312 81.119,239.816 C81.119,240.32 81.455,240.656 81.959,240.656 Z M82.519,242 L81.399,242 L81.399,249 L82.519,249 L82.519,242 Z M88.525,241.86 C87.559,241.86 86.663,242.21 86.173,243.092 L86.103,242 L85.123,242 L85.123,249 L86.243,249 L86.243,245.276 C86.243,243.484 87.391,242.84 88.413,242.84 C89.379,242.84 90.135,243.358 90.135,244.912 L90.135,249 L91.255,249 L91.255,244.52 C91.255,242.714 90.023,241.86 88.525,241.86 Z M97.695,248.104 C99.025,248.104 99.809,248.762 99.809,249.77 C99.809,251.156 98.241,252.01 96.351,252.01 C94.139,252.01 93.131,251.212 93.131,250.162 C93.131,249.518 93.593,249.014 94.363,248.804 C93.831,248.552 93.411,248.132 93.411,247.516 C93.411,246.788 93.845,246.354 94.461,246.144 C93.789,245.724 93.439,245.038 93.439,244.226 C93.439,242.84 94.629,241.86 96.309,241.86 C96.841,241.86 97.317,241.958 97.737,242.14 C98.003,241.174 98.661,240.712 99.711,240.712 L99.963,241.692 C99.025,241.692 98.493,241.958 98.297,242.462 C98.857,242.882 99.179,243.498 99.179,244.226 C99.179,245.612 97.989,246.592 96.309,246.592 C95.903,246.592 95.539,246.55 95.231,246.466 C94.671,246.592 94.447,246.872 94.447,247.348 C94.447,247.838 94.825,248.104 95.371,248.104 L97.695,248.104 Z M96.309,242.77 C95.343,242.77 94.601,243.358 94.601,244.226 C94.601,245.094 95.343,245.682 96.309,245.682 C97.275,245.682 98.017,245.094 98.017,244.226 C98.017,243.358 97.275,242.77 96.309,242.77 Z M96.477,251.072 C97.961,251.072 98.773,250.512 98.773,249.896 C98.773,249.392 98.437,249.07 97.387,249.07 L95.511,249.07 C94.629,249.07 94.167,249.406 94.167,249.938 C94.167,250.624 94.937,251.072 96.477,251.072 Z M111.849,242 L110.645,242 L109.007,246.424 L108.503,247.81 L108.069,246.564 L106.319,242 L105.045,242 L107.971,248.986 L107.607,249.896 C107.257,250.82 106.823,251.03 106.333,251.03 C105.941,251.03 105.521,250.918 105.199,250.47 L104.807,251.422 C105.199,251.842 105.647,252.01 106.347,252.01 C107.383,252.01 108.013,251.548 108.559,250.176 L111.849,242 Z M116.343,241.86 C118.457,241.86 119.731,243.232 119.731,245.5 C119.731,247.768 118.457,249.14 116.343,249.14 C114.229,249.14 112.955,247.768 112.955,245.5 C112.955,243.232 114.229,241.86 116.343,241.86 Z M116.343,242.826 C114.929,242.826 114.075,243.834 114.075,245.5 C114.075,247.166 114.929,248.174 116.343,248.174 C117.757,248.174 118.611,247.166 118.611,245.5 C118.611,243.834 117.757,242.826 116.343,242.826 Z M126.843,242 L126.843,245.808 C126.843,247.46 125.793,248.16 124.603,248.16 C123.595,248.16 122.951,247.726 122.951,246.284 L122.951,242 L121.831,242 L121.831,246.578 C121.831,248.426 123.021,249.14 124.407,249.14 C125.527,249.14 126.423,248.776 126.913,247.936 L126.983,249 L127.963,249 L127.963,242 L126.843,242 Z M133.871,241.86 C132.779,241.86 132.023,242.294 131.631,243.148 L131.477,242 L130.567,242 L130.567,249 L131.687,249 L131.687,245.22 C131.687,243.652 132.695,242.91 133.535,242.91 C133.899,242.91 134.207,242.98 134.417,243.092 L134.641,242 C134.431,241.888 134.109,241.86 133.871,241.86 Z M143.685,241.86 C141.571,241.86 140.297,243.232 140.297,245.5 C140.297,247.768 141.571,249.14 143.685,249.14 C145.169,249.14 146.177,248.37 146.653,247.082 L145.617,246.718 C145.407,247.642 144.749,248.16 143.657,248.16 C142.257,248.16 141.417,247.166 141.417,245.5 C141.417,243.834 142.257,242.84 143.657,242.84 C144.623,242.84 145.225,243.33 145.519,244.226 L146.583,243.722 C146.065,242.574 145.127,241.86 143.685,241.86 Z M151.581,241.86 C153.695,241.86 154.969,243.232 154.969,245.5 C154.969,247.768 153.695,249.14 151.581,249.14 C149.467,249.14 148.193,247.768 148.193,245.5 C148.193,243.232 149.467,241.86 151.581,241.86 Z M151.581,242.826 C150.167,242.826 149.313,243.834 149.313,245.5 C149.313,247.166 150.167,248.174 151.581,248.174 C152.995,248.174 153.849,247.166 153.849,245.5 C153.849,243.834 152.995,242.826 151.581,242.826 Z M165.273,241.86 C164.391,241.86 163.271,242.28 162.837,243.232 C162.375,242.294 161.409,241.86 160.429,241.86 C159.561,241.86 158.693,242.238 158.189,243.092 L158.119,242 L157.139,242 L157.139,249 L158.259,249 L158.259,245.262 C158.259,243.526 159.407,242.84 160.331,242.84 C161.255,242.84 161.983,243.358 161.983,244.632 L161.983,249 L163.103,249 L163.103,245.164 C163.103,243.666 164.083,242.84 165.175,242.84 C166.099,242.84 166.827,243.358 166.827,244.632 L166.827,249 L167.947,249 L167.947,244.52 C167.947,242.672 166.617,241.86 165.273,241.86 Z M178.615,241.86 C177.733,241.86 176.613,242.28 176.179,243.232 C175.717,242.294 174.751,241.86 173.771,241.86 C172.903,241.86 172.035,242.238 171.531,243.092 L171.461,242 L170.481,242 L170.481,249 L171.601,249 L171.601,245.262 C171.601,243.526 172.749,242.84 173.673,242.84 C174.597,242.84 175.325,243.358 175.325,244.632 L175.325,249 L176.445,249 L176.445,245.164 C176.445,243.666 177.425,242.84 178.517,242.84 C179.441,242.84 180.169,243.358 180.169,244.632 L180.169,249 L181.289,249 L181.289,244.52 C181.289,242.672 179.959,241.86 178.615,241.86 Z M188.765,242 L188.765,245.808 C188.765,247.46 187.715,248.16 186.525,248.16 C185.517,248.16 184.873,247.726 184.873,246.284 L184.873,242 L183.753,242 L183.753,246.578 C183.753,248.426 184.943,249.14 186.329,249.14 C187.449,249.14 188.345,248.776 188.835,247.936 L188.905,249 L189.885,249 L189.885,242 L188.765,242 Z M195.891,241.86 C194.925,241.86 194.029,242.21 193.539,243.092 L193.469,242 L192.489,242 L192.489,249 L193.609,249 L193.609,245.276 C193.609,243.484 194.757,242.84 195.779,242.84 C196.745,242.84 197.501,243.358 197.501,244.912 L197.501,249 L198.621,249 L198.621,244.52 C198.621,242.714 197.389,241.86 195.891,241.86 Z M201.715,240.656 C202.219,240.656 202.555,240.32 202.555,239.816 C202.555,239.312 202.219,238.976 201.715,238.976 C201.211,238.976 200.875,239.312 200.875,239.816 C200.875,240.32 201.211,240.656 201.715,240.656 Z M202.275,242 L201.155,242 L201.155,249 L202.275,249 L202.275,242 Z M207.833,241.86 C205.719,241.86 204.445,243.232 204.445,245.5 C204.445,247.768 205.719,249.14 207.833,249.14 C209.317,249.14 210.325,248.37 210.801,247.082 L209.765,246.718 C209.555,247.642 208.897,248.16 207.805,248.16 C206.405,248.16 205.565,247.166 205.565,245.5 C205.565,243.834 206.405,242.84 207.805,242.84 C208.771,242.84 209.373,243.33 209.667,244.226 L210.731,243.722 C210.213,242.574 209.275,241.86 207.833,241.86 Z M218.515,248.188 C218.697,248.188 218.907,248.16 219.075,248.118 L219.005,249 C218.809,249.07 218.515,249.14 218.165,249.14 C217.479,249.14 217.031,248.888 216.905,248.104 C216.457,248.762 215.547,249.14 214.651,249.14 C213.335,249.14 212.271,248.524 212.271,247.264 C212.271,246.214 213.195,245.388 215.001,245.08 L216.863,244.772 L216.863,244.38 C216.863,243.456 216.275,242.84 215.225,242.84 C214.301,242.84 213.601,243.288 213.223,244.17 L212.397,243.568 C212.761,242.532 213.867,241.86 215.225,241.86 C216.821,241.86 217.983,242.616 217.983,244.24 L217.983,247.684 C217.983,248.02 218.123,248.188 218.515,248.188 Z M214.707,248.16 C215.827,248.16 216.863,247.572 216.863,246.648 L216.863,245.682 L215.295,245.976 C214.063,246.2 213.433,246.606 213.433,247.264 C213.433,247.852 213.909,248.16 214.707,248.16 Z M224.311,247.572 C223.989,247.894 223.625,248.09 223.121,248.09 C222.505,248.09 222.071,247.754 222.071,247.068 L222.071,242.966 L224.661,242.966 L224.661,242 L222.071,242 L222.071,240.012 L220.951,240.32 L220.951,242 L219.551,242 L219.551,242.966 L220.951,242.966 L220.951,247.264 C220.965,248.622 221.861,249.14 222.897,249.14 C223.667,249.14 224.269,248.902 224.703,248.51 L224.311,247.572 Z M226.845,240.656 C227.349,240.656 227.685,240.32 227.685,239.816 C227.685,239.312 227.349,238.976 226.845,238.976 C226.341,238.976 226.005,239.312 226.005,239.816 C226.005,240.32 226.341,240.656 226.845,240.656 Z M227.405,242 L226.285,242 L226.285,249 L227.405,249 L227.405,242 Z M232.963,241.86 C235.077,241.86 236.351,243.232 236.351,245.5 C236.351,247.768 235.077,249.14 232.963,249.14 C230.849,249.14 229.575,247.768 229.575,245.5 C229.575,243.232 230.849,241.86 232.963,241.86 Z M232.963,242.826 C231.549,242.826 230.695,243.834 230.695,245.5 C230.695,247.166 231.549,248.174 232.963,248.174 C234.377,248.174 235.231,247.166 235.231,245.5 C235.231,243.834 234.377,242.826 232.963,242.826 Z M241.923,241.86 C240.957,241.86 240.061,242.21 239.571,243.092 L239.501,242 L238.521,242 L238.521,249 L239.641,249 L239.641,245.276 C239.641,243.484 240.789,242.84 241.811,242.84 C242.777,242.84 243.533,243.358 243.533,244.912 L243.533,249 L244.653,249 L244.653,244.52 C244.653,242.714 243.421,241.86 241.923,241.86 Z M249.567,249.14 C251.359,249.14 252.493,248.286 252.493,247.068 C252.493,245.92 251.793,245.332 249.833,245.01 C248.405,244.772 247.943,244.464 247.943,243.862 C247.943,243.344 248.643,242.84 249.581,242.84 C250.463,242.84 251.093,243.176 251.401,244.1 L252.353,243.54 C251.961,242.392 251.079,241.86 249.581,241.86 C247.873,241.86 246.823,242.826 246.823,243.96 C246.823,245.136 247.551,245.682 249.539,246.046 C250.939,246.298 251.373,246.606 251.373,247.124 C251.373,247.698 250.827,248.16 249.679,248.16 C248.671,248.16 247.803,247.782 247.467,246.928 L246.557,247.558 C247.089,248.636 248.279,249.14 249.567,249.14 Z" id="Kruzr-has-detected-d" fill="#3C3C3C"></path>
                    <path d="M84.549,44 L80.615,38.288 L84.297,34.2 L81.735,34.2 L77.661,38.652 L77.661,34.2 L75.449,34.2 L75.449,44 L77.661,44 L77.661,41.578 L79.075,40.01 L81.889,44 L84.549,44 Z M94.293,44 L91.787,44 L90.233,41.2 L87.979,41.2 L87.979,44 L85.767,44 L85.767,34.2 L90.023,34.2 C92.585,34.2 94.041,35.432 94.041,37.602 C94.041,39.114 93.397,40.206 92.207,40.766 L94.293,44 Z M87.979,36.034 L87.979,39.352 L90.023,39.352 C91.241,39.352 91.941,38.792 91.941,37.672 C91.941,36.58 91.241,36.034 90.023,36.034 L87.979,36.034 Z M97.933,39.898 L97.933,34.2 L95.721,34.2 L95.721,39.898 C95.721,42.488 97.457,44.098 100.173,44.098 C102.875,44.098 104.569,42.488 104.569,39.898 L104.569,34.2 L102.357,34.2 L102.357,39.898 C102.357,41.312 101.489,42.166 100.173,42.166 C98.857,42.166 97.933,41.312 97.933,39.898 Z M106.081,34.2 L106.081,36.048 L111.387,36.048 L105.899,42.502 L105.899,44 L114.425,44 L114.439,42.152 L108.881,42.152 L114.355,35.684 L114.355,34.2 L106.081,34.2 Z M124.477,44 L121.971,44 L120.417,41.2 L118.163,41.2 L118.163,44 L115.951,44 L115.951,34.2 L120.207,34.2 C122.769,34.2 124.225,35.432 124.225,37.602 C124.225,39.114 123.581,40.206 122.391,40.766 L124.477,44 Z M118.163,36.034 L118.163,39.352 L120.207,39.352 C121.425,39.352 122.125,38.792 122.125,37.672 C122.125,36.58 121.425,36.034 120.207,36.034 L118.163,36.034 Z M133.619,34.2 C136.657,34.2 138.771,36.202 138.771,39.1 C138.771,41.984 136.629,44 133.535,44 L129.461,44 L129.461,34.2 L133.619,34.2 Z M133.675,42.138 C135.313,42.138 136.517,40.906 136.517,39.114 C136.517,37.308 135.257,36.062 133.577,36.062 L131.673,36.062 L131.673,42.138 L133.675,42.138 Z M148.753,44 L146.247,44 L144.693,41.2 L142.439,41.2 L142.439,44 L140.227,44 L140.227,34.2 L144.483,34.2 C147.045,34.2 148.501,35.432 148.501,37.602 C148.501,39.114 147.857,40.206 146.667,40.766 L148.753,44 Z M142.439,36.034 L142.439,39.352 L144.483,39.352 C145.701,39.352 146.401,38.792 146.401,37.672 C146.401,36.58 145.701,36.034 144.483,36.034 L142.439,36.034 Z M150.363,34.2 L150.363,44 L152.575,44 L152.575,34.2 L150.363,34.2 Z M153.667,34.2 L157.517,44 L159.799,44 L163.691,34.2 L161.409,34.2 L158.721,41.592 L156.047,34.2 L153.667,34.2 Z M164.769,34.2 L164.769,44 L172.385,44 L172.385,42.166 L166.981,42.166 L166.981,39.996 L171.713,39.996 L171.713,38.162 L166.981,38.162 L166.981,36.034 L172.231,36.034 L172.231,34.2 L164.769,34.2 Z M177.495,34.2 L177.495,44 L179.497,44 L179.497,37.392 L182.101,43.006 L183.543,43.006 L186.147,37.392 L186.147,44 L188.135,44 L188.135,34.2 L185.671,34.2 L182.829,40.192 L179.973,34.2 L177.495,34.2 Z M194.869,34.13 C197.865,34.13 200.133,36.258 200.133,39.1 C200.133,41.928 197.865,44.098 194.869,44.098 C191.873,44.098 189.605,41.942 189.605,39.1 C189.605,36.244 191.873,34.13 194.869,34.13 Z M194.897,36.062 C193.245,36.062 191.873,37.378 191.873,39.1 C191.873,40.822 193.259,42.166 194.897,42.166 C196.535,42.166 197.865,40.822 197.865,39.1 C197.865,37.378 196.535,36.062 194.897,36.062 Z M205.747,34.2 C208.785,34.2 210.899,36.202 210.899,39.1 C210.899,41.984 208.757,44 205.663,44 L201.589,44 L201.589,34.2 L205.747,34.2 Z M205.803,42.138 C207.441,42.138 208.645,40.906 208.645,39.114 C208.645,37.308 207.385,36.062 205.705,36.062 L203.801,36.062 L203.801,42.138 L205.803,42.138 Z M212.355,34.2 L212.355,44 L219.971,44 L219.971,42.166 L214.567,42.166 L214.567,39.996 L219.299,39.996 L219.299,38.162 L214.567,38.162 L214.567,36.034 L219.817,36.034 L219.817,34.2 L212.355,34.2 Z" id="KRUZR-DRIVE-MODE" fill="#3C3C3C"></path>
                    <g id="Group-2" transform="translate(27.000000, 107.000000)" fill-rule="nonzero" fill="#47B04B">
                        <g id="noun_630709_cc" transform="translate(61.836602, 0.000000)">
                            <path d="M143.176654,36.6163636 C136.719805,36.6163636 131.462771,41.7909091 131.462771,48.1545455 C131.462771,54.5181818 136.719805,59.6981818 143.176654,59.6981818 C149.640886,59.6981818 154.89792,54.5181818 154.89792,48.1545455 C154.89792,41.7909091 149.640886,36.6163636 143.176654,36.6163636 Z" id="Shape"></path>
                            <path d="M35.335465,36.6163636 C28.8749245,36.6163636 23.6160445,41.7909091 23.6160445,48.1545455 C23.6160445,54.5181818 28.8749245,59.6981818 35.335465,59.6981818 C41.7960056,59.6981818 47.0530397,54.5181818 47.0530397,48.1545455 C47.0530397,41.7909091 41.7960056,36.6163636 35.335465,36.6163636 Z" id="Shape"></path>
                            <path d="M175.165559,36.6163636 C174.55273,34.6036364 173.255084,31.9036364 170.58965,30.2090909 C158.32939,23.3527273 142.170655,21.5818182 140.147583,21.4 C138.118973,21.2145455 134.87209,20.7690909 134.87209,20.7690909 C134.87209,20.7690909 117.906711,7.80181818 101.814427,2.90545455 C85.7239895,-1.99272727 52.5998752,1.48909091 49.7443163,1.75272727 C42.9773615,2.34545455 24.5703586,15.7709091 24.5703586,15.7709091 C24.5703586,15.7709091 2.1781251,18.68 1.08906255,20.7036364 C-4.77395901e-15,22.7272727 0.922934363,29.0909091 0.9266261,34.8218182 C0.930317838,40.5527273 2.09136927,49.42 2.09136927,49.42 C4.70881112,49.5763636 18.7983271,50.4072727 18.7983271,50.4072727 C18.6949585,49.6690909 18.6229696,48.9218182 18.6229696,48.1563636 C18.6229696,39.0654545 26.1042755,31.6927273 35.335465,31.6927273 C44.5666545,31.6927273 52.0479605,39.3072727 52.0479605,48.3963636 C52.0479605,50.1 51.787693,51.7 51.3003836,53.5181818 L127.220964,53.5181818 C126.731809,51.7 126.471542,50.0945455 126.471542,48.3963636 C126.471542,39.3072727 133.952848,31.8145455 143.185883,31.8145455 C152.415227,31.8145455 159.898378,39.1254545 159.898378,48.2163636 C159.898378,49.6545455 159.695333,51.0072727 159.340926,52.3381818 C162.672719,52.4781818 174.884987,52.9218182 175.828225,52.2890909 C176.919134,51.5545455 175.780233,38.6309091 175.165559,36.6163636 Z M49.340071,19.8327273 C49.340071,19.8327273 49.1481007,9.8 51.8929075,7.32545455 C54.641406,4.85272727 72.5149529,5.48727273 73.3751277,5.42363636 C74.2371484,5.36181818 75.0456389,6.29272727 75.1120902,7.17454545 C75.1766956,8.05818182 76.1143969,21.3472727 76.1143969,21.3472727 L49.340071,19.8327273 Z M114.128217,22.5690909 L82.9699534,21.8054545 C82.9699534,21.8054545 79.9741084,7.04727273 79.8485893,6.45090909 C79.7230703,5.85272727 80.2842144,5.42727273 81.2366826,5.42545455 C82.1891509,5.42363636 94.8961112,6.55636364 101.404644,8.84545455 C110.259277,11.9581818 118.00085,17.76 118.00085,17.76 L114.128217,22.5690909 Z" id="Shape"></path>
                        </g>
                        <path d="M58.8370656,44.5454545 L35.0472797,44.5454545 L35.0472797,44.5454545 C34.1686449,44.5454545 33.4563707,45.2577288 33.4563707,46.1363636 L33.4563707,46.1363636 L33.4563707,46.1363636 C33.4563707,47.0149985 34.1686449,47.7272727 35.0472797,47.7272727 L58.8370656,47.7272727 L58.8370656,44.5454545 Z" id="Line-2"></path>
                        <path d="M56.0682625,34.5454545 L21.2032643,34.5454545 L21.2032643,34.5454545 C20.3246295,34.5454545 19.6123552,35.2577288 19.6123552,36.1363636 L19.6123552,36.1363636 L19.6123552,36.1363636 C19.6123552,37.0149985 20.3246295,37.7272727 21.2032643,37.7272727 L56.0682625,37.7272727 L56.0682625,34.5454545 Z" id="Line-2-Copy"></path>
                        <path d="M53.2994595,24.5454545 L1.82164268,24.5454545 L1.82164268,24.5454545 C0.943007852,24.5454545 0.230733591,25.2577288 0.230733591,26.1363636 L0.230733591,26.1363636 L0.230733591,26.1363636 C0.230733591,27.0149985 0.943007852,27.7272727 1.82164268,27.7272727 L53.2994595,27.7272727 L53.2994595,24.5454545 Z" id="Line-2-Copy-2"></path>
                    </g>
                </g>
            </g>
        </g>
    </g>
</svg>