<?xml version="1.0" encoding="UTF-8"?>
<svg width="343px" height="68px" viewBox="0 0 343 68" version="1.1" xmlns="http://www.w3.org/2000/svg" xmlns:xlink="http://www.w3.org/1999/xlink">
    <!-- Generator: Sketch 46.1 (44463) - http://www.bohemiancoding.com/sketch -->
    <title>callfavourite</title>
    <desc>Created with Sketch.</desc>
    <defs></defs>
    <g id="Mobile" stroke="none" stroke-width="1" fill="none" fill-rule="evenodd">
        <g id="second-fold-Updated-UI" transform="translate(-16.000000, -1104.000000)">
            <g id="callfavourite" transform="translate(16.000000, 1104.000000)">
                <path d="M0,0 L343,0 L343,64 L343,64 C343,66.209139 341.209139,68 339,68 L4,68 L4,68 C1.790861,68 2.705415e-16,66.209139 0,64 L0,0 Z" id="Rectangle-3-Copy-2" fill="#FFFFFF"></path>
                <path d="M90.24,34.796 C89.9093317,35.6920045 89.3653371,36.3933308 88.608,36.9 C87.8506629,37.4066692 86.976005,37.66 85.984,37.66 C84.991995,37.66 84.1280037,37.4386689 83.392,36.996 C82.6559963,36.5533311 82.088002,35.9240041 81.688,35.108 C81.287998,34.2919959 81.088,33.3293389 81.088,32.22 C81.088,31.1213278 81.287998,30.1613374 81.688,29.34 C82.088002,28.5186626 82.6559963,27.8866689 83.392,27.444 C84.1280037,27.0013311 84.9813285,26.78 85.952,26.78 C86.9653384,26.78 87.8159966,26.9879979 88.504,27.404 C89.1920034,27.8200021 89.706665,28.4333293 90.048,29.244 L88.784,29.836 C88.5493322,29.2173302 88.2080022,28.7533349 87.76,28.444 C87.3119978,28.1346651 86.7413368,27.98 86.048,27.98 C85.322663,27.98 84.6880027,28.1479983 84.144,28.484 C83.5999973,28.8200017 83.1786682,29.3079968 82.88,29.948 C82.5813318,30.5880032 82.432,31.345329 82.432,32.22 C82.432,33.5426733 82.7493302,34.5799962 83.384,35.332 C84.0186698,36.0840038 84.8853278,36.46 85.984,36.46 C86.6986702,36.46 87.3173307,36.2786685 87.84,35.916 C88.3626693,35.5533315 88.7359989,35.0200035 88.96,34.316 L90.24,34.796 Z M99.024,36.572 C99.2373344,36.572 99.4506656,36.5453336 99.664,36.492 L99.584,37.5 C99.2853318,37.6066672 98.965335,37.66 98.624,37.66 C98.2079979,37.66 97.8800012,37.5693342 97.64,37.388 C97.3999988,37.2066658 97.2480003,36.9026688 97.184,36.476 C96.9386654,36.8493352 96.578669,37.139999 96.104,37.348 C95.629331,37.556001 95.1306693,37.66 94.608,37.66 C93.8186627,37.66 93.1680026,37.4760018 92.656,37.108 C92.1439974,36.7399982 91.888,36.2093368 91.888,35.516 C91.888,34.907997 92.154664,34.3826689 92.688,33.94 C93.221336,33.4973311 93.9946616,33.1906675 95.008,33.02 L97.136,32.668 L97.136,32.22 C97.136,31.686664 96.9706683,31.2600016 96.64,30.94 C96.3093317,30.6199984 95.8506696,30.46 95.264,30.46 C94.730664,30.46 94.2693353,30.5879987 93.88,30.844 C93.4906647,31.1000013 93.1893344,31.4786642 92.976,31.98 L92.032,31.292 C92.2453344,30.6946637 92.6426638,30.2200018 93.224,29.868 C93.8053362,29.5159982 94.4853294,29.34 95.264,29.34 C96.2133381,29.34 96.9759971,29.569331 97.552,30.028 C98.1280029,30.486669 98.416,31.1639955 98.416,32.06 L98.416,35.996 C98.416,36.188001 98.4639995,36.3319995 98.56,36.428 C98.6560005,36.5240005 98.8106656,36.572 99.024,36.572 Z M94.672,36.54 C95.3440034,36.54 95.9226642,36.3800016 96.408,36.06 C96.8933358,35.7399984 97.136,35.3240026 97.136,34.812 L97.136,33.708 L95.344,34.044 C94.6293298,34.1720006 94.0960018,34.3559988 93.744,34.596 C93.3919982,34.8360012 93.216,35.1426648 93.216,35.516 C93.216,35.8466683 93.3439987,36.0999991 93.6,36.276 C93.8560013,36.4520009 94.213331,36.54 94.672,36.54 Z M102.736,35.356 C102.736,35.7613354 102.797333,36.0413326 102.92,36.196 C103.042667,36.3506674 103.269332,36.428 103.6,36.428 C103.824001,36.428 104.018666,36.4120002 104.184,36.38 C104.349334,36.3479998 104.543999,36.2893338 104.768,36.204 L104.56,37.436 C104.207998,37.5853341 103.813336,37.66 103.376,37.66 C102.72533,37.66 102.242668,37.4840018 101.928,37.132 C101.613332,36.7799982 101.456,36.241337 101.456,35.516 L101.456,25.82 L102.736,25.82 L102.736,35.356 Z M107.632,35.356 C107.632,35.7613354 107.693333,36.0413326 107.816,36.196 C107.938667,36.3506674 108.165332,36.428 108.496,36.428 C108.720001,36.428 108.914666,36.4120002 109.08,36.38 C109.245334,36.3479998 109.439999,36.2893338 109.664,36.204 L109.456,37.436 C109.103998,37.5853341 108.709336,37.66 108.272,37.66 C107.62133,37.66 107.138668,37.4840018 106.824,37.132 C106.509332,36.7799982 106.352,36.241337 106.352,35.516 L106.352,25.82 L107.632,25.82 L107.632,35.356 Z M118.288,28.14 L118.288,31.548 L123.056,31.548 L123.056,32.748 L118.288,32.748 L118.288,37.5 L117.008,37.5 L117.008,26.94 L124.4,26.94 L124.4,28.14 L118.288,28.14 Z M133.088,36.572 C133.301334,36.572 133.514666,36.5453336 133.728,36.492 L133.648,37.5 C133.349332,37.6066672 133.029335,37.66 132.688,37.66 C132.271998,37.66 131.944001,37.5693342 131.704,37.388 C131.463999,37.2066658 131.312,36.9026688 131.248,36.476 C131.002665,36.8493352 130.642669,37.139999 130.168,37.348 C129.693331,37.556001 129.194669,37.66 128.672,37.66 C127.882663,37.66 127.232003,37.4760018 126.72,37.108 C126.207997,36.7399982 125.952,36.2093368 125.952,35.516 C125.952,34.907997 126.218664,34.3826689 126.752,33.94 C127.285336,33.4973311 128.058662,33.1906675 129.072,33.02 L131.2,32.668 L131.2,32.22 C131.2,31.686664 131.034668,31.2600016 130.704,30.94 C130.373332,30.6199984 129.91467,30.46 129.328,30.46 C128.794664,30.46 128.333335,30.5879987 127.944,30.844 C127.554665,31.1000013 127.253334,31.4786642 127.04,31.98 L126.096,31.292 C126.309334,30.6946637 126.706664,30.2200018 127.288,29.868 C127.869336,29.5159982 128.549329,29.34 129.328,29.34 C130.277338,29.34 131.039997,29.569331 131.616,30.028 C132.192003,30.486669 132.48,31.1639955 132.48,32.06 L132.48,35.996 C132.48,36.188001 132.528,36.3319995 132.624,36.428 C132.72,36.5240005 132.874666,36.572 133.088,36.572 Z M128.736,36.54 C129.408003,36.54 129.986664,36.3800016 130.472,36.06 C130.957336,35.7399984 131.2,35.3240026 131.2,34.812 L131.2,33.708 L129.408,34.044 C128.69333,34.1720006 128.160002,34.3559988 127.808,34.596 C127.455998,34.8360012 127.28,35.1426648 127.28,35.516 C127.28,35.8466683 127.407999,36.0999991 127.664,36.276 C127.920001,36.4520009 128.277331,36.54 128.736,36.54 Z M142.224,29.5 L138.896,37.5 L137.616,37.5 L134.288,29.5 L135.744,29.5 L138.272,36.204 L140.88,29.5 L142.224,29.5 Z M147.28,29.34 C148.485339,29.34 149.431997,29.7079963 150.12,30.444 C150.808003,31.1800037 151.152,32.1986602 151.152,33.5 C151.152,34.8013398 150.808003,35.8199963 150.12,36.556 C149.431997,37.2920037 148.485339,37.66 147.28,37.66 C146.074661,37.66 145.128003,37.2920037 144.44,36.556 C143.751997,35.8199963 143.408,34.8013398 143.408,33.5 C143.408,32.1986602 143.751997,31.1800037 144.44,30.444 C145.128003,29.7079963 146.074661,29.34 147.28,29.34 Z M147.28,30.444 C146.469329,30.444 145.834669,30.7159973 145.376,31.26 C144.917331,31.8040027 144.688,32.5506619 144.688,33.5 C144.688,34.4493381 144.917331,35.1959973 145.376,35.74 C145.834669,36.2840027 146.469329,36.556 147.28,36.556 C148.090671,36.556 148.725331,36.2840027 149.184,35.74 C149.642669,35.1959973 149.872,34.4493381 149.872,33.5 C149.872,32.5506619 149.642669,31.8040027 149.184,31.26 C148.725331,30.7159973 148.090671,30.444 147.28,30.444 Z M160.56,29.5 L160.56,37.5 L159.44,37.5 L159.36,36.284 C158.826664,37.2013379 157.872007,37.66 156.496,37.66 C155.631996,37.66 154.925336,37.4200024 154.376,36.94 C153.826664,36.4599976 153.552,35.724005 153.552,34.732 L153.552,29.5 L154.832,29.5 L154.832,34.396 C154.832,35.1746706 154.991998,35.726665 155.312,36.052 C155.632002,36.377335 156.10133,36.54 156.72,36.54 C157.456004,36.54 158.066664,36.3160022 158.552,35.868 C159.037336,35.4199978 159.28,34.7480045 159.28,33.852 L159.28,29.5 L160.56,29.5 Z M167.312,29.34 C167.696002,29.34 167.989332,29.3933328 168.192,29.5 L167.936,30.748 C167.679999,30.6093326 167.344002,30.54 166.928,30.54 C166.586665,30.54 166.253335,30.6386657 165.928,30.836 C165.602665,31.0333343 165.336001,31.331998 165.128,31.732 C164.919999,32.132002 164.816,32.6146638 164.816,33.18 L164.816,37.5 L163.536,37.5 L163.536,29.5 L164.576,29.5 L164.752,30.812 C165.200002,29.8306618 166.053327,29.34 167.312,29.34 Z M170.704,27.964 C170.415999,27.964 170.184001,27.8760009 170.008,27.7 C169.831999,27.5239991 169.744,27.2920014 169.744,27.004 C169.744,26.7159986 169.831999,26.4840009 170.008,26.308 C170.184001,26.1319991 170.415999,26.044 170.704,26.044 C170.992001,26.044 171.223999,26.1319991 171.4,26.308 C171.576001,26.4840009 171.664,26.7159986 171.664,27.004 C171.664,27.2920014 171.576001,27.5239991 171.4,27.7 C171.223999,27.8760009 170.992001,27.964 170.704,27.964 Z M171.344,37.5 L170.064,37.5 L170.064,29.5 L171.344,29.5 L171.344,37.5 Z M179.216,36.94 C178.682664,37.4200024 177.994671,37.66 177.152,37.66 C176.50133,37.66 175.970669,37.4840018 175.56,37.132 C175.149331,36.7799982 174.938667,36.241337 174.928,35.516 L174.928,30.604 L173.328,30.604 L173.328,29.5 L174.928,29.5 L174.928,27.58 L176.208,27.228 L176.208,29.5 L179.168,29.5 L179.168,30.604 L176.208,30.604 L176.208,35.292 C176.208,35.6760019 176.317332,35.9666657 176.536,36.164 C176.754668,36.3613343 177.045332,36.46 177.408,36.46 C177.920003,36.46 178.373331,36.2626686 178.768,35.868 L179.216,36.94 Z M187.888,33.084 C187.888,33.3826682 187.866667,33.6813318 187.824,33.98 L181.792,33.98 C181.866667,34.7906707 182.135998,35.4199978 182.6,35.868 C183.064002,36.3160022 183.663996,36.54 184.4,36.54 C184.98667,36.54 185.474665,36.4386677 185.864,36.236 C186.253335,36.0333323 186.517333,35.7400019 186.656,35.356 L187.728,35.916 C187.407998,36.4813362 186.981336,36.9133318 186.448,37.212 C185.914664,37.5106682 185.232004,37.66 184.4,37.66 C183.194661,37.66 182.248003,37.2920037 181.56,36.556 C180.871997,35.8199963 180.528,34.8013398 180.528,33.5 C180.528,32.1986602 180.855997,31.1800037 181.512,30.444 C182.168003,29.7079963 183.098661,29.34 184.304,29.34 C185.05067,29.34 185.695997,29.5053317 186.24,29.836 C186.784003,30.1666683 187.194665,30.6146638 187.472,31.18 C187.749335,31.7453362 187.888,32.3799965 187.888,33.084 Z M184.304,30.46 C183.599996,30.46 183.032002,30.6679979 182.6,31.084 C182.167998,31.5000021 181.904,32.0866629 181.808,32.844 L186.656,32.844 C186.570666,32.0973296 186.325335,31.5133354 185.92,31.092 C185.514665,30.6706646 184.976003,30.46 184.304,30.46 Z M193.04,37.66 C192.271996,37.66 191.57867,37.5080015 190.96,37.204 C190.34133,36.8999985 189.888001,36.4493363 189.6,35.852 L190.64,35.132 C190.821334,35.6013357 191.135998,35.9533322 191.584,36.188 C192.032002,36.4226678 192.559997,36.54 193.168,36.54 C193.797336,36.54 194.277332,36.4280011 194.608,36.204 C194.938668,35.9799989 195.104,35.697335 195.104,35.356 C195.104,35.0466651 194.949335,34.7986676 194.64,34.612 C194.330665,34.4253324 193.786671,34.2626674 193.008,34.124 C192.239996,33.9853326 191.632002,33.8173343 191.184,33.62 C190.735998,33.4226657 190.410668,33.1720015 190.208,32.868 C190.005332,32.5639985 189.904,32.1880022 189.904,31.74 C189.904,31.3026645 190.031999,30.9026685 190.288,30.54 C190.544001,30.1773315 190.911998,29.8866678 191.392,29.668 C191.872002,29.4493322 192.426664,29.34 193.056,29.34 C193.909338,29.34 194.594664,29.4973318 195.112,29.812 C195.629336,30.1266682 195.999999,30.6093301 196.224,31.26 L195.136,31.9 C194.965332,31.3879974 194.706668,31.0200011 194.36,30.796 C194.013332,30.5719989 193.578669,30.46 193.056,30.46 C192.533331,30.46 192.090668,30.5773322 191.728,30.812 C191.365332,31.0466678 191.184,31.3186651 191.184,31.628 C191.184,31.9800018 191.341332,32.251999 191.656,32.444 C191.970668,32.636001 192.533329,32.8013326 193.344,32.94 C194.453339,33.1213342 195.237331,33.3933315 195.696,33.756 C196.154669,34.1186685 196.384,34.6306634 196.384,35.292 C196.384,35.750669 196.248001,36.1586649 195.976,36.516 C195.703999,36.8733351 195.314669,37.1533323 194.808,37.356 C194.301331,37.5586677 193.712003,37.66 193.04,37.66 Z" id="Call-Favourites" fill="#879BA3"></path>
                <path d="M34.4244444,30.5211111 C36.1844444,33.98 39.02,36.8033333 42.4788889,38.5755556 L45.1677778,35.8866667 C45.4977778,35.5566667 45.9866667,35.4466667 46.4144444,35.5933333 C47.7833333,36.0455556 49.2622222,36.29 50.7777778,36.29 C51.45,36.29 52,36.84 52,37.5122222 L52,41.7777778 C52,42.45 51.45,43 50.7777778,43 C39.3011111,43 30,33.6988889 30,22.2222222 C30,21.55 30.55,21 31.2222222,21 L35.5,21 C36.1722222,21 36.7222222,21.55 36.7222222,22.2222222 C36.7222222,23.75 36.9666667,25.2166667 37.4188889,26.5855556 C37.5533333,27.0133333 37.4555556,27.49 37.1133333,27.8322222 L34.4244444,30.5211111" id="Fill-137" fill="#879BA3"></path>
            </g>
        </g>
    </g>
</svg>