<?xml version="1.0" encoding="UTF-8"?>
<svg width="239px" height="60px" viewBox="0 0 239 60" version="1.1" xmlns="http://www.w3.org/2000/svg" xmlns:xlink="http://www.w3.org/1999/xlink">
    <!-- Generator: Sketch 46.1 (44463) - http://www.bohemiancoding.com/sketch -->
    <title>Group 2</title>
    <desc>Created with Sketch.</desc>
    <defs></defs>
    <g id="Page-1" stroke="none" stroke-width="1" fill="none" fill-rule="evenodd">
        <g id="second-fold-copy" transform="translate(-68.000000, -1567.000000)" fill-rule="nonzero" fill="#47B04B">
            <g id="Group-2" transform="translate(68.000000, 1567.000000)">
                <g id="noun_630709_cc" transform="translate(61.836602, 0.000000)">
                    <path d="M143.176654,36.6163636 C136.719805,36.6163636 131.462771,41.7909091 131.462771,48.1545455 C131.462771,54.5181818 136.719805,59.6981818 143.176654,59.6981818 C149.640886,59.6981818 154.89792,54.5181818 154.89792,48.1545455 C154.89792,41.7909091 149.640886,36.6163636 143.176654,36.6163636 Z" id="Shape"></path>
                    <path d="M35.335465,36.6163636 C28.8749245,36.6163636 23.6160445,41.7909091 23.6160445,48.1545455 C23.6160445,54.5181818 28.8749245,59.6981818 35.335465,59.6981818 C41.7960056,59.6981818 47.0530397,54.5181818 47.0530397,48.1545455 C47.0530397,41.7909091 41.7960056,36.6163636 35.335465,36.6163636 Z" id="Shape"></path>
                    <path d="M175.165559,36.6163636 C174.55273,34.6036364 173.255084,31.9036364 170.58965,30.2090909 C158.32939,23.3527273 142.170655,21.5818182 140.147583,21.4 C138.118973,21.2145455 134.87209,20.7690909 134.87209,20.7690909 C134.87209,20.7690909 117.906711,7.80181818 101.814427,2.90545455 C85.7239895,-1.99272727 52.5998752,1.48909091 49.7443163,1.75272727 C42.9773615,2.34545455 24.5703586,15.7709091 24.5703586,15.7709091 C24.5703586,15.7709091 2.1781251,18.68 1.08906255,20.7036364 C-4.77395901e-15,22.7272727 0.922934363,29.0909091 0.9266261,34.8218182 C0.930317838,40.5527273 2.09136927,49.42 2.09136927,49.42 C4.70881112,49.5763636 18.7983271,50.4072727 18.7983271,50.4072727 C18.6949585,49.6690909 18.6229696,48.9218182 18.6229696,48.1563636 C18.6229696,39.0654545 26.1042755,31.6927273 35.335465,31.6927273 C44.5666545,31.6927273 52.0479605,39.3072727 52.0479605,48.3963636 C52.0479605,50.1 51.787693,51.7 51.3003836,53.5181818 L127.220964,53.5181818 C126.731809,51.7 126.471542,50.0945455 126.471542,48.3963636 C126.471542,39.3072727 133.952848,31.8145455 143.185883,31.8145455 C152.415227,31.8145455 159.898378,39.1254545 159.898378,48.2163636 C159.898378,49.6545455 159.695333,51.0072727 159.340926,52.3381818 C162.672719,52.4781818 174.884987,52.9218182 175.828225,52.2890909 C176.919134,51.5545455 175.780233,38.6309091 175.165559,36.6163636 Z M49.340071,19.8327273 C49.340071,19.8327273 49.1481007,9.8 51.8929075,7.32545455 C54.641406,4.85272727 72.5149529,5.48727273 73.3751277,5.42363636 C74.2371484,5.36181818 75.0456389,6.29272727 75.1120902,7.17454545 C75.1766956,8.05818182 76.1143969,21.3472727 76.1143969,21.3472727 L49.340071,19.8327273 Z M114.128217,22.5690909 L82.9699534,21.8054545 C82.9699534,21.8054545 79.9741084,7.04727273 79.8485893,6.45090909 C79.7230703,5.85272727 80.2842144,5.42727273 81.2366826,5.42545455 C82.1891509,5.42363636 94.8961112,6.55636364 101.404644,8.84545455 C110.259277,11.9581818 118.00085,17.76 118.00085,17.76 L114.128217,22.5690909 Z" id="Shape"></path>
                </g>
                <path d="M58.8370656,44.5454545 L35.0472797,44.5454545 L35.0472797,44.5454545 C34.1686449,44.5454545 33.4563707,45.2577288 33.4563707,46.1363636 L33.4563707,46.1363636 L33.4563707,46.1363636 C33.4563707,47.0149985 34.1686449,47.7272727 35.0472797,47.7272727 L58.8370656,47.7272727 L58.8370656,44.5454545 Z" id="Line-2"></path>
                <path d="M56.0682625,34.5454545 L21.2032643,34.5454545 L21.2032643,34.5454545 C20.3246295,34.5454545 19.6123552,35.2577288 19.6123552,36.1363636 L19.6123552,36.1363636 L19.6123552,36.1363636 C19.6123552,37.0149985 20.3246295,37.7272727 21.2032643,37.7272727 L56.0682625,37.7272727 L56.0682625,34.5454545 Z" id="Line-2-Copy"></path>
                <path d="M53.2994595,24.5454545 L1.82164268,24.5454545 L1.82164268,24.5454545 C0.943007852,24.5454545 0.230733591,25.2577288 0.230733591,26.1363636 L0.230733591,26.1363636 L0.230733591,26.1363636 C0.230733591,27.0149985 0.943007852,27.7272727 1.82164268,27.7272727 L53.2994595,27.7272727 L53.2994595,24.5454545 Z" id="Line-2-Copy-2"></path>
            </g>
        </g>
    </g>
</svg>