<?xml version="1.0" encoding="UTF-8"?>
<svg width="242px" height="196px" viewBox="0 0 242 196" version="1.1" xmlns="http://www.w3.org/2000/svg" xmlns:xlink="http://www.w3.org/1999/xlink">
    <!-- Generator: Sketch 46.1 (44463) - http://www.bohemiancoding.com/sketch -->
    <title>Group 6</title>
    <desc>Created with Sketch.</desc>
    <defs></defs>
    <g id="Page-1" stroke="none" stroke-width="1" fill="none" fill-rule="evenodd">
        <g id="second-fold-copy" transform="translate(-67.000000, -1194.000000)">
            <g id="Group-6" transform="translate(67.000000, 1194.000000)">
                <path d="M1,68.22 L241,68.22" id="Line" stroke-opacity="0.306584013" stroke="#9B9B9B" stroke-linecap="square"></path>
                <path d="M1,141.22 L241,141.22" id="Line-Copy" stroke-opacity="0.306584013" stroke="#9B9B9B" stroke-linecap="square"></path>
                <g id="Group-10" transform="translate(0.000000, 87.220000)">
                    <circle id="Oval-4" fill="#3C3C3C" cx="17.5" cy="17.5" r="17.5"></circle>
                    <text id="A" font-family="Montserrat-SemiBold, Montserrat" font-size="14" font-weight="500" fill="#FFFFFF">
                        <tspan x="12" y="23">A</tspan>
                    </text>
                </g>
                <path d="M57.686,104.22 L56.706,101.658 L52.52,101.658 L51.54,104.22 L50.364,104.22 L53.962,94.98 L55.292,94.98 L58.876,104.22 L57.686,104.22 Z M52.926,100.608 L56.3,100.608 L55.054,97.332 L54.62,96.044 L54.592,96.044 L54.186,97.29 L52.926,100.608 Z M63.944,97.08 C62.978,97.08 62.082,97.43 61.592,98.312 L61.522,97.22 L60.542,97.22 L60.542,104.22 L61.662,104.22 L61.662,100.496 C61.662,98.704 62.81,98.06 63.832,98.06 C64.798,98.06 65.554,98.578 65.554,100.132 L65.554,104.22 L66.674,104.22 L66.674,99.74 C66.674,97.934 65.442,97.08 63.944,97.08 Z M74.304,94 L75.424,94 L75.424,104.22 L74.444,104.22 L74.374,103.002 C73.968,103.8 73.086,104.36 71.98,104.36 C70.034,104.36 68.788,103.002 68.788,100.72 C68.788,98.438 70.034,97.08 71.98,97.08 C73.03,97.08 73.87,97.584 74.304,98.312 L74.304,94 Z M72.106,103.38 C73.436,103.38 74.304,102.386 74.304,100.804 L74.304,100.636 C74.304,99.054 73.436,98.06 72.106,98.06 C70.734,98.06 69.908,99.096 69.908,100.72 C69.908,102.344 70.734,103.38 72.106,103.38 Z M81.332,97.08 C80.24,97.08 79.484,97.514 79.092,98.368 L78.938,97.22 L78.028,97.22 L78.028,104.22 L79.148,104.22 L79.148,100.44 C79.148,98.872 80.156,98.13 80.996,98.13 C81.36,98.13 81.668,98.2 81.878,98.312 L82.102,97.22 C81.892,97.108 81.57,97.08 81.332,97.08 Z M89.522,100.356 C89.522,100.678 89.494,100.944 89.466,101.14 L84.188,101.14 C84.328,102.554 85.182,103.38 86.47,103.38 C87.492,103.38 88.192,103.016 88.444,102.344 L89.382,102.834 C88.85,103.786 87.982,104.36 86.47,104.36 C84.356,104.36 83.082,102.988 83.082,100.72 C83.082,98.452 84.272,97.08 86.386,97.08 C88.416,97.08 89.522,98.55 89.522,100.356 Z M86.386,98.06 C85.14,98.06 84.37,98.83 84.202,100.146 L88.444,100.146 C88.29,98.858 87.576,98.06 86.386,98.06 Z M100.4,97.22 L98.636,102.918 L96.732,97.22 L95.612,97.22 L93.708,102.918 L91.944,97.22 L90.698,97.22 L93.134,104.22 L94.254,104.22 L96.116,98.648 L98.09,104.22 L99.21,104.22 L101.646,97.22 L100.4,97.22 Z M115.59,101.854 L114.47,101.434 C114.064,102.68 113.098,103.31 111.866,103.31 C109.948,103.31 108.758,101.924 108.758,99.6 C108.758,97.262 110.032,95.89 111.922,95.89 C113.154,95.89 113.91,96.45 114.316,97.514 L115.422,96.996 C114.834,95.596 113.63,94.84 111.838,94.84 C109.262,94.84 107.582,96.674 107.582,99.6 C107.582,102.526 109.234,104.36 111.866,104.36 C113.602,104.36 115.002,103.436 115.59,101.854 Z M120.938,97.08 C119.986,97.08 119.146,97.43 118.656,98.27 L118.656,94 L117.536,94 L117.536,104.22 L118.656,104.22 L118.656,100.51 C118.656,98.718 119.804,98.06 120.826,98.06 C121.792,98.06 122.548,98.578 122.548,100.132 L122.548,104.22 L123.668,104.22 L123.668,99.74 C123.668,97.934 122.436,97.08 120.938,97.08 Z M132.208,100.356 C132.208,100.678 132.18,100.944 132.152,101.14 L126.874,101.14 C127.014,102.554 127.868,103.38 129.156,103.38 C130.178,103.38 130.878,103.016 131.13,102.344 L132.068,102.834 C131.536,103.786 130.668,104.36 129.156,104.36 C127.042,104.36 125.768,102.988 125.768,100.72 C125.768,98.452 126.958,97.08 129.072,97.08 C131.102,97.08 132.208,98.55 132.208,100.356 Z M129.072,98.06 C127.826,98.06 127.056,98.83 126.888,100.146 L131.13,100.146 C130.976,98.858 130.262,98.06 129.072,98.06 Z M137.738,97.08 C136.772,97.08 135.876,97.43 135.386,98.312 L135.316,97.22 L134.336,97.22 L134.336,104.22 L135.456,104.22 L135.456,100.496 C135.456,98.704 136.604,98.06 137.626,98.06 C138.592,98.06 139.348,98.578 139.348,100.132 L139.348,104.22 L140.468,104.22 L140.468,99.74 C140.468,97.934 139.236,97.08 137.738,97.08 Z" id="Andrew-Chen" fill="#3C3C3C"></path>
                <polyline id="Fill-171" fill="#D0021B" points="63.06 111.22 58 116.28 54.2733333 112.553333 57.3333333 112.553333 57.3333333 111.22 52 111.22 52 116.553333 53.3333333 116.553333 53.3333333 113.493333 58 118.16 64 112.16 63.06 111.22"></polyline>
                <polyline id="Fill-171-Copy" fill="#D0021B" points="80.06 111.22 75 116.28 71.2733333 112.553333 74.3333333 112.553333 74.3333333 111.22 69 111.22 69 116.553333 70.3333333 116.553333 70.3333333 113.493333 75 118.16 81 112.16 80.06 111.22"></polyline>
                <path d="M220.424444,102.741111 C222.184444,106.2 225.02,109.023333 228.478889,110.795556 L231.167778,108.106667 C231.497778,107.776667 231.986667,107.666667 232.414444,107.813333 C233.783333,108.265556 235.262222,108.51 236.777778,108.51 C237.45,108.51 238,109.06 238,109.732222 L238,113.997778 C238,114.67 237.45,115.22 236.777778,115.22 C225.301111,115.22 216,105.918889 216,94.4422222 C216,93.77 216.55,93.22 217.222222,93.22 L221.5,93.22 C222.172222,93.22 222.722222,93.77 222.722222,94.4422222 C222.722222,95.97 222.966667,97.4366667 223.418889,98.8055556 C223.553333,99.2333333 223.455556,99.71 223.113333,100.052222 L220.424444,102.741111" id="Fill-137" fill="#3C3C3C"></path>
                <path d="M60.444,172.98 L58.722,172.98 L56.706,178.608 L55.992,180.904 L55.964,180.904 L55.264,178.594 L53.234,172.98 L51.512,172.98 L51.512,182.22 L52.576,182.22 L52.576,176.41 L52.45,173.974 L52.464,173.974 L55.502,182.22 L56.454,182.22 L59.492,173.974 L59.506,173.974 L59.38,176.41 L59.38,182.22 L60.444,182.22 L60.444,172.98 Z M69.208,175.22 L68.004,175.22 L66.366,179.644 L65.862,181.03 L65.428,179.784 L63.678,175.22 L62.404,175.22 L65.33,182.206 L64.966,183.116 C64.616,184.04 64.182,184.25 63.692,184.25 C63.3,184.25 62.88,184.138 62.558,183.69 L62.166,184.642 C62.558,185.062 63.006,185.23 63.706,185.23 C64.742,185.23 65.372,184.768 65.918,183.396 L69.208,175.22 Z M81.514,172.98 L81.514,177.012 L76.502,177.012 L76.502,172.98 L75.382,172.98 L75.382,182.22 L76.502,182.22 L76.502,178.062 L81.514,178.062 L81.514,182.22 L82.634,182.22 L82.634,172.98 L81.514,172.98 Z M88.276,175.08 C90.39,175.08 91.664,176.452 91.664,178.72 C91.664,180.988 90.39,182.36 88.276,182.36 C86.162,182.36 84.888,180.988 84.888,178.72 C84.888,176.452 86.162,175.08 88.276,175.08 Z M88.276,176.046 C86.862,176.046 86.008,177.054 86.008,178.72 C86.008,180.386 86.862,181.394 88.276,181.394 C89.69,181.394 90.544,180.386 90.544,178.72 C90.544,177.054 89.69,176.046 88.276,176.046 Z M101.968,175.08 C101.086,175.08 99.966,175.5 99.532,176.452 C99.07,175.514 98.104,175.08 97.124,175.08 C96.256,175.08 95.388,175.458 94.884,176.312 L94.814,175.22 L93.834,175.22 L93.834,182.22 L94.954,182.22 L94.954,178.482 C94.954,176.746 96.102,176.06 97.026,176.06 C97.95,176.06 98.678,176.578 98.678,177.852 L98.678,182.22 L99.798,182.22 L99.798,178.384 C99.798,176.886 100.778,176.06 101.87,176.06 C102.794,176.06 103.522,176.578 103.522,177.852 L103.522,182.22 L104.642,182.22 L104.642,177.74 C104.642,175.892 103.312,175.08 101.968,175.08 Z M113.182,178.356 C113.182,178.678 113.154,178.944 113.126,179.14 L107.848,179.14 C107.988,180.554 108.842,181.38 110.13,181.38 C111.152,181.38 111.852,181.016 112.104,180.344 L113.042,180.834 C112.51,181.786 111.642,182.36 110.13,182.36 C108.016,182.36 106.742,180.988 106.742,178.72 C106.742,176.452 107.932,175.08 110.046,175.08 C112.076,175.08 113.182,176.55 113.182,178.356 Z M110.046,176.06 C108.8,176.06 108.03,176.83 107.862,178.146 L112.104,178.146 C111.95,176.858 111.236,176.06 110.046,176.06 Z" id="My-Home" fill="#3C3C3C"></path>
                <g id="Group-13" transform="translate(0.000000, 160.220000)">
                    <circle id="Oval-5" fill="#3C3C3C" cx="17.5" cy="17.5" r="17.5"></circle>
                    <path d="M17.325,9.1 C13.93875,9.1 11.2,11.83875 11.2,15.225 C11.2,19.81875 17.325,26.6 17.325,26.6 C17.325,26.6 23.45,19.81875 23.45,15.225 C23.45,11.83875 20.71125,9.1 17.325,9.1 L17.325,9.1 Z M17.325,17.4125 C16.1175,17.4125 15.1375,16.4325 15.1375,15.225 C15.1375,14.0175 16.1175,13.0375 17.325,13.0375 C18.5325,13.0375 19.5125,14.0175 19.5125,15.225 C19.5125,16.4325 18.5325,17.4125 17.325,17.4125 L17.325,17.4125 Z" id="Fill-222" fill="#FFFFFF"></path>
                </g>
                <polygon id="Fill-131" fill="#3C3C3C" points="12.1428571 47.22 12.1428571 30.22 0 38.72"></polygon>
                <path d="M111,49.22 L116.666667,49.22 L116.666667,29.22 L111,29.22 L111,49.22 Z M122.333333,49.22 L128,49.22 L128,29.22 L122.333333,29.22 L122.333333,49.22 Z" id="Fill-117" fill="#3C3C3C"></path>
                <polygon id="Fill-132" fill="#3C3C3C" points="228.857143 30.22 228.857143 47.22 241 38.72"></polygon>
                <polygon id="Path" fill="#3C3C3C" points="222 47.22 234.142857 38.72 222 30.22"></polygon>
                <path d="M4.48,0.84 C2.338,0.84 1.036,2.1 1.036,3.584 C1.036,4.998 1.932,5.754 4.424,6.188 C6.37,6.524 6.972,6.986 6.972,7.784 C6.972,8.778 6.02,9.31 4.592,9.31 C3.08,9.31 2.128,8.638 1.638,7.574 L0.672,8.358 C1.316,9.506 2.604,10.36 4.564,10.36 C6.72,10.36 8.134,9.31 8.134,7.728 C8.134,6.3 7.252,5.516 4.774,5.096 C2.828,4.76 2.212,4.326 2.212,3.458 C2.212,2.576 3.024,1.89 4.494,1.89 C5.852,1.89 6.524,2.366 7.084,3.584 L8.05,2.8 C7.336,1.512 6.174,0.84 4.48,0.84 Z M13.23,3.08 C11.116,3.08 9.842,4.452 9.842,6.72 C9.842,8.988 11.116,10.36 13.23,10.36 C14.714,10.36 15.722,9.59 16.198,8.302 L15.162,7.938 C14.952,8.862 14.294,9.38 13.202,9.38 C11.802,9.38 10.962,8.386 10.962,6.72 C10.962,5.054 11.802,4.06 13.202,4.06 C14.168,4.06 14.77,4.55 15.064,5.446 L16.128,4.942 C15.61,3.794 14.672,3.08 13.23,3.08 Z M23.912,9.408 C24.094,9.408 24.304,9.38 24.472,9.338 L24.402,10.22 C24.206,10.29 23.912,10.36 23.562,10.36 C22.876,10.36 22.428,10.108 22.302,9.324 C21.854,9.982 20.944,10.36 20.048,10.36 C18.732,10.36 17.668,9.744 17.668,8.484 C17.668,7.434 18.592,6.608 20.398,6.3 L22.26,5.992 L22.26,5.6 C22.26,4.676 21.672,4.06 20.622,4.06 C19.698,4.06 18.998,4.508 18.62,5.39 L17.794,4.788 C18.158,3.752 19.264,3.08 20.622,3.08 C22.218,3.08 23.38,3.836 23.38,5.46 L23.38,8.904 C23.38,9.24 23.52,9.408 23.912,9.408 Z M20.104,9.38 C21.224,9.38 22.26,8.792 22.26,7.868 L22.26,6.902 L20.692,7.196 C19.46,7.42 18.83,7.826 18.83,8.484 C18.83,9.072 19.306,9.38 20.104,9.38 Z M29.4,3.08 C28.308,3.08 27.552,3.514 27.16,4.368 L27.006,3.22 L26.096,3.22 L26.096,10.22 L27.216,10.22 L27.216,6.44 C27.216,4.872 28.224,4.13 29.064,4.13 C29.428,4.13 29.736,4.2 29.946,4.312 L30.17,3.22 C29.96,3.108 29.638,3.08 29.4,3.08 Z M37.59,6.356 C37.59,6.678 37.562,6.944 37.534,7.14 L32.256,7.14 C32.396,8.554 33.25,9.38 34.538,9.38 C35.56,9.38 36.26,9.016 36.512,8.344 L37.45,8.834 C36.918,9.786 36.05,10.36 34.538,10.36 C32.424,10.36 31.15,8.988 31.15,6.72 C31.15,4.452 32.34,3.08 34.454,3.08 C36.484,3.08 37.59,4.55 37.59,6.356 Z M34.454,4.06 C33.208,4.06 32.438,4.83 32.27,6.146 L36.512,6.146 C36.358,4.858 35.644,4.06 34.454,4.06 Z M44.814,0 L45.934,0 L45.934,10.22 L44.954,10.22 L44.884,9.002 C44.478,9.8 43.596,10.36 42.49,10.36 C40.544,10.36 39.298,9.002 39.298,6.72 C39.298,4.438 40.544,3.08 42.49,3.08 C43.54,3.08 44.38,3.584 44.814,4.312 L44.814,0 Z M42.616,9.38 C43.946,9.38 44.814,8.386 44.814,6.804 L44.814,6.636 C44.814,5.054 43.946,4.06 42.616,4.06 C41.244,4.06 40.418,5.096 40.418,6.72 C40.418,8.344 41.244,9.38 42.616,9.38 Z M56.924,8.792 C56.602,9.114 56.238,9.31 55.734,9.31 C55.118,9.31 54.684,8.974 54.684,8.288 L54.684,4.186 L57.274,4.186 L57.274,3.22 L54.684,3.22 L54.684,1.232 L53.564,1.54 L53.564,3.22 L52.164,3.22 L52.164,4.186 L53.564,4.186 L53.564,8.484 C53.578,9.842 54.474,10.36 55.51,10.36 C56.28,10.36 56.882,10.122 57.316,9.73 L56.924,8.792 Z M61.852,3.08 C63.966,3.08 65.24,4.452 65.24,6.72 C65.24,8.988 63.966,10.36 61.852,10.36 C59.738,10.36 58.464,8.988 58.464,6.72 C58.464,4.452 59.738,3.08 61.852,3.08 Z M61.852,4.046 C60.438,4.046 59.584,5.054 59.584,6.72 C59.584,8.386 60.438,9.394 61.852,9.394 C63.266,9.394 64.12,8.386 64.12,6.72 C64.12,5.054 63.266,4.046 61.852,4.046 Z M75.628,3.08 C77.574,3.08 78.82,4.438 78.82,6.72 C78.82,9.002 77.574,10.36 75.628,10.36 C74.522,10.36 73.64,9.8 73.234,9.002 L73.164,10.22 L72.184,10.22 L72.184,0 L73.304,0 L73.304,4.312 C73.738,3.584 74.578,3.08 75.628,3.08 Z M75.502,9.38 C76.874,9.38 77.7,8.344 77.7,6.72 C77.7,5.096 76.874,4.06 75.502,4.06 C74.172,4.06 73.304,5.054 73.304,6.636 L73.304,6.804 C73.304,8.386 74.172,9.38 75.502,9.38 Z M87.01,6.356 C87.01,6.678 86.982,6.944 86.954,7.14 L81.676,7.14 C81.816,8.554 82.67,9.38 83.958,9.38 C84.98,9.38 85.68,9.016 85.932,8.344 L86.87,8.834 C86.338,9.786 85.47,10.36 83.958,10.36 C81.844,10.36 80.57,8.988 80.57,6.72 C80.57,4.452 81.76,3.08 83.874,3.08 C85.904,3.08 87.01,4.55 87.01,6.356 Z M83.874,4.06 C82.628,4.06 81.858,4.83 81.69,6.146 L85.932,6.146 C85.778,4.858 85.064,4.06 83.874,4.06 Z M94.976,0 L93.856,0 L93.856,8.484 C93.856,9.758 94.402,10.36 95.536,10.36 C95.9,10.36 96.278,10.29 96.572,10.164 L96.754,9.086 C96.348,9.24 96.11,9.282 95.732,9.282 C95.158,9.282 94.976,9.058 94.976,8.344 L94.976,0 Z M101.15,3.08 C103.264,3.08 104.538,4.452 104.538,6.72 C104.538,8.988 103.264,10.36 101.15,10.36 C99.036,10.36 97.762,8.988 97.762,6.72 C97.762,4.452 99.036,3.08 101.15,3.08 Z M101.15,4.046 C99.736,4.046 98.882,5.054 98.882,6.72 C98.882,8.386 99.736,9.394 101.15,9.394 C102.564,9.394 103.418,8.386 103.418,6.72 C103.418,5.054 102.564,4.046 101.15,4.046 Z M110.11,3.08 C109.144,3.08 108.248,3.43 107.758,4.312 L107.688,3.22 L106.708,3.22 L106.708,10.22 L107.828,10.22 L107.828,6.496 C107.828,4.704 108.976,4.06 109.998,4.06 C110.964,4.06 111.72,4.578 111.72,6.132 L111.72,10.22 L112.84,10.22 L112.84,5.74 C112.84,3.934 111.608,3.08 110.11,3.08 Z M121.38,6.356 C121.38,6.678 121.352,6.944 121.324,7.14 L116.046,7.14 C116.186,8.554 117.04,9.38 118.328,9.38 C119.35,9.38 120.05,9.016 120.302,8.344 L121.24,8.834 C120.708,9.786 119.84,10.36 118.328,10.36 C116.214,10.36 114.94,8.988 114.94,6.72 C114.94,4.452 116.13,3.08 118.244,3.08 C120.274,3.08 121.38,4.55 121.38,6.356 Z M118.244,4.06 C116.998,4.06 116.228,4.83 116.06,6.146 L120.302,6.146 C120.148,4.858 119.434,4.06 118.244,4.06 Z M124.572,0 L123.452,0 L123.452,8.484 C123.452,9.758 123.998,10.36 125.132,10.36 C125.496,10.36 125.874,10.29 126.168,10.164 L126.35,9.086 C125.944,9.24 125.706,9.282 125.328,9.282 C124.754,9.282 124.572,9.058 124.572,8.344 L124.572,0 Z M133.392,3.22 L132.188,3.22 L130.55,7.644 L130.046,9.03 L129.612,7.784 L127.862,3.22 L126.588,3.22 L129.514,10.206 L129.15,11.116 C128.8,12.04 128.366,12.25 127.876,12.25 C127.484,12.25 127.064,12.138 126.742,11.69 L126.35,12.642 C126.742,13.062 127.19,13.23 127.89,13.23 C128.926,13.23 129.556,12.768 130.102,11.396 L133.392,3.22 Z M146.202,6.034 L139.202,6.034 L139.202,7.084 L146.202,7.084 L146.202,6.034 Z M162.568,0.98 L160.846,0.98 L158.83,6.608 L158.116,8.904 L158.088,8.904 L157.388,6.594 L155.358,0.98 L153.636,0.98 L153.636,10.22 L154.7,10.22 L154.7,4.41 L154.574,1.974 L154.588,1.974 L157.626,10.22 L158.578,10.22 L161.616,1.974 L161.63,1.974 L161.504,4.41 L161.504,10.22 L162.568,10.22 L162.568,0.98 Z M171.038,9.408 C171.22,9.408 171.43,9.38 171.598,9.338 L171.528,10.22 C171.332,10.29 171.038,10.36 170.688,10.36 C170.002,10.36 169.554,10.108 169.428,9.324 C168.98,9.982 168.07,10.36 167.174,10.36 C165.858,10.36 164.794,9.744 164.794,8.484 C164.794,7.434 165.718,6.608 167.524,6.3 L169.386,5.992 L169.386,5.6 C169.386,4.676 168.798,4.06 167.748,4.06 C166.824,4.06 166.124,4.508 165.746,5.39 L164.92,4.788 C165.284,3.752 166.39,3.08 167.748,3.08 C169.344,3.08 170.506,3.836 170.506,5.46 L170.506,8.904 C170.506,9.24 170.646,9.408 171.038,9.408 Z M167.23,9.38 C168.35,9.38 169.386,8.792 169.386,7.868 L169.386,6.902 L167.818,7.196 C166.586,7.42 165.956,7.826 165.956,8.484 C165.956,9.072 166.432,9.38 167.23,9.38 Z M176.526,3.08 C175.434,3.08 174.678,3.514 174.286,4.368 L174.132,3.22 L173.222,3.22 L173.222,10.22 L174.342,10.22 L174.342,6.44 C174.342,4.872 175.35,4.13 176.19,4.13 C176.554,4.13 176.862,4.2 177.072,4.312 L177.296,3.22 C177.086,3.108 176.764,3.08 176.526,3.08 Z M182.406,8.792 C182.084,9.114 181.72,9.31 181.216,9.31 C180.6,9.31 180.166,8.974 180.166,8.288 L180.166,4.186 L182.756,4.186 L182.756,3.22 L180.166,3.22 L180.166,1.232 L179.046,1.54 L179.046,3.22 L177.646,3.22 L177.646,4.186 L179.046,4.186 L179.046,8.484 C179.06,9.842 179.956,10.36 180.992,10.36 C181.762,10.36 182.364,10.122 182.798,9.73 L182.406,8.792 Z M184.94,1.876 C185.444,1.876 185.78,1.54 185.78,1.036 C185.78,0.532 185.444,0.196 184.94,0.196 C184.436,0.196 184.1,0.532 184.1,1.036 C184.1,1.54 184.436,1.876 184.94,1.876 Z M185.5,3.22 L184.38,3.22 L184.38,10.22 L185.5,10.22 L185.5,3.22 Z M191.506,3.08 C190.54,3.08 189.644,3.43 189.154,4.312 L189.084,3.22 L188.104,3.22 L188.104,10.22 L189.224,10.22 L189.224,6.496 C189.224,4.704 190.372,4.06 191.394,4.06 C192.36,4.06 193.116,4.578 193.116,6.132 L193.116,10.22 L194.236,10.22 L194.236,5.74 C194.236,3.934 193.004,3.08 191.506,3.08 Z M205.31,5.558 L205.31,6.608 L208.25,6.608 L208.25,6.93 C208.25,8.526 207.06,9.31 205.52,9.31 C203.462,9.31 202.37,7.924 202.37,5.6 C202.37,3.276 203.63,1.89 205.506,1.89 C206.794,1.89 207.774,2.45 208.18,3.514 L209.202,2.954 C208.488,1.526 207.34,0.84 205.506,0.84 C202.916,0.84 201.194,2.674 201.194,5.6 C201.194,8.526 202.846,10.36 205.478,10.36 C206.892,10.36 207.858,9.842 208.39,8.974 L208.432,10.22 L209.272,10.22 L209.272,5.558 L205.31,5.558 Z M217.42,9.408 C217.602,9.408 217.812,9.38 217.98,9.338 L217.91,10.22 C217.714,10.29 217.42,10.36 217.07,10.36 C216.384,10.36 215.936,10.108 215.81,9.324 C215.362,9.982 214.452,10.36 213.556,10.36 C212.24,10.36 211.176,9.744 211.176,8.484 C211.176,7.434 212.1,6.608 213.906,6.3 L215.768,5.992 L215.768,5.6 C215.768,4.676 215.18,4.06 214.13,4.06 C213.206,4.06 212.506,4.508 212.128,5.39 L211.302,4.788 C211.666,3.752 212.772,3.08 214.13,3.08 C215.726,3.08 216.888,3.836 216.888,5.46 L216.888,8.904 C216.888,9.24 217.028,9.408 217.42,9.408 Z M213.612,9.38 C214.732,9.38 215.768,8.792 215.768,7.868 L215.768,6.902 L214.2,7.196 C212.968,7.42 212.338,7.826 212.338,8.484 C212.338,9.072 212.814,9.38 213.612,9.38 Z M222.908,3.08 C221.816,3.08 221.06,3.514 220.668,4.368 L220.514,3.22 L219.604,3.22 L219.604,10.22 L220.724,10.22 L220.724,6.44 C220.724,4.872 221.732,4.13 222.572,4.13 C222.936,4.13 223.244,4.2 223.454,4.312 L223.678,3.22 C223.468,3.108 223.146,3.08 222.908,3.08 Z M228.62,3.08 C227.528,3.08 226.772,3.514 226.38,4.368 L226.226,3.22 L225.316,3.22 L225.316,10.22 L226.436,10.22 L226.436,6.44 C226.436,4.872 227.444,4.13 228.284,4.13 C228.648,4.13 228.956,4.2 229.166,4.312 L229.39,3.22 C229.18,3.108 228.858,3.08 228.62,3.08 Z M231.588,1.876 C232.092,1.876 232.428,1.54 232.428,1.036 C232.428,0.532 232.092,0.196 231.588,0.196 C231.084,0.196 230.748,0.532 230.748,1.036 C230.748,1.54 231.084,1.876 231.588,1.876 Z M232.148,3.22 L231.028,3.22 L231.028,10.22 L232.148,10.22 L232.148,3.22 Z M240.45,10.22 L237.874,6.65 L240.408,3.22 L239.092,3.22 L237.272,5.81 L235.424,3.22 L234.024,3.22 L236.544,6.692 L233.856,10.22 L235.158,10.22 L237.146,7.518 L239.078,10.22 L240.45,10.22 Z" id="Scared-to-be-lonely" fill="#3C3C3C"></path>
                <polygon id="Shape" fill="#3C3C3C" fill-rule="nonzero" points="237.999962 165.22 213 175.618212 224.283155 178.93682 227.601728 190.22"></polygon>
                <polygon id="Path" fill="#3C3C3C" points="5.85714286 38.72 18 47.22 18 30.22"></polygon>
            </g>
        </g>
    </g>
</svg>