<?xml version="1.0" encoding="UTF-8"?>
<svg width="56px" height="56px" viewBox="0 0 56 56" version="1.1" xmlns="http://www.w3.org/2000/svg" xmlns:xlink="http://www.w3.org/1999/xlink">
    <!-- Generator: Sketch 46.1 (44463) - http://www.bohemiancoding.com/sketch -->
    <title>ic_automation</title>
    <desc>Created with Sketch.</desc>
    <defs></defs>
    <g id="Mobile" stroke="none" stroke-width="1" fill="none" fill-rule="evenodd">
        <g id="second-fold-Updated-UI" transform="translate(-32.000000, -1313.000000)">
            <g id="ic_automation" transform="translate(32.000000, 1313.000000)">
                <rect id="Rectangle-2-Copy-3" fill="#879BA3" x="0" y="0" width="56" height="56" rx="28"></rect>
                <g id="Group-4" transform="translate(13.000000, 12.000000)" fill-rule="nonzero" fill="#FFFFFF">
                    <path d="M30.3819483,19.3075981 C29.7185952,18.2872898 29.0559508,17.2662755 28.3734627,16.2586725 C28.2175464,16.0285649 28.2292401,15.875748 28.3791324,15.652346 C29.0400049,14.6648597 29.6820966,13.665374 30.3273776,12.6676528 C31.0874697,11.4924101 30.6877568,10.3274021 29.3734532,9.84459967 C28.2554623,9.43379408 27.1456217,9.0025188 26.0279853,8.59100736 C25.7926933,8.50454055 25.7030414,8.37289923 25.6920564,8.12020439 C25.6392575,6.9079044 25.5641343,5.69666318 25.5007047,4.48506903 C25.4337315,3.20253681 24.4188581,2.46351026 23.166921,2.7970251 C21.9893984,3.11042319 20.8115216,3.42205663 19.6407318,3.75910074 C19.3710675,3.8367444 19.228971,3.77568825 19.063487,3.56816789 C18.3129627,2.62691489 17.5443661,1.70013184 16.7846284,0.765937342 C15.954374,-0.25507689 14.7081066,-0.256841518 13.8736,0.769819525 C13.1234299,1.6927204 12.3682989,2.61209201 11.6397445,3.55158039 C11.4395338,3.80956912 11.2591669,3.85474362 10.9565475,3.76898266 C9.80985394,3.4435851 8.65536452,3.14465698 7.82617321,2.92266668 C6.21669165,2.53938929 5.2787133,3.19336074 5.18516351,4.49989192 C5.0972834,5.72419139 5.04413012,6.95166718 5.00196184,8.17843714 C4.9927486,8.44277854 4.90451415,8.55571479 4.66815918,8.64394622 C3.51366976,9.07486858 2.36236955,9.51496701 1.21567593,9.96635906 C0.023270501,10.4357503 -0.346676386,11.6004053 0.351049111,12.6768289 C1.01263037,13.6981961 1.67740083,14.7177986 2.35811727,15.7268134 C2.51119875,15.9537447 2.50694648,16.1115024 2.35705421,16.337022 C1.66960502,17.3714474 0.992432124,18.4129314 0.328724731,19.4628855 C-0.310886505,20.4743707 0.0913067104,21.6510253 1.21071496,22.0815946 C2.37264585,22.5283987 3.53386801,22.9776731 4.70359471,23.4040075 C4.95270645,23.4947095 5.03066461,23.6189393 5.04200398,23.8705753 C5.09515727,25.0422888 5.22839484,26.2140025 5.21599241,27.3843042 C5.20323562,28.5817813 6.25460766,29.6250299 7.68513982,29.1768143 C8.82084842,28.821065 9.98384237,28.5510768 11.1308903,28.2292084 C11.3612212,28.1646231 11.4972937,28.2073271 11.6478947,28.3957894 C12.4079867,29.3469244 13.1797724,30.2881774 13.954393,31.2280187 C14.8030738,32.2582091 16.025245,32.2567973 16.8625865,31.2269599 C17.6297657,30.2832364 18.3955274,29.3384541 19.1513671,28.3855546 C19.2970072,28.2020332 19.4274099,28.1430946 19.6644735,28.2087389 C20.8526267,28.5373127 22.0460952,28.8475344 23.2381463,29.1623443 C24.4642154,29.4859772 25.4900741,28.744833 25.5542122,27.4940641 C25.6169332,26.268 25.6956,25.0422888 25.7398944,23.8155189 C25.7501708,23.5282373 25.8706515,23.42483 26.1126762,23.334481 C27.241652,22.9123818 28.3649582,22.4754598 29.4886186,22.0399494 C30.7019311,21.5677348 31.0878239,20.3928449 30.3819483,19.3075981 Z M19.4529236,15.3449477 C17.7959583,18.2043521 16.1372214,21.0630509 14.4791931,23.9217496 C14.4728147,23.9326903 14.4657276,23.943278 14.4597036,23.9542188 C14.3470186,24.1645624 14.2144898,24.3660831 13.933486,24.2644405 C13.6400799,24.1582099 13.7088248,23.9009269 13.7481582,23.68176 C13.8764348,22.9624973 14.0160508,22.2453522 14.1521232,21.5278541 C14.3916674,20.2657916 14.6322746,19.0037291 14.8704013,17.7413136 C14.8905996,17.6340243 14.8966236,17.5235584 14.9143414,17.368977 C14.7577164,17.3615655 14.6255419,17.349566 14.494076,17.3502718 C13.5568064,17.3534482 12.6198911,17.3608597 11.6826215,17.3626243 C11.1312447,17.3636831 11.0015507,17.1353401 11.281137,16.6528905 C12.9381021,13.793486 14.5968391,10.9347874 16.2548673,8.07608866 C16.2612458,8.06514796 16.2683329,8.0545602 16.2743569,8.04361949 C16.3870418,7.83327575 16.5195706,7.63175514 16.8005744,7.73339775 C17.0939806,7.83962841 17.0252357,8.09691128 16.9859022,8.31607818 C16.8576257,9.0353409 16.7183639,9.75248605 16.5819372,10.4699841 C16.3423931,11.7320466 16.1017858,12.9941092 15.8636592,14.2565246 C15.8434609,14.3638141 15.8374368,14.4742798 15.8197191,14.6288613 C15.9763441,14.6362728 16.1085187,14.6482722 16.2399844,14.6475664 C17.1772541,14.64439 18.1141694,14.6369786 19.0514391,14.635214 C19.6028157,14.6341552 19.7325098,14.8628511 19.4529236,15.3449477 Z" id="automation_selected"></path>
                </g>
            </g>
        </g>
    </g>
</svg>