<?xml version="1.0" encoding="UTF-8" standalone="no"?>
<svg width="65px" height="65px" viewBox="0 0 65 65" version="1.1" xmlns="http://www.w3.org/2000/svg" xmlns:xlink="http://www.w3.org/1999/xlink">
    <!-- Generator: Sketch 45.2 (43514) - http://www.bohemiancoding.com/sketch -->
    <title>ic_automation</title>
    <desc>Created with Sketch.</desc>
    <defs></defs>
    <g id="Page-1" stroke="none" stroke-width="1" fill="none" fill-rule="evenodd">
        <g id="5-how-it-works" transform="translate(-95.000000, -1822.000000)" fill-rule="nonzero" fill="#4A90E2">
            <g id="ic_automation" transform="translate(95.000000, 1822.000000)">
                <g id="Group">
                    <path d="M63.2491711,25.8159882 L58.6010024,25.8159882 C57.9465671,23.1414518 56.8894024,20.5959954 55.4449978,18.2222153 L58.7391179,14.9280952 C59.2438205,14.4233926 59.2438205,13.6076074 58.7391179,13.1029048 L51.4383565,5.80085255 C51.1956862,5.55818226 50.8691139,5.42264832 50.5257613,5.42264832 C50.1824086,5.42264832 49.8545456,5.55818226 49.6131661,5.80085255 L46.319046,9.09497264 C43.9465567,7.6505681 41.3985187,6.59211258 38.7239823,5.93896808 L38.7239823,1.29079941 C38.7239823,0.578278135 38.1469949,0 37.4331829,0 L27.1067876,0 C26.3942663,0 25.8159882,0.578278135 25.8159882,1.29079941 L25.8159882,5.93896808 C23.1414518,6.59211258 20.5947046,7.6505681 18.2222153,9.09497264 L14.9280952,5.80085255 C14.4233926,5.29614998 13.6076074,5.29614998 13.1029048,5.80085255 L5.80214335,13.1029048 C5.29744078,13.6076074 5.29744078,14.4233926 5.80214335,14.9280952 L9.09626344,18.2222153 C7.6518589,20.5959954 6.59340338,23.1427426 5.94025888,25.8159882 L1.29079941,25.8159882 C0.578278135,25.8159882 0,26.3942663 0,27.1067876 L0,37.4331829 C0,38.1469949 0.578278135,38.7239823 1.29079941,38.7239823 L5.93896808,38.7239823 C6.59211258,41.3972279 7.6505681,43.9452659 9.09497264,46.319046 L5.80085255,49.6131661 C5.29614998,50.1178687 5.29614998,50.9336539 5.80085255,51.4383565 L13.101614,58.7391179 C13.6063166,59.2438205 14.4221018,59.2438205 14.9268044,58.7391179 L18.2209245,55.4449978 C20.5934138,56.8894024 23.140161,57.9465671 25.8146974,58.6010024 L25.8146974,63.2491711 C25.8146974,63.9629831 26.3929755,64.5399705 27.1054968,64.5399705 L37.4318921,64.5399705 C38.1457041,64.5399705 38.7226915,63.9629831 38.7226915,63.2491711 L38.7226915,58.6010024 C41.3959371,57.9465671 43.9439751,56.8894024 46.3177552,55.4449978 L49.6118753,58.7391179 C50.1165779,59.2438205 50.9323631,59.2438205 51.4370657,58.7391179 L58.7378271,51.4383565 C59.2425297,50.9336539 59.2425297,50.1178687 58.7378271,49.6131661 L55.443707,46.319046 C56.8881116,43.9452659 57.9452763,41.3985187 58.5997116,38.7239823 L63.2491711,38.7239823 C63.9629831,38.7239823 64.5399705,38.1469949 64.5399705,37.4331829 L64.5399705,27.1067876 C64.5399705,26.3942663 63.9629831,25.8159882 63.2491711,25.8159882 Z M49.0503776,32.2699852 C49.0503776,41.5224354 41.5224354,49.0503776 32.2699852,49.0503776 C23.0175351,49.0503776 15.4895929,41.5224354 15.4895929,32.2699852 C15.4895929,23.0175351 23.0175351,15.4895929 32.2699852,15.4895929 C41.5224354,15.4895929 49.0503776,23.0175351 49.0503776,32.2699852 Z" id="Shape"></path>
                    <path d="M39.3009696,23.3699233 C38.6620239,23.0510959 37.8888351,23.3092557 37.5687168,23.9469106 L30.6255068,37.8346215 L26.7285834,33.9376981 C26.2238808,33.4329955 25.4080956,33.4329955 24.903393,33.9376981 C24.3986904,34.4424006 24.3986904,35.2581859 24.903393,35.7628884 L30.0665906,40.9260861 C30.3105517,41.171338 30.6397056,41.3055811 30.9791858,41.3055811 C31.0475982,41.3055811 31.1173014,41.3004179 31.1857137,41.2888007 C31.5948971,41.2216791 31.9472854,40.9622285 32.1331605,40.591769 L39.877957,25.1021761 C40.1980752,24.4645212 39.9386245,23.6900416 39.3009696,23.3699233 Z" id="Shape"></path>
                </g>
            </g>
        </g>
    </g>
</svg>