<?xml version="1.0" encoding="UTF-8" standalone="no"?>
<svg width="48px" height="48px" viewBox="0 0 48 48" version="1.1" xmlns="http://www.w3.org/2000/svg" xmlns:xlink="http://www.w3.org/1999/xlink">
    <!-- Generator: Sketch 45.2 (43514) - http://www.bohemiancoding.com/sketch -->
    <title>ic_blue_nav</title>
    <desc>Created with Sketch.</desc>
    <defs></defs>
    <g id="Page-1" stroke="none" stroke-width="1" fill="none" fill-rule="evenodd">
        <g id="m2" transform="translate(-26.000000, -904.000000)">
            <g id="ic_blue_nav" transform="translate(26.000000, 904.000000)">
                <rect id="Rectangle-2" fill="#4A90E2" x="0" y="0" width="48" height="48"></rect>
                <g id="noun_174996_cc" transform="translate(11.000000, 11.000000)" fill-rule="nonzero" fill="#FFFFFF">
                    <g id="Group">
                        <path d="M13,0.270833333 C9.47916667,0.270833333 6.6625,3.0875 6.6625,6.60833333 C6.6625,9.64166667 11.4291667,16.0875 12.675,17.7666667 C12.8375,17.9833333 13.1083333,17.9833333 13.2708333,17.7666667 C14.5166667,16.1416667 19.2833333,9.64166667 19.2833333,6.60833333 C19.3375,3.0875 16.5208333,0.270833333 13,0.270833333 Z M13,10.6166667 C10.7791667,10.6166667 8.9375,8.82916667 8.9375,6.55416667 C8.9375,4.27916667 10.725,2.49166667 13,2.49166667 C15.275,2.49166667 17.0625,4.27916667 17.0625,6.55416667 C17.0625,8.82916667 15.2208333,10.6166667 13,10.6166667 Z" id="Shape"></path>
                        <path d="M25.7291667,25.1875 L22.75,11.7 C22.6416667,11.2125 22.2083333,10.8333333 21.7208333,10.8333333 L20.3125,10.8333333 C19.9333333,10.8333333 19.6083333,11.05 19.4458333,11.375 C18.0916667,13.975 16.1416667,16.7375 14.6791667,18.6333333 C14.3541667,19.0666667 13.8666667,19.3916667 13.325,19.5 C12.5666667,19.6083333 11.9166667,19.2833333 11.4833333,18.7416667 C10.075,16.9 8.07083333,14.0833333 6.6625,11.4291667 C6.5,11.1041667 6.175,10.8875 5.79583333,10.8875 L4.33333333,10.8875 C3.84583333,10.8875 3.4125,11.2125 3.30416667,11.7541667 L0.270833333,25.1875 C0.1625,25.6208333 0.704166667,25.8916667 1.02916667,25.6208333 L4.98333333,21.6666667 C5.95833333,20.6916667 7.58333333,20.6916667 8.55833333,21.6666667 L11.2125,24.3208333 C12.1875,25.2958333 13.8125,25.2958333 14.7875,24.3208333 L17.4416667,21.6666667 C18.4166667,20.6916667 20.0416667,20.6916667 21.0166667,21.6666667 L24.9708333,25.6208333 C25.2958333,25.8916667 25.8375,25.6208333 25.7291667,25.1875 Z" id="Shape"></path>
                    </g>
                </g>
            </g>
        </g>
    </g>
</svg>