<?xml version="1.0" encoding="UTF-8"?>
<svg width="56px" height="56px" viewBox="0 0 56 56" version="1.1" xmlns="http://www.w3.org/2000/svg" xmlns:xlink="http://www.w3.org/1999/xlink">
    <!-- Generator: Sketch 46.1 (44463) - http://www.bohemiancoding.com/sketch -->
    <title>ic_blue_call</title>
    <desc>Created with Sketch.</desc>
    <defs></defs>
    <g id="Mobile" stroke="none" stroke-width="1" fill="none" fill-rule="evenodd">
        <g id="second-fold-Updated-UI" transform="translate(-32.000000, -200.000000)">
            <g id="ic_blue_call" transform="translate(32.000000, 200.000000)">
                <rect id="Rectangle-2" fill="#879BA3" x="0" y="0" width="56" height="56" rx="28"></rect>
                <g id="Group" transform="translate(15.000000, 15.000000)" fill-rule="nonzero" fill="#FFFFFF">
                    <path d="M22.0930935,12.6745212 C21.8866718,12.4691046 21.757357,12.1839864 21.7525378,11.8668231 C21.6866756,7.07486491 17.8224934,3.23193133 13.1390499,3.29930797 C12.5189816,3.3083463 12.0081481,2.80055649 12.0001161,2.16623005 C11.991281,1.53108196 12.4876569,1.00932382 13.1077252,1.00110715 C15.9791556,0.960023834 18.6923561,2.06352176 20.7485412,4.10864934 C22.8047263,6.15377691 23.959724,8.89814257 23.9998839,11.8347781 C24.008719,12.4699262 23.5123431,12.9916844 22.8922748,12.999901 C22.5814374,13.0040094 22.298712,12.8799378 22.0930935,12.6745212 Z" id="Shape"></path>
                    <path d="M17.193078,12.6926507 C16.9975619,12.498701 16.875079,12.2294988 16.8705145,11.9300404 C16.8568207,10.9106406 16.4543771,9.95795956 15.73926,9.24887935 C15.023382,8.53902334 14.0785144,8.15655447 13.0788719,8.17051885 C12.4908021,8.17905264 12.0077176,7.69960891 12.00011,7.10069215 C11.9917416,6.50099958 12.4618931,6.00836727 13.0492021,6.00060928 C14.6178953,5.97811111 16.0998616,6.57935527 17.2235085,7.69262672 C18.3471554,8.80667396 18.9778279,10.3008627 18.99989,11.8997842 C19.0082584,12.4994768 18.5381069,12.9921091 17.9507979,12.9998671 C17.6556218,13.0045219 17.3878333,12.8866005 17.193078,12.6926507 Z" id="Shape"></path>
                    <path d="M20.4394927,25 C17.54875,24.7485242 15.2119656,23.6785353 13.0146787,22.274327 C7.85569094,18.9767494 3.77962291,14.6789472 1.16706892,9.06860369 C0.823566447,8.33121181 0.553441266,7.54676961 0.346210903,6.75827136 C-0.522221395,3.44528075 0.201875359,2.4109852 2.98698693,0.335904406 C3.19663632,0.179340453 3.47563128,0.0730716549 3.73608034,0.0373783183 C6.00835724,-0.280616862 6.89049738,1.49350421 7.89520179,2.9626095 C8.95957563,4.51851449 8.88297297,5.62744156 7.87665588,6.83290288 C6.27364435,8.75060851 6.1107629,9.2219228 7.78311999,11.1039351 C9.82316987,13.3996656 12.0583549,15.5469443 14.391914,17.5417151 C15.8941325,18.825864 16.446478,18.6173824 17.8841891,17.2902393 C19.1961105,16.0790995 20.1129234,15.966341 21.6885192,16.8383941 C22.0054124,17.0136159 22.3053723,17.220475 22.6045258,17.4257117 C26.3217709,19.9777853 25.3872184,22.0577334 22.0296027,24.5943939 C21.5715994,24.9399703 20.8305694,24.908333 20.4394927,25 Z" id="Shape"></path>
                </g>
            </g>
        </g>
    </g>
</svg>