<?xml version="1.0" encoding="UTF-8"?>
<svg width="56px" height="56px" viewBox="0 0 56 56" version="1.1" xmlns="http://www.w3.org/2000/svg" xmlns:xlink="http://www.w3.org/1999/xlink">
    <!-- Generator: Sketch 46.1 (44463) - http://www.bohemiancoding.com/sketch -->
    <title>ic_blue_chat</title>
    <desc>Created with Sketch.</desc>
    <defs></defs>
    <g id="Mobile" stroke="none" stroke-width="1" fill="none" fill-rule="evenodd">
        <g id="second-fold-Updated-UI" transform="translate(-32.000000, -552.000000)">
            <g id="ic_blue_chat" transform="translate(32.000000, 552.000000)">
                <rect id="Rectangle-2-Copy" fill="#879BA3" x="0" y="0" width="56" height="56" rx="28"></rect>
                <g id="noun_600236_cc" transform="translate(13.000000, 15.000000)" fill-rule="nonzero" fill="#FFFFFF">
                    <path d="M6.38392857,17.2714286 C6.59866071,17.3265625 6.6625,17.3973661 6.66017857,17.6109375 C6.65011905,18.7329613 6.65011905,19.8549851 6.66017857,20.9770089 C6.66424107,21.6635714 7.16102679,22.1684821 7.81625,22.1760268 C8.21379464,22.1806696 8.51732143,21.9984375 8.783125,21.7210268 C10.075,20.3711161 11.3732589,19.0264286 12.6604911,17.671875 C12.7867815,17.5271061 12.9737967,17.4501504 13.1654018,17.4641071 C13.7370536,17.476875 14.3092857,17.4675893 14.8815179,17.46875 C17.0288393,17.4722321 18.8859821,16.7386607 20.4274107,15.2535268 C23.3883929,12.3964286 23.9971875,7.58526786 21.8109821,4.0421875 C20.2028125,1.43638393 17.8674554,0.0441071429 14.7503571,0.0580357143 C12.5107589,0.0661607143 10.2705804,0.0580357143 8.03040179,0.0580357143 C7.17542899,0.0500393687 6.32624187,0.198947093 5.525,0.497366071 C2.74276786,1.55709821 1.0725,3.59821429 0.284955357,6.41875 C0.149665747,6.92113948 0.0543826519,7.43345591 0,7.95089286 L0,9.57589286 C0.116071429,10.1614732 0.170044643,10.7621429 0.344151786,11.3303125 C1.28375,14.3928571 3.21575893,16.4589286 6.38392857,17.2714286 Z M5.9353125,6.07459821 C9.62754464,6.07459821 13.3197768,6.07459821 17.0120089,6.07459821 C17.4826786,6.07459821 17.7328125,6.28584821 17.7351339,6.67410714 C17.7374554,7.06236607 17.4791964,7.28986607 17.0195536,7.29102679 C15.1686012,7.29489583 13.3176488,7.29489583 11.4666964,7.29102679 L6.14366071,7.29102679 C6.06589286,7.29102679 5.98870536,7.29102679 5.91151786,7.29102679 C5.48321429,7.27361607 5.21799107,7.0321875 5.22553571,6.6665625 C5.23308036,6.3009375 5.49366071,6.07459821 5.93299107,6.07459821 L5.9353125,6.07459821 Z M5.33928571,10.7470536 C5.4478125,10.5828125 5.62946429,10.4980804 5.88308036,10.4975 C6.98730655,10.4955655 8.09172619,10.4955655 9.19633929,10.4975 C10.2908929,10.4975 11.3854464,10.4975 12.48,10.4975 C12.532966,10.4974992 12.5858808,10.5007943 12.6384375,10.5073661 L17.0108482,10.5073661 C17.4815179,10.5073661 17.7316518,10.7186161 17.7339732,11.106875 C17.7362946,11.4951339 17.4762946,11.7232143 17.0172321,11.7232143 C15.1662798,11.7270833 13.3153274,11.7270833 11.464375,11.7232143 L6.14366071,11.7232143 C6.06589286,11.7232143 5.98870536,11.7232143 5.91151786,11.7232143 C5.53486607,11.708125 5.28473214,11.5195089 5.23482143,11.2258482 C5.23482143,11.2171429 5.23482143,11.2078571 5.23133929,11.1991518 C5.22785714,11.1904464 5.22785714,11.1707143 5.22669643,11.155625 C5.22553571,11.1405357 5.22669643,11.1428571 5.22669643,11.1358929 C5.22669643,11.1289286 5.22669643,11.1109375 5.22669643,11.09875 C5.22551917,10.9724742 5.26499312,10.849169 5.33928571,10.7470536 Z" id="Shape"></path>
                    <path d="M27.4967411,10.879375 C26.6710461,10.1368247 25.6522059,9.64289643 24.5578125,9.45459821 C24.5462054,9.53642857 24.5375,9.5834375 24.5334375,9.62870536 C24.4138839,11.0708929 24.0587054,12.4538839 23.3587946,13.7225446 C21.5225446,17.0503125 18.7391518,18.8674107 14.876875,18.9173214 C14.470625,18.9225446 14.064375,18.9132589 13.6552232,18.9173214 C13.3238393,18.9225446 13.1764286,19.1720982 13.3447321,19.4466071 C14.2843304,20.9816518 15.5982589,22.0286161 17.3938839,22.3425893 C18.159375,22.4766518 18.9562054,22.4366071 19.7391071,22.4586607 C19.9117455,22.4540758 20.0774574,22.5266147 20.1912054,22.6565625 C20.7135268,23.2148661 21.2474554,23.7633036 21.7773214,24.3146429 C22.1835714,24.740625 22.5898214,25.1724107 23.0070982,25.5914286 C23.4365625,26.0226339 24.0221429,26.0557143 24.4440625,25.6924107 C24.7150893,25.4602679 24.7963393,25.1491964 24.7957589,24.8067857 C24.7957589,24.1010714 24.8062054,23.3947768 24.7899554,22.6890625 C24.7841518,22.4360268 24.8584375,22.3472321 25.1091518,22.2537946 C25.7127232,22.0291964 26.34125,21.8080804 26.8664732,21.4494196 C30.3892411,19.0415179 30.6950893,13.7184821 27.4967411,10.879375 Z" id="Shape"></path>
                </g>
            </g>
        </g>
    </g>
</svg>