<?xml version="1.0" encoding="UTF-8" standalone="no"?>
<svg width="48px" height="48px" viewBox="0 0 48 48" version="1.1" xmlns="http://www.w3.org/2000/svg" xmlns:xlink="http://www.w3.org/1999/xlink">
    <!-- Generator: Sketch 45.2 (43514) - http://www.bohemiancoding.com/sketch -->
    <title>ic_blue_music</title>
    <desc>Created with Sketch.</desc>
    <defs></defs>
    <g id="Page-1" stroke="none" stroke-width="1" fill="none" fill-rule="evenodd">
        <g id="m2" transform="translate(-26.000000, -1264.000000)">
            <g id="ic_blue_music" transform="translate(26.000000, 1264.000000)">
                <rect id="Rectangle-2" fill="#4A90E2" x="0" y="0" width="48" height="48"></rect>
                <g id="noun_1007079_cc-(1)" transform="translate(13.000000, 11.000000)" fill-rule="nonzero" fill="#FFFFFF">
                    <path d="M20.6258,13.6422 L20.6258,5.967 L17.0924,6.981 C14.6432,7.683 12.1966,8.3954 9.7396,9.061 C9.269,9.191 9.1078,9.386 9.1104,9.8878 C9.13293333,13.7271333 9.13293333,17.5673333 9.1104,21.4084 C9.13556464,23.5810362 7.6134632,25.4650824 5.48405609,25.8970624 C3.35464897,26.3290423 1.2186808,25.1870866 0.3952,23.1764 C-0.305185354,21.5008312 0.0839064772,19.5677242 1.378,18.2936 C2.7482,16.9624 4.3706,16.6114 6.188,17.2406 C6.4168,17.3212 6.6378,17.4278 6.955,17.563 C6.955,17.2536 6.955,17.017 6.955,16.783 C6.955,12.8968667 6.955,9.0116 6.955,5.1272 C6.955,4.7762 6.955,4.5162 7.41,4.3862 C12.4202,2.9666 17.42,1.5184 22.4302,0.0806 C22.5342,0.052 22.6434,0.0312 22.7838,0 C22.7968,0.1612 22.8176,0.2912 22.8176,0.4186 C22.8176,6.1568 22.8358,11.895 22.8176,17.6306 C22.8176,20.1864 20.6752,22.152 18.0856,22.074 C16.289738,21.998602 14.7090893,20.8666077 14.0594753,19.1906581 C13.4098614,17.5147086 13.8146692,15.6131324 15.0905753,14.3470879 C16.3664814,13.0810433 18.2711412,12.691002 19.942,13.3536 C20.1422,13.4394 20.345,13.52 20.6258,13.6422 Z" id="Shape"></path>
                </g>
            </g>
        </g>
    </g>
</svg>