<?xml version="1.0" encoding="UTF-8" standalone="no"?>
<svg width="48px" height="49px" viewBox="0 0 48 49" version="1.1" xmlns="http://www.w3.org/2000/svg" xmlns:xlink="http://www.w3.org/1999/xlink">
    <!-- Generator: Sketch 45.2 (43514) - http://www.bohemiancoding.com/sketch -->
    <title>ic_close</title>
    <desc>Created with Sketch.</desc>
    <defs></defs>
    <g id="Page-1" stroke="none" stroke-width="1" fill="none" fill-rule="evenodd">
        <g id="4-Video" transform="translate(-1360.000000, -32.000000)" fill="#042333">
            <g id="ic_close" transform="translate(1360.000000, 32.000000)">
                <g id="Group" transform="translate(0.000000, 0.382692)">
                    <path d="M24.0000006,0.217296 C10.7345526,0.217296 5.99999998e-07,10.945914 5.99999998e-07,24.21732 C5.99999998e-07,37.48242 10.7349006,48.21732 24.0000006,48.21732 C37.2713814,48.21732 47.9999994,37.48278 47.9999994,24.21732 C47.9999994,10.945566 37.2717234,0.217296 24.0000006,0.217296 Z M14.8500006,14.017296 C14.8937178,14.0149019 14.9375334,14.0149019 14.9812506,14.017296 C15.3050372,14.0148311 15.6160814,14.1433059 15.8437506,14.373546 L24.0000006,22.511046 L32.1374994,14.373546 C32.3559848,14.152434 32.6517402,14.0247214 32.9624994,14.017296 C33.4600254,13.9975438 33.9180733,14.2870582 34.1137103,14.744932 C34.3093473,15.2028059 34.2019343,15.7339263 33.8437494,16.079796 L25.6875006,24.23604 L33.8437494,32.37354 C34.1486053,32.6783205 34.2676893,33.1225966 34.1561377,33.5389913 C34.0445861,33.955386 33.7193489,34.2806289 33.3029562,34.3921878 C32.8865634,34.5037468 32.4422853,34.3846705 32.1374994,34.07982 L24.0000006,25.92354 L15.8437506,34.07982 C15.3725585,34.5508956 14.6087132,34.550845 14.1375835,34.0797071 C13.6664539,33.6085691 13.6664167,32.8447238 14.1375006,32.37354 L22.2750006,24.23604 L14.1375006,16.079796 C13.7980563,15.7557105 13.6786671,15.2634983 13.831907,14.8199091 C13.9851469,14.3763199 14.3828954,14.0627553 14.8500006,14.017296 L14.8500006,14.017296 Z" id="Shape"></path>
                </g>
            </g>
        </g>
    </g>
</svg>