<?xml version="1.0" encoding="UTF-8" standalone="no"?>
<svg width="55px" height="48px" viewBox="0 0 55 48" version="1.1" xmlns="http://www.w3.org/2000/svg" xmlns:xlink="http://www.w3.org/1999/xlink">
    <!-- Generator: Sketch 45.2 (43514) - http://www.bohemiancoding.com/sketch -->
    <title>ic_chat</title>
    <desc>Created with Sketch.</desc>
    <defs></defs>
    <g id="Page-1" stroke="none" stroke-width="1" fill="none" fill-rule="evenodd">
        <g id="2" transform="translate(-576.000000, -266.000000)" fill-rule="nonzero" fill="#879BA3">
            <g id="ic_chat" transform="translate(576.000000, 266.000000)">
                <path d="M11.7857143,31.8857143 C12.1821429,31.9875 12.3,32.1182143 12.2957143,32.5125 C12.2771429,34.5839286 12.2771429,36.6553571 12.2957143,38.7267857 C12.3032143,39.9942857 13.2203571,40.9264286 14.43,40.9403571 C15.1639286,40.9489286 15.7242857,40.6125 16.215,40.1003571 C18.6,37.6082143 20.9967857,35.1257143 23.3732143,32.625 C23.6063658,32.3577343 23.9516246,32.2156623 24.3053571,32.2414286 C25.3607143,32.265 26.4171429,32.2478571 27.4735714,32.25 C31.4378571,32.2564286 34.8664286,30.9021429 37.7121429,28.1603571 C43.1785714,22.8857143 44.3025,14.0035714 40.2664286,7.4625 C37.2975,2.65178571 32.9860714,0.0814285714 27.2314286,0.107142857 C23.0967857,0.122142857 18.9610714,0.107142857 14.8253571,0.107142857 C13.2469458,0.092380373 11.6792158,0.367286941 10.2,0.918214286 C5.06357143,2.87464286 1.98,6.64285714 0.526071429,11.85 C0.276305994,12.7774883 0.100398742,13.7233032 0,14.6785714 L0,17.6785714 C0.214285714,18.7596429 0.313928571,19.8685714 0.635357143,20.9175 C2.37,26.5714286 5.93678571,30.3857143 11.7857143,31.8857143 Z M10.9575,11.2146429 C17.7739286,11.2146429 24.5903571,11.2146429 31.4067857,11.2146429 C32.2757143,11.2146429 32.7375,11.6046429 32.7417857,12.3214286 C32.7460714,13.0382143 32.2692857,13.4582143 31.4207143,13.4603571 C28.0035714,13.4675 24.5864286,13.4675 21.1692857,13.4603571 L11.3421429,13.4603571 C11.1985714,13.4603571 11.0560714,13.4603571 10.9135714,13.4603571 C10.1228571,13.4282143 9.63321429,12.9825 9.64714286,12.3075 C9.66107143,11.6325 10.1421429,11.2146429 10.9532143,11.2146429 L10.9575,11.2146429 Z M9.85714286,19.8407143 C10.0575,19.5375 10.3928571,19.3810714 10.8610714,19.38 C12.8996429,19.3764286 14.9385714,19.3764286 16.9778571,19.38 C18.9985714,19.38 21.0192857,19.38 23.04,19.38 C23.1377834,19.3799985 23.2354722,19.3860817 23.3325,19.3982143 L31.4046429,19.3982143 C32.2735714,19.3982143 32.7353571,19.7882143 32.7396429,20.505 C32.7439286,21.2217857 32.2639286,21.6428571 31.4164286,21.6428571 C27.9992857,21.65 24.5821429,21.65 21.165,21.6428571 L11.3421429,21.6428571 C11.1985714,21.6428571 11.0560714,21.6428571 10.9135714,21.6428571 C10.2182143,21.615 9.75642857,21.2667857 9.66428571,20.7246429 C9.66428571,20.7085714 9.66428571,20.6914286 9.65785714,20.6753571 C9.65142857,20.6592857 9.65142857,20.6228571 9.64928571,20.595 C9.64714286,20.5671429 9.64928571,20.5714286 9.64928571,20.5585714 C9.64928571,20.5457143 9.64928571,20.5125 9.64928571,20.49 C9.64711231,20.2568755 9.7199873,20.0292351 9.85714286,19.8407143 Z" id="Shape"></path>
                <path d="M50.7632143,20.085 C49.2388544,18.7141379 47.3579186,17.8022703 45.3375,17.4546429 C45.3160714,17.6057143 45.3,17.6925 45.2925,17.7760714 C45.0717857,20.4385714 44.4160714,22.9917857 43.1239286,25.3339286 C39.7339286,31.4775 34.5953571,34.8321429 27.465,34.9242857 C26.715,34.9339286 25.965,34.9167857 25.2096429,34.9242857 C24.5978571,34.9339286 24.3257143,35.3946429 24.6364286,35.9014286 C26.3710714,38.7353571 28.7967857,40.6682143 32.1117857,41.2478571 C33.525,41.4953571 34.9960714,41.4214286 36.4414286,41.4621429 C36.7601455,41.4536785 37.0660753,41.5875964 37.2760714,41.8275 C38.2403571,42.8582143 39.2260714,43.8707143 40.2042857,44.8885714 C40.9542857,45.675 41.7042857,46.4721429 42.4746429,47.2457143 C43.2675,48.0417857 44.3485714,48.1028571 45.1275,47.4321429 C45.6278571,47.0035714 45.7778571,46.4292857 45.7767857,45.7971429 C45.7767857,44.4942857 45.7960714,43.1903571 45.7660714,41.8875 C45.7553571,41.4203571 45.8925,41.2564286 46.3553571,41.0839286 C47.4696429,40.6692857 48.63,40.2610714 49.5996429,39.5989286 C56.1032143,35.1535714 56.6678571,25.3264286 50.7632143,20.085 Z" id="Shape"></path>
            </g>
        </g>
    </g>
</svg>