<?xml version="1.0" encoding="UTF-8" standalone="no"?>
<svg width="91px" height="64px" viewBox="0 0 91 64" version="1.1" xmlns="http://www.w3.org/2000/svg" xmlns:xlink="http://www.w3.org/1999/xlink">
    <!-- Generator: Sketch 45.2 (43514) - http://www.bohemiancoding.com/sketch -->
    <title>ic_community</title>
    <desc>Created with Sketch.</desc>
    <defs></defs>
    <g id="Page-1" stroke="none" stroke-width="1" fill="none" fill-rule="evenodd">
        <g id="3" transform="translate(-300.000000, -287.000000)" fill-rule="nonzero" fill="#879BA3">
            <g id="ic_community" transform="translate(299.750000, 287.000000)">
                <path d="M90.7337143,55.7165714 L90.7337143,63.744 L0.694857143,63.744 L0.694857143,55.2411429 C0.686629136,53.4540913 1.47814242,51.7570331 2.85257143,50.6148571 C8.323945,46.2242137 14.2522145,42.4355162 20.5348571,39.3142857 C20.724655,39.2230269 20.8454544,39.031169 20.8457143,38.8205714 L20.8457143,32.9142857 C19.9915831,31.4687344 19.4090461,29.879152 19.1268571,28.224 C18.4685714,28.1691429 17.6091429,27.2457143 16.6765714,23.9634286 C15.4057143,19.4651429 16.7588571,18.8068571 17.9017143,18.9074286 C17.6884256,18.3121142 17.5233228,17.7006222 17.408,17.0788571 L17.408,17.0788571 C16.9578864,15.1296477 16.9578864,13.1034951 17.408,11.1542857 C17.980422,8.85425743 19.1762938,6.75673631 20.864,5.09257143 C21.8161637,4.08165929 22.8911976,3.1939884 24.064,2.45028571 C25.0202626,1.77652038 26.0667551,1.24096243 27.1725714,0.859428571 L27.1725714,0.859428571 C28.084405,0.548308579 29.035398,0.366727385 29.9977143,0.32 C32.4508921,0.0622017048 34.9225419,0.590468828 37.056,1.82857143 C38.4783943,2.56410515 39.6732632,3.67362633 40.512,5.03771429 C40.512,5.03771429 46.2445714,5.44914286 44.3062857,17.088 C44.1908478,17.7097389 44.0257474,18.3212218 43.8125714,18.9165714 C44.9554286,18.8068571 46.3085714,19.4742857 45.0377143,23.9725714 C44.1234286,27.2548571 43.2091429,28.1782857 42.5874286,28.2331429 C42.3050153,29.8710035 41.7222725,31.4425492 40.8685714,32.8685714 L40.8685714,38.784 C40.8473857,38.9993929 40.954825,39.207109 41.1428571,39.3142857 C45.5918311,41.5228414 49.8703085,44.0593673 53.9428571,46.9028571 C55.0894856,46.5186392 56.2076728,46.0542555 57.2891429,45.5131429 L57.4902857,45.3942857 C58.0607866,45.0250152 58.4050437,44.391582 58.4045714,43.712 L58.4045714,40.3108571 C49.3714286,40.384 46.72,36.5165714 46.72,36.5165714 C46.72,36.5165714 51.8765714,36.4342857 51.5565714,22.8022857 C51.2365714,9.17028571 57.5085714,6.93942857 59.8491429,6.05257143 C66.6605714,3.46514286 70.08,7.57942857 70.08,7.57942857 C77.9794286,6.848 80.1371429,15.4788571 79.2228571,25.2982857 C78.3085714,35.1177143 83.648,36.6537143 83.648,36.6537143 C79.9177143,40.4662857 72.1005714,40.2285714 72.1005714,40.2285714 L72.1005714,41.1428571 L72.1005714,41.1428571 L72.1005714,43.7485714 C72.1000991,44.4281534 72.4443563,45.0615866 73.0148571,45.4308571 L73.2525714,45.5771429 C75.9954286,47.0125714 81.6274286,48.5028571 81.7371429,48.5577143 C83.5806994,49.0580723 85.3718154,49.7347161 87.0857143,50.5782857 C89.119099,51.5322658 90.5035852,53.482344 90.7337143,55.7165714 L90.7337143,55.7165714 Z" id="Shape"></path>
            </g>
        </g>
    </g>
</svg>