<?xml version="1.0" encoding="UTF-8" standalone="no"?>
<svg width="64px" height="68px" viewBox="0 0 64 68" version="1.1" xmlns="http://www.w3.org/2000/svg" xmlns:xlink="http://www.w3.org/1999/xlink">
    <!-- Generator: Sketch 45.2 (43514) - http://www.bohemiancoding.com/sketch -->
    <title>ic_chatbot</title>
    <desc>Created with Sketch.</desc>
    <defs></defs>
    <g id="Page-1" stroke="none" stroke-width="1" fill="none" fill-rule="evenodd">
        <g id="5-how-it-works" transform="translate(-1002.000000, -1820.000000)" fill-rule="nonzero" stroke="#4A90E2" fill="#4A90E2">
            <g id="ic_chatbot" transform="translate(1003.000000, 1821.000000)">
                <g id="Group">
                    <path d="M16.0231915,57.8832979 L10.7692553,57.8832979 C6.305,57.8832979 2.67329787,61.515 2.67329787,65.9792553 L4.74776596,65.9792553 C4.74776596,65.9792553 4.74776596,65.9792553 4.74776596,65.9792553 C4.74776596,62.6587234 7.4487234,59.957766 10.7692553,59.957766 L16.0231915,59.957766 C19.3430319,59.957766 22.0439894,62.6587234 22.0446809,65.9792553 C22.0446809,65.9792553 22.0446809,65.9792553 22.0446809,65.9792553 L24.1191489,65.9792553 C24.1184574,61.515 20.4867553,57.8832979 16.0231915,57.8832979 Z" id="Shape"></path>
                    <path d="M20.2329787,43.2782447 L6.13281915,43.2782447 C4.41723404,43.2782447 3.02111702,44.6743617 3.02111702,46.3899468 L3.02111702,52.8726596 C3.02111702,54.5882447 4.41723404,55.9843617 6.13281915,55.9843617 L20.2329787,55.9843617 C21.9485638,55.9843617 23.3446809,54.5882447 23.3446809,52.8726596 L23.3446809,46.3899468 C23.3446809,44.6736702 21.9485638,43.2782447 20.2329787,43.2782447 Z M21.2702128,52.8726596 C21.2702128,53.4445213 20.8048404,53.9098936 20.2329787,53.9098936 L6.13281915,53.9098936 C5.56095745,53.9098936 5.09558511,53.4445213 5.09558511,52.8726596 L5.09558511,46.3899468 C5.09558511,45.8180851 5.56095745,45.3527128 6.13281915,45.3527128 L20.2329787,45.3527128 C20.8048404,45.3527128 21.2702128,45.8180851 21.2702128,46.3899468 L21.2702128,52.8726596 Z" id="Shape"></path>
                    <rect id="Rectangle-path" x="8.49771277" y="47.1830851" width="2.07446809" height="4.89643617"></rect>
                    <rect id="Rectangle-path" x="16.1123936" y="47.1830851" width="2.07446809" height="4.89643617"></rect>
                    <rect id="Rectangle-path" x="0.00276595745" y="47.2812766" width="2.07446809" height="4.70005319"></rect>
                    <rect id="Rectangle-path" x="24.7145213" y="47.2812766" width="2.07446809" height="4.70005319"></rect>
                    <path d="M33.7467553,7.85393617 C34.4562234,7.64648936 35.1822872,7.47845745 35.9221809,7.3512234 C33.1022872,2.94781915 28.1705851,0.0207446809 22.5646809,0.0207446809 C13.8214894,0.0207446809 6.70882979,7.13340426 6.70882979,15.8765957 C6.70882979,16.2665957 6.75792553,30.6986702 6.75792553,30.6986702 L6.76553191,32.8796277 L12.5325532,28.1539894 C14.7722872,29.9871277 17.455266,31.1488298 20.3000532,31.5575 C20.1154255,30.8487234 19.9722872,30.1240426 19.8678723,29.3869149 C17.4137766,28.8987234 15.1263298,27.7529255 13.2523936,26.033883 L12.5899468,25.4260638 L8.82547872,28.5107979 C8.81164894,24.4628191 8.78329787,16.1711702 8.78329787,15.8765957 C8.78329787,8.27781915 14.9652128,2.09521277 22.5646809,2.09521277 C27.1693085,2.09521277 31.2428723,4.37367021 33.7467553,7.85393617 Z" id="Shape"></path>
                    <path d="M53.7121277,13.4930319 C50.6529787,11.4351596 46.9728723,10.2326596 43.0161702,10.2326596 C42.9698404,10.2326596 42.9242021,10.236117 42.8785638,10.236117 C32.3471809,10.3107979 23.8017553,18.8984043 23.8017553,29.4470745 C23.8017553,31.3051064 24.0721277,33.1009043 24.5665426,34.8012766 C25.6604787,38.5643617 27.8718617,41.8558511 30.8224468,44.2850532 C34.1422872,47.0178191 38.3907979,48.6614894 43.0161702,48.6614894 C47.3393617,48.6614894 51.4862234,47.2038298 54.86,44.554734 C55.0121277,44.4351064 55.1718617,44.327234 55.3212234,44.202766 L58.7219681,46.9894681 L62.1628191,49.8086702 L62.1704255,47.6277128 C62.1704255,47.6277128 62.2312766,29.9255851 62.2312766,29.4470745 C62.2312766,22.8080851 58.8464362,16.9456383 53.7121277,13.4930319 Z M60.1035638,45.4398404 L55.2617553,41.4720745 L54.598617,42.0798936 C51.4295213,44.9862234 47.3165426,46.5877128 43.0168617,46.5877128 C33.5662766,46.5877128 25.8769149,38.8990426 25.8769149,29.447766 C25.8769149,19.9964894 33.5662766,12.3078191 43.0168617,12.3078191 C52.4681383,12.3078191 60.1575,19.9964894 60.1575,29.447766 C60.1568085,29.8211702 60.1194681,40.6934574 60.1035638,45.4398404 Z" id="Shape"></path>
                    <circle id="Oval" cx="51.8257447" cy="29.5812234" r="2.26324468"></circle>
                    <circle id="Oval" cx="43.0168617" cy="29.5812234" r="2.26324468"></circle>
                    <circle id="Oval" cx="34.2072872" cy="29.5812234" r="2.26324468"></circle>
                </g>
            </g>
        </g>
    </g>
</svg>