<?xml version="1.0" encoding="UTF-8" standalone="no"?>
<svg width="48px" height="47px" viewBox="0 0 48 47" version="1.1" xmlns="http://www.w3.org/2000/svg" xmlns:xlink="http://www.w3.org/1999/xlink">
    <!-- Generator: Sketch 45.2 (43514) - http://www.bohemiancoding.com/sketch -->
    <title>ic_call</title>
    <desc>Created with Sketch.</desc>
    <defs></defs>
    <g id="Page-1" stroke="none" stroke-width="1" fill="none" fill-rule="evenodd">
        <g id="2" transform="translate(-340.000000, -266.000000)" fill-rule="nonzero" fill="#4A90E2">
            <g id="ic_call" transform="translate(340.000000, 266.000000)">
                <path d="M41.4765,23.619 C41.091,23.244 40.8495,22.7235 40.8405,22.1445 C40.7175,13.3965 33.501,6.381 24.7545,6.504 C23.5965,6.5205 22.6425,5.5935 22.6275,4.4355 C22.611,3.276 23.538,2.3235 24.696,2.3085 C30.0585,2.2335 35.1255,4.248 38.9655,7.9815 C42.8055,11.715 44.9625,16.725 45.0375,22.086 C45.054,23.2455 44.127,24.198 42.969,24.213 C42.3885,24.2205 41.8605,23.994 41.4765,23.619 Z" id="Shape"></path>
                <path d="M32.7555,23.9745 C32.37,23.5995 32.1285,23.079 32.1195,22.5 C32.0925,20.529 31.299,18.687 29.889,17.316 C28.4775,15.9435 26.6145,15.204 24.6435,15.231 C23.484,15.2475 22.5315,14.3205 22.5165,13.1625 C22.5,12.003 23.427,11.0505 24.585,11.0355 C27.678,10.992 30.6,12.1545 32.8155,14.307 C35.031,16.461 36.2745,19.35 36.318,22.4415 C36.3345,23.601 35.4075,24.5535 34.2495,24.5685 C33.6675,24.5775 33.1395,24.3495 32.7555,23.9745 Z" id="Shape"></path>
                <path d="M38.799,46.68 C33.4215,46.215 29.0745,44.2365 24.987,41.64 C15.39,35.5425 7.8075,27.5955 2.9475,17.2215 C2.3085,15.858 1.806,14.4075 1.4205,12.9495 C-0.195,6.8235 1.152,4.911 6.333,1.074 C6.723,0.7845 7.242,0.588 7.7265,0.522 C11.9535,-0.066 13.5945,3.2145 15.4635,5.931 C17.4435,8.808 17.301,10.8585 15.429,13.0875 C12.447,16.6335 12.144,17.505 15.255,20.985 C19.05,25.23 23.208,29.2005 27.549,32.889 C30.3435,35.2635 31.371,34.878 34.0455,32.424 C36.486,30.1845 38.1915,29.976 41.1225,31.5885 C41.712,31.9125 42.27,32.295 42.8265,32.6745 C49.7415,37.3935 48.003,41.2395 41.757,45.93 C40.905,46.569 39.5265,46.5105 38.799,46.68 Z" id="Shape"></path>
            </g>
        </g>
    </g>
</svg>