<?xml version="1.0" encoding="UTF-8" standalone="no"?>
<svg width="39px" height="64px" viewBox="0 0 39 64" version="1.1" xmlns="http://www.w3.org/2000/svg" xmlns:xlink="http://www.w3.org/1999/xlink">
    <!-- Generator: Sketch 45.2 (43514) - http://www.bohemiancoding.com/sketch -->
    <title>ic_distractions</title>
    <desc>Created with Sketch.</desc>
    <defs></defs>
    <g id="Page-1" stroke="none" stroke-width="1" fill="none" fill-rule="evenodd">
        <g id="3" transform="translate(-1069.000000, -287.000000)" fill-rule="nonzero" fill="#FF504D">
            <g id="ic_distractions" transform="translate(1069.750000, 287.000000)">
                <g id="Group">
                    <path d="M23.6621593,30.3629027 C23.3067611,29.8633628 22.8726372,29.4252743 22.3779115,29.063646 L14.1083186,36.3769204 C14.4019823,36.9013805 14.7786195,37.3717522 15.2169912,37.7772743 C16.5122832,37.6169912 17.8967788,37.5229735 19.3801062,37.5229735 C20.6419823,37.5229735 21.8333451,37.5903717 22.9595752,37.7087434 C24.0067965,36.7045664 24.6703009,35.3061947 24.7082478,33.7549027 C23.7675044,33.1171681 23.2623009,31.9459115 23.5324602,30.7735221 C23.5653097,30.6313628 23.6097699,30.4948673 23.6621593,30.3629027 Z" id="Shape"></path>
                    <path d="M14.1490973,32.560708 L19.3282832,27.980177 C19.2356814,27.9753628 19.1444956,27.9657345 19.0504779,27.9654513 C17.0472212,27.9694159 15.2858053,29.0237168 14.2785133,30.6027611 C14.2955044,30.659115 14.3122124,30.715469 14.3258053,30.7738053 C14.4693805,31.3962478 14.3915044,32.0178407 14.1490973,32.560708 Z" id="Shape"></path>
                    <path d="M24.9670796,26.7738053 C25.5827257,27.3056283 26.127292,27.9173097 26.5815221,28.5952566 C26.5837876,28.5955398 26.5860531,28.5952566 26.5880354,28.5955398 L26.5880354,27.7097345 C26.931823,28.0416283 27.2852389,28.4171327 27.6389381,28.8155752 L30.2572743,29.4196106 L30.2428319,29.9975929 L26.8015575,29.2032566 C25.5818761,28.9217699 24.3655929,29.6821239 24.0835398,30.9012389 C23.8026195,32.120354 24.5629735,33.3366372 25.7820885,33.6186903 L30.1284248,34.6214513 L33.0984779,35.3064779 C33.0993274,35.3067611 33.1004602,35.3070442 33.1013097,35.3073274 L33.1449204,35.3172389 C33.1851327,35.3265841 33.2247788,35.3308319 33.2649912,35.3379115 C33.3069027,35.3449912 33.3488142,35.3546195 33.3910088,35.3594336 C33.4637876,35.3679292 33.536,35.3713274 33.6079292,35.3730265 C33.624354,35.3733097 33.6402124,35.3761416 33.6566372,35.3761416 C33.6603186,35.3761416 33.6637168,35.375292 33.6673982,35.375292 C33.7549027,35.3750088 33.840708,35.3682124 33.9265133,35.3574513 C33.9494513,35.3546195 33.9721062,35.3520708 33.9950442,35.3486726 C34.0808496,35.335646 34.1649558,35.3183717 34.247646,35.2954336 C34.2700177,35.2894867 34.291823,35.2821239 34.3139115,35.2753274 C34.3929204,35.2512566 34.4707965,35.2235044 34.5461239,35.1912212 C34.5597168,35.1852743 34.5735929,35.1798938 34.5871858,35.1736637 C34.6701593,35.136 34.7500177,35.0923894 34.828177,35.0450973 C34.8386549,35.0388673 34.8502655,35.0343363 34.8607434,35.0275398 C34.8686726,35.0224425 34.8757522,35.0164956 34.8833982,35.0113982 C34.927292,34.9830796 34.9694867,34.9527788 35.011115,34.9219115 C35.0269735,34.9100177 35.0433982,34.8989735 35.0589735,34.8870796 C35.1105133,34.8460177 35.1600708,34.8029735 35.2082124,34.7576637 C35.2271858,34.739823 35.2450265,34.7205664 35.2634336,34.7018761 C35.2943009,34.6707257 35.324885,34.6390088 35.3540531,34.6058761 C35.3718938,34.5860531 35.3886018,34.5650973 35.4055929,34.5444248 C35.4341947,34.5101593 35.4610973,34.4750442 35.4874336,34.4387965 C35.5018761,34.4192566 35.5160354,34.3994336 35.5290619,34.3793274 C35.5568142,34.3388319 35.5825841,34.2969204 35.6075044,34.2547257 C35.6171327,34.2377345 35.6273274,34.2215929 35.6369558,34.2043186 C35.6649912,34.1536283 35.6904779,34.1018053 35.7145487,34.0485664 C35.7193628,34.0386549 35.724177,34.0293097 35.728708,34.019115 C35.7842124,33.8922478 35.8295221,33.7591504 35.8620885,33.6192566 C35.8946549,33.4779469 35.9119292,33.3369204 35.9173097,33.1973097 C35.9173097,33.191646 35.9181593,33.1862655 35.9184425,33.1806018 C35.9204248,33.1216991 35.9184425,33.0633628 35.9156106,33.0050265 C35.9150442,32.9894513 35.9156106,32.9741593 35.9144779,32.9585841 C35.9107965,32.9053451 35.904,32.8529558 35.8966372,32.8005664 C35.8935221,32.7796106 35.8921062,32.7583717 35.888708,32.7368496 C35.8807788,32.6881416 35.8691681,32.6405664 35.8581239,32.592708 C35.852177,32.5680708 35.8479292,32.5434336 35.8414159,32.5190796 C35.8281062,32.4709381 35.8119646,32.4239292 35.795823,32.3769204 C35.7878938,32.3539823 35.7816637,32.3304779 35.772885,32.307823 C35.7502301,32.2475044 35.7238938,32.1886018 35.6961416,32.1305487 C35.6918938,32.1217699 35.6887788,32.112708 35.6842478,32.1039292 C35.6502655,32.035115 35.6126018,31.9682832 35.571823,31.9031504 L35.571823,31.9028673 C35.5437876,31.8612389 34.1001062,29.5612035 32.1945487,27.1886726 C31.2368142,25.9998584 30.1720354,24.7932035 29.0327788,23.8014867 C28.912708,23.6978407 28.7912212,23.5975929 28.668885,23.4987611 L24.9670796,26.7738053 Z" id="Shape"></path>
                    <path d="M27.7641062,22.4099115 C28.0438938,22.7262301 28.4335575,22.8879292 28.8252035,22.8879292 C29.1585133,22.8879292 29.4926726,22.7706903 29.7622655,22.5328142 C29.7625487,22.532531 29.7625487,22.532531 29.7625487,22.532531 L35.0147965,17.8874336 C35.600708,17.3694867 35.6559292,16.4749027 35.1379823,15.8889912 C34.6197522,15.3030796 33.7254513,15.2478584 33.1392566,15.7658053 L27.8884248,20.4097699 L27.8867257,20.4111858 C27.3010973,20.9285664 27.2458761,21.8237168 27.7641062,22.4099115 Z" id="Shape"></path>
                    <path d="M27.7170973,38.588885 L27.4245664,39.6624425 L27.2492743,40.3055575 L27.2492743,40.3055575 L26.9723186,41.3210619 C26.2312212,41.1191504 25.4351858,40.9413097 24.5893097,40.7934867 C23.0564248,41.9811681 21.135292,42.6905487 19.0504779,42.6908319 C17.0237168,42.6905487 15.1501593,42.0213805 13.6390796,40.8926018 C12.9905841,41.019469 12.3712566,41.1627611 11.7878938,41.3219115 L11.2702301,39.4211681 L11.2702301,39.4217345 L11.1529912,38.991292 L11.1385487,38.9380531 C11.2489912,38.7746549 11.3209204,38.5939823 11.3557522,38.4059469 C11.0558584,37.9248142 10.8004248,37.4130973 10.5939823,36.8775929 C10.0941593,36.632354 9.47511504,36.6949381 9.03221239,37.0871504 L9.02768142,37.091115 L3.14902655,42.2889912 C1.93330973,43.1807434 1.31709735,43.8569912 1.26357522,43.9173097 L1.28566372,43.9368496 L0.478017699,44.6513274 C-0.107610619,45.1689912 -0.162831858,46.0638584 0.355681416,46.6497699 C0.635185841,46.9663717 1.02484956,47.1280708 1.41649558,47.1280708 C1.74980531,47.1280708 2.08453097,47.0108319 2.35412389,46.7726726 L4.91950442,44.5037876 C5.47681416,44.1008142 6.18676106,43.6414867 7.05642478,43.1779115 C6.59766372,43.8377345 6.18619469,44.571469 5.84014159,45.3774159 C4.6419823,48.1277168 4.00311504,51.6842478 3.99688496,56.5258761 C3.99745133,57.7673628 4.04049558,59.0943717 4.13224779,60.5162478 C4.25288496,62.3898053 5.81069027,63.8286726 7.66272566,63.8286726 C7.73890265,63.8286726 7.81536283,63.8264071 7.89267257,63.8215929 C9.84325664,63.6961416 11.3231858,62.0117522 11.1977345,60.0614513 C11.1147611,58.7777699 11.0770973,57.6014159 11.0770973,56.5261593 C11.0623717,50.9060531 12.156885,48.1413097 12.9526372,47.0986195 C13.3550442,46.5597168 13.6529558,46.3742301 13.92,46.2456637 C14.1864779,46.124177 14.4690973,46.0746195 14.7780531,46.0737699 C15.0654867,46.072354 15.3591504,46.1247434 15.547469,46.1748673 C15.6414867,46.1995044 15.7086018,46.2227257 15.7357876,46.2320708 C15.7423009,46.2343363 15.7462655,46.2363186 15.7479646,46.236885 L15.7482478,46.236885 C16.7167434,46.639292 17.7648142,46.5761416 18.6449558,46.1510796 C19.5313274,46.5801062 20.5893097,46.640708 21.5646018,46.2283894 C21.664,46.1915752 22.0958584,46.0683894 22.5132743,46.0734867 C22.8222301,46.0746195 23.1048496,46.1247434 23.3704779,46.2456637 C23.7502301,46.4419115 24.2936637,46.7483186 24.9679292,48.2228673 C25.6178407,49.6852389 26.2190442,52.3242478 26.2130973,56.5258761 C26.2136637,57.6016991 26.1754336,58.7791858 26.0941593,60.0648496 C25.9701239,62.016 27.451469,63.6975575 29.4031858,63.8218761 C29.479646,63.8266903 29.5552566,63.8289558 29.6308673,63.8289558 C31.4829027,63.8289558 33.0409912,62.387823 33.1599292,60.5128496 C33.2494159,59.0929558 33.2933097,57.7673628 33.2933097,56.5258761 C33.2785841,50.0893451 32.1687788,45.8579823 30.0530973,42.9187965 C29.8486372,42.6373097 29.6311504,42.375646 29.4077168,42.1244602 C31.1275044,42.7970265 32.4618761,43.5585133 33.4303717,44.2152212 C34.1224779,44.6844602 34.6279646,45.0998938 34.9522124,45.3893097 C35.1147611,45.5343009 35.2311504,45.6470088 35.3039292,45.7206372 C35.340177,45.7566018 35.3650973,45.7829381 35.3792566,45.7973805 C35.3857699,45.8044602 35.3903009,45.8095575 35.392,45.8106903 L35.6950088,45.5323186 L37.4972035,43.9170265 L37.4966372,43.9170265 C37.3723186,43.7793982 34.2711504,40.3749381 27.7170973,38.588885 Z" id="Shape"></path>
                    <path d="M19.0510442,27.3990796 C21.0472212,27.4027611 22.8210973,28.3426549 23.9606372,29.8021947 C24.4046726,29.155115 25.1030088,28.7156106 25.9018761,28.6068673 C24.3559646,26.5010973 21.8639292,25.1335929 19.0510442,25.1333097 C16.220885,25.1335929 13.7163894,26.5180885 12.1727434,28.6448142 C12.9492389,28.8127434 13.6118938,29.2975575 14.008354,29.9774867 C15.140531,28.4182655 16.975292,27.4027611 19.0510442,27.3990796 Z" id="Shape"></path>
                    <path d="M19.0510442,42.1247434 C23.4172035,42.1236106 27.0108319,38.8310088 27.4905487,34.5939823 L25.6540885,34.1700531 C25.5190088,34.1389027 25.3904425,34.095292 25.2649912,34.0463009 C25.0446726,37.2913274 22.3510088,39.8533097 19.0513274,39.8589735 C15.7156814,39.8533097 12.9979469,37.2363894 12.8291681,33.9420885 C12.6337699,34.0397876 12.4256283,34.1185133 12.2038938,34.1700531 L10.6050265,34.5390442 C11.0592566,38.8026903 14.6656283,42.1236106 19.0510442,42.1247434 Z" id="Shape"></path>
                    <path d="M12.076177,33.6186903 C13.2947257,33.3366372 14.0550796,32.120354 13.7741593,30.9012389 C13.4926726,29.6821239 12.2763894,28.9217699 11.056708,29.2032566 L7.61486726,29.9975929 L7.60042478,29.4196106 L10.2159292,28.8164248 C10.5718938,28.416 10.9281416,28.0404956 11.2702301,27.7086018 L11.2702301,28.5955398 C11.356885,28.5864779 11.4432566,28.5816637 11.5299115,28.580531 C13.1590796,26.1615575 15.9224071,24.5672212 19.0507611,24.5672212 C20.2492035,24.5672212 21.3929912,24.803115 22.4410619,25.2276106 L26.0630088,22.0239292 C25.6917522,21.915469 25.2901947,21.8452389 24.8455929,21.8412743 C24.7861239,21.8412743 24.7277876,21.8458053 24.6694513,21.8500531 C24.5808142,21.839292 24.4913274,21.8319292 24.3998584,21.8319292 L23.04,21.8319292 C21.8888496,22.6814867 20.4672566,23.184708 18.9295575,23.184708 C17.3918584,23.184708 15.9702655,22.6814867 14.8185487,21.8319292 L13.4586903,21.8319292 C13.3663717,21.8319292 13.2757522,21.839292 13.1862655,21.8506195 C13.1287788,21.8460885 13.0715752,21.8418407 13.0129558,21.8418407 L13.0129558,21.8412743 C12.0719292,21.8494867 11.3175221,22.1476814 10.6548673,22.500531 C9.50145133,23.1326018 8.52729204,24.0172743 7.57635398,24.9959646 C4.82010619,27.8725664 2.41274336,31.7134159 2.29210619,31.8952212 C2.24906195,31.9629027 2.20913274,32.0328496 2.17316814,32.1050619 C2.16976991,32.1115752 2.16750442,32.1186549 2.16438938,32.1251681 C2.13550442,32.1846372 2.10888496,32.2452389 2.08538053,32.3072566 C2.07433628,32.3361416 2.06640708,32.3655929 2.05649558,32.3947611 C2.04290265,32.4355398 2.02846018,32.4757522 2.01713274,32.5173805 C2.0080708,32.5510796 2.00155752,32.5853451 1.99419469,32.6193274 C1.98569912,32.6572743 1.97635398,32.6949381 1.96984071,32.7331681 C1.96389381,32.7674336 1.96106195,32.8016991 1.95681416,32.8359646 C1.952,32.8753274 1.94633628,32.9138407 1.94350442,32.9534867 C1.94123894,32.9880354 1.94180531,33.0225841 1.94095575,33.0568496 C1.94010619,33.0962124 1.93784071,33.135292 1.93897345,33.1749381 C1.94010619,33.2162832 1.94463717,33.2567788 1.94831858,33.2978407 C1.95115044,33.3306903 1.952,33.3632566 1.9559646,33.3963894 C1.96530973,33.4700177 1.97833628,33.5433628 1.99504425,33.6155752 C1.99532743,33.6169912 1.99561062,33.6186903 1.99589381,33.6201062 C2.01175221,33.6880708 2.03044248,33.7546195 2.05168142,33.819469 C2.05507965,33.8293805 2.05932743,33.8387257 2.06272566,33.8489204 C2.0819823,33.9049912 2.10293805,33.9607788 2.12644248,34.0145841 C2.13437168,34.032708 2.14371681,34.0505487 2.15221239,34.0686726 C2.17288496,34.1131327 2.19440708,34.1573097 2.2179115,34.200354 C2.22980531,34.2218761 2.24283186,34.243115 2.25557522,34.2646372 C2.27766372,34.3023009 2.30060177,34.3393982 2.32495575,34.375646 C2.34081416,34.3988673 2.35695575,34.4218053 2.37366372,34.4444602 C2.39773451,34.4773097 2.42237168,34.5093097 2.44814159,34.5407434 C2.46683186,34.5639646 2.4860885,34.5871858 2.5059115,34.6095575 C2.53281416,34.6398584 2.56056637,34.6687434 2.58916814,34.6976283 C2.60955752,34.7185841 2.62938053,34.739823 2.65090265,34.7602124 C2.69451327,34.8009912 2.73982301,34.8400708 2.78654867,34.8771681 C2.80750442,34.8944425 2.82959292,34.9103009 2.8519646,34.9264425 C2.89189381,34.956177 2.93238938,34.9853451 2.97430088,35.012531 C2.98223009,35.0179115 2.98959292,35.0238584 2.99752212,35.0289558 C3.008,35.035469 3.01961062,35.04 3.0300885,35.0465133 C3.10909735,35.0943717 3.1900885,35.1388319 3.27447788,35.1770619 C3.28552212,35.1821593 3.29684956,35.1861239 3.30789381,35.1909381 C3.38548673,35.224354 3.46534513,35.2526726 3.54633628,35.2775929 C3.56729204,35.283823 3.58824779,35.2909027 3.60920354,35.2965664 C3.69274336,35.3192212 3.77769912,35.3370619 3.86378761,35.3500885 C3.88615929,35.3534867 3.90824779,35.3560354 3.93061947,35.3585841 C4.01670796,35.3687788 4.10279646,35.3761416 4.19058407,35.3764248 C4.19426549,35.3764248 4.19766372,35.3772743 4.20134513,35.3772743 C4.21748673,35.3772743 4.23306195,35.3747257 4.24920354,35.3741593 C4.32169912,35.3727434 4.39447788,35.3690619 4.46725664,35.3605664 C4.5080354,35.3557522 4.54768142,35.3466903 4.58817699,35.3398938 C4.6300885,35.3328142 4.67171681,35.328 4.71334513,35.3183717 L7.72927434,34.6225841 L12.076177,33.6186903 Z" id="Shape"></path>
                    <circle id="Oval" cx="18.9289912" cy="16.2469381" r="6.37168142"></circle>
                    <path d="M28.7974513,2.4019823 C28.6589735,2.29040708 28.4635752,2.2779469 28.3112212,2.37054867 L25.3187965,4.18945133 L24.5771327,0.344353982 C24.5420177,0.163681416 24.3953274,0.0263362832 24.2132389,0.00339823009 C24.0311504,-0.019539823 23.8538761,0.0775929204 23.7757168,0.243256637 L22.0726372,3.84934513 L20.1305487,1.58725664 C20.0147257,1.45189381 19.8289558,1.40375221 19.6624425,1.4640708 C19.4964956,1.52495575 19.3852035,1.68155752 19.3835044,1.85911504 L19.3574513,4.3919292 L17.628885,3.47950442 C17.4810619,3.4019115 17.3035044,3.41720354 17.1715398,3.51858407 C17.039292,3.62053097 16.9792566,3.78874336 17.0166372,3.95129204 L17.5311858,6.17118584 C17.5841416,6.39971681 17.811823,6.54272566 18.0409204,6.48948673 C18.2694513,6.43624779 18.412177,6.20884956 18.3592212,5.97975221 L18.0542301,4.66463717 L19.5769204,5.4680354 C19.7071858,5.53713274 19.8660531,5.53288496 19.9929204,5.45784071 C20.1200708,5.38166372 20.1985133,5.24431858 20.1999292,5.09677876 L20.2211681,2.99610619 L21.8548673,4.89939823 C21.9483186,5.00785841 22.092177,5.06251327 22.2340531,5.04410619 C22.3762124,5.02484956 22.4996814,4.93366372 22.5611327,4.8039646 L23.9892389,1.78067257 L24.6009204,4.94895575 C24.6275398,5.08573451 24.7184425,5.20042478 24.8461593,5.25706195 C24.9730265,5.31313274 25.1197168,5.30350442 25.2383717,5.23157522 L27.7536283,3.70293805 L26.7129204,6.76587611 C26.6664779,6.90322124 26.692531,7.05359292 26.7828673,7.16715044 C26.8726372,7.28042478 27.0130973,7.33961062 27.1575221,7.32573451 L29.8933805,7.05359292 L27.2846726,9.52184071 C27.1895221,9.61132743 27.1410973,9.74102655 27.1532743,9.87044248 C27.1660177,10.000708 27.2382301,10.1182301 27.3481062,10.1887434 L29.0582655,11.2784425 L27.1136283,11.6856637 C26.8833982,11.7332389 26.7364248,11.9586549 26.7845664,12.1886018 C26.8259115,12.3888142 27.0029027,12.5261593 27.2,12.5261593 C27.2291681,12.5261593 27.2583363,12.5230442 27.2880708,12.5170973 L27.2875044,12.5170973 L30.2535929,11.8957876 C30.4229381,11.8601062 30.5532035,11.7264425 30.584354,11.556531 C30.6155044,11.3860531 30.5410265,11.2150088 30.3946195,11.1221239 L28.2639292,9.76453097 L31.3812389,6.816 C31.5132035,6.69083186 31.5511504,6.49656637 31.475823,6.33090265 C31.3999292,6.16523894 31.2280354,6.06612389 31.0473628,6.08453097 L27.7304071,6.41472566 L28.9350796,2.86952212 C28.9917168,2.70130973 28.9370619,2.51384071 28.7974513,2.4019823 Z" id="Shape"></path>
                </g>
            </g>
        </g>
    </g>
</svg>