<?xml version="1.0" encoding="UTF-8" standalone="no"?>
<svg width="64px" height="72px" viewBox="0 0 64 72" version="1.1" xmlns="http://www.w3.org/2000/svg" xmlns:xlink="http://www.w3.org/1999/xlink">
    <!-- Generator: Sketch 45.2 (43514) - http://www.bohemiancoding.com/sketch -->
    <title>ic_hex_music</title>
    <desc>Created with Sketch.</desc>
    <defs></defs>
    <g id="Page-1" stroke="none" stroke-width="1" fill="none" fill-rule="evenodd">
        <g id="5-how-it-works" transform="translate(-777.000000, -1044.000000)">
            <g id="ic_hex_music" transform="translate(773.000000, 1044.000000)">
                <polygon id="Polygon-Copy-4" fill="#4A90E2" points="36 0 67.1769145 18 67.1769145 54 36 72 4.82308546 54 4.82308546 18"></polygon>
                <g id="noun_1007079_cc-(1)" transform="translate(17.000000, 18.000000)" fill-rule="nonzero" fill="#FFFFFF">
                    <path d="M28.5799343,18.8979986 L28.5799343,8.26584844 L23.6852554,9.67050242 C20.2924758,10.6429552 16.9032978,11.6298146 13.4997132,12.5518439 C12.8478097,12.7319278 12.6245057,13.0020535 12.6281074,13.6971772 C12.6593219,19.0156534 12.6593219,24.3353301 12.6281074,29.6562074 C12.662967,32.6658742 10.5544602,35.2757687 7.604677,35.8741734 C4.65489378,36.4725781 1.69602179,34.8906721 0.55528649,32.1053477 C-0.414929563,29.7842487 0.124063919,27.1063922 1.91672035,25.3413985 C3.81480407,23.49734 6.06225044,23.0111136 8.57982258,23.8827194 C8.89677014,23.9943714 9.20291268,24.1420401 9.64231726,24.3293273 C9.64231726,23.9007278 9.64231726,23.5729752 9.64231726,23.2488243 C9.64231726,17.8655179 9.64231726,12.4834121 9.64231726,7.10250681 C9.64231726,6.61628043 9.64231726,6.25611274 10.2726107,6.0760289 C17.2130421,4.10951332 24.1390667,2.1033793 31.079498,0.111651983 C31.2235651,0.0720335376 31.3748356,0.0432201226 31.5693261,0 C31.5873345,0.223303967 31.6161479,0.403387811 31.6161479,0.579869978 C31.6161479,8.52877085 31.6413596,16.4776717 31.6161479,24.4229709 C31.6161479,27.9634193 28.6483662,30.686287 25.061096,30.5782367 C22.5733596,30.4737909 20.3837497,28.905684 19.4838652,26.5840576 C18.5839807,24.2624312 19.1447449,21.6282531 20.912207,19.8744518 C22.6796692,18.1206505 25.3181189,17.5803417 27.6326933,18.4982125 C27.9100224,18.6170678 28.1909532,18.7287198 28.5799343,18.8979986 Z" id="Shape"></path>
                </g>
            </g>
        </g>
    </g>
</svg>