<?xml version="1.0" encoding="UTF-8" standalone="no"?>
<svg width="64px" height="72px" viewBox="0 0 64 72" version="1.1" xmlns="http://www.w3.org/2000/svg" xmlns:xlink="http://www.w3.org/1999/xlink">
    <!-- Generator: Sketch 45.2 (43514) - http://www.bohemiancoding.com/sketch -->
    <title>ic_hex_signal</title>
    <desc>Created with Sketch.</desc>
    <defs></defs>
    <g id="Page-1" stroke="none" stroke-width="1" fill="none" fill-rule="evenodd">
        <g id="5-how-it-works" transform="translate(-350.000000, -1044.000000)">
            <g id="ic_hex_signal" transform="translate(346.000000, 1044.000000)">
                <polygon id="Polygon-Copy-3" fill="#4A90E2" points="36 0 67.1769145 18 67.1769145 54 36 72 4.82308546 54 4.82308546 18"></polygon>
                <g id="noun_66732_cc" transform="translate(17.000000, 16.000000)" fill-rule="nonzero">
                    <path d="M18.4615385,15.6 C15.6,15.6 13.2461538,17.9076923 13.2461538,20.8153846 C13.2461538,23.7230769 15.5538462,26.0307692 18.4615385,26.0307692 C21.3692308,26.0307692 23.6769231,23.7230769 23.6769231,20.8153846 C23.6769231,17.9076923 21.3230769,15.6 18.4615385,15.6 Z M18.4615385,24.8307692 C16.2461538,24.8307692 14.4,23.0307692 14.4,20.7692308 C14.4,18.5076923 16.2,16.7076923 18.4615385,16.7076923 C20.7230769,16.7076923 22.5230769,18.5076923 22.5230769,20.7692308 C22.5230769,23.0307692 20.6769231,24.8307692 18.4615385,24.8307692 Z" id="Shape" fill="#FFFFFF"></path>
                    <path d="M18.4615385,4.06153846 C15.6,4.06153846 13.2461538,6.36923077 13.2461538,9.27692308 C13.2461538,12.1846154 15.5538462,14.4923077 18.4615385,14.4923077 C21.3692308,14.4923077 23.6769231,12.1846154 23.6769231,9.27692308 C23.6769231,6.36923077 21.3230769,4.06153846 18.4615385,4.06153846 Z" id="Shape" fill="#FF504D"></path>
                    <path d="M18.4615385,27.1384615 C15.6,27.1384615 13.2461538,29.4461538 13.2461538,32.3538462 C13.2461538,35.2615385 15.5538462,37.5692308 18.4615385,37.5692308 C21.3692308,37.5692308 23.6769231,35.2615385 23.6769231,32.3538462 C23.6769231,29.4461538 21.3230769,27.1384615 18.4615385,27.1384615 Z M18.4615385,36.3692308 C16.2461538,36.3692308 14.4,34.5692308 14.4,32.3076923 C14.4,30.0461538 16.2,28.2461538 18.4615385,28.2461538 C20.7230769,28.2461538 22.5230769,30.0461538 22.5230769,32.3076923 C22.5230769,34.5692308 20.6769231,36.3692308 18.4615385,36.3692308 Z" id="Shape" fill="#FFFFFF"></path>
                    <path d="M36.3692308,4.06153846 L27.6923077,4.06153846 C27.3692308,1.75384615 25.4307692,0 23.0769231,0 L13.8461538,0 C11.4923077,0 9.55384615,1.75384615 9.27692308,4.06153846 L0.6,4.06153846 C0.461538462,4.06153846 0.323076923,4.10769231 0.184615385,4.24615385 C0.0461538462,4.38461538 0,4.47692308 0,4.61538462 L0,6.92307692 C0,9.32307692 1.93846154,11.2615385 4.33846154,11.2615385 C5.12307692,11.2615385 5.76923077,11.9076923 5.76923077,12.6923077 L5.76923077,13.8461538 C5.76923077,14.1692308 6.04615385,14.4461538 6.36923077,14.4461538 L9.23076923,14.4461538 L9.23076923,15.6 L0.553846154,15.6 C0.415384615,15.6 0.276923077,15.6461538 0.138461538,15.7846154 C-8.19857003e-16,15.9230769 0,16.0153846 0,16.1538462 L0,18.4615385 C0,20.8615385 1.93846154,22.8 4.33846154,22.8 C5.12307692,22.8 5.76923077,23.4461538 5.76923077,24.2307692 L5.76923077,25.3846154 C5.76923077,25.7076923 6.04615385,25.9846154 6.36923077,25.9846154 L9.23076923,25.9846154 L9.23076923,27.1384615 L0.553846154,27.1384615 C0.415384615,27.1384615 0.276923077,27.1846154 0.138461538,27.3230769 C-8.19857003e-16,27.4615385 0,27.5538462 0,27.6923077 L0,30 C0,32.4 1.93846154,34.3384615 4.33846154,34.3384615 C5.12307692,34.3384615 5.76923077,34.9846154 5.76923077,35.7692308 L5.76923077,36.9230769 C5.76923077,37.2461538 6.04615385,37.5230769 6.36923077,37.5230769 L9.27692308,37.5230769 C9.55384615,39.7846154 11.4923077,41.5846154 13.8461538,41.5846154 L23.0769231,41.5846154 C25.4307692,41.5846154 27.3692308,39.8307692 27.6461538,37.5230769 L30.5538462,37.5230769 C30.8769231,37.5230769 31.1538462,37.2461538 31.1538462,36.9230769 L31.1538462,35.7692308 C31.1538462,34.9846154 31.8,34.3384615 32.5846154,34.3384615 C34.9846154,34.3384615 36.9230769,32.4 36.9230769,30 L36.9230769,27.6923077 C36.9230769,27.5538462 36.8769231,27.4153846 36.7384615,27.2769231 C36.6,27.1384615 36.4615385,27.0923077 36.3230769,27.0923077 L27.6461538,27.0923077 L27.6461538,25.9384615 L30.5538462,25.9384615 C30.8769231,25.9384615 31.1538462,25.6615385 31.1538462,25.3384615 L31.1538462,24.1846154 C31.1538462,23.4 31.8,22.7538462 32.5846154,22.7538462 C34.9846154,22.7538462 36.9230769,20.8153846 36.9230769,18.4153846 L36.9230769,16.1076923 C36.9230769,15.9692308 36.8769231,15.8307692 36.7384615,15.6923077 C36.6,15.5538462 36.4615385,15.5076923 36.3230769,15.5076923 L27.6461538,15.5076923 L27.6461538,14.3538462 L30.5538462,14.3538462 C30.8769231,14.3538462 31.1538462,14.0769231 31.1538462,13.7538462 L31.1538462,12.6 C31.1538462,11.8153846 31.8,11.1692308 32.5846154,11.1692308 C34.9846154,11.1692308 36.9230769,9.23076923 36.9230769,6.83076923 L36.9230769,4.52307692 C36.9230769,4.38461538 36.8769231,4.24615385 36.7384615,4.10769231 C36.6,3.96923077 36.5076923,4.06153846 36.3692308,4.06153846 Z M9.23076923,36.3692308 L6.92307692,36.3692308 L6.92307692,35.7692308 C6.92307692,34.3384615 5.76923077,33.1846154 4.33846154,33.1846154 C2.58461538,33.1846154 1.15384615,31.7538462 1.15384615,30 L1.15384615,28.2461538 L9.23076923,28.2461538 L9.23076923,36.3692308 Z M9.23076923,24.8307692 L6.92307692,24.8307692 L6.92307692,24.2307692 C6.92307692,22.8 5.76923077,21.6461538 4.33846154,21.6461538 C2.58461538,21.6461538 1.15384615,20.2153846 1.15384615,18.4615385 L1.15384615,16.7076923 L9.23076923,16.7076923 L9.23076923,24.8307692 Z M9.23076923,13.2923077 L6.92307692,13.2923077 L6.92307692,12.6923077 C6.92307692,11.2615385 5.76923077,10.1076923 4.33846154,10.1076923 C2.58461538,10.1076923 1.15384615,8.67692308 1.15384615,6.92307692 L1.15384615,5.16923077 L9.23076923,5.16923077 L9.23076923,13.2923077 Z M25.3846154,36.9230769 C25.3846154,38.2153846 24.3692308,39.2307692 23.0769231,39.2307692 L13.8461538,39.2307692 C12.5538462,39.2307692 11.5384615,38.2153846 11.5384615,36.9230769 L11.5384615,4.61538462 C11.5384615,3.32307692 12.5538462,2.30769231 13.8461538,2.30769231 L23.0769231,2.30769231 C24.3692308,2.30769231 25.3846154,3.32307692 25.3846154,4.61538462 L25.3846154,36.9230769 Z M35.7692308,28.2923077 L35.7692308,30 C35.7692308,31.7538462 34.3384615,33.1846154 32.5846154,33.1846154 C31.1538462,33.1846154 30,34.3384615 30,35.7692308 L30,36.3692308 L27.6923077,36.3692308 L27.6923077,28.2923077 L35.7692308,28.2923077 Z M35.7692308,16.7538462 L35.7692308,18.4615385 C35.7692308,20.2153846 34.3384615,21.6461538 32.5846154,21.6461538 C31.1538462,21.6461538 30,22.8 30,24.2307692 L30,24.8307692 L27.6923077,24.8307692 L27.6923077,16.7538462 L35.7692308,16.7538462 Z M35.7692308,6.92307692 C35.7692308,8.67692308 34.3384615,10.1076923 32.5846154,10.1076923 C31.1538462,10.1076923 30,11.2615385 30,12.6923077 L30,13.2923077 L27.6923077,13.2923077 L27.6923077,5.21538462 L35.7692308,5.21538462 L35.7692308,6.92307692 Z" id="Shape" fill="#FFFFFF"></path>
                </g>
            </g>
        </g>
    </g>
</svg>