<?xml version="1.0" encoding="UTF-8" standalone="no"?>
<svg width="64px" height="72px" viewBox="0 0 64 72" version="1.1" xmlns="http://www.w3.org/2000/svg" xmlns:xlink="http://www.w3.org/1999/xlink">
    <!-- Generator: Sketch 45.2 (43514) - http://www.bohemiancoding.com/sketch -->
    <title>ic_hex_home</title>
    <desc>Created with Sketch.</desc>
    <defs></defs>
    <g id="Page-1" stroke="none" stroke-width="1" fill="none" fill-rule="evenodd">
        <g id="5-how-it-works" transform="translate(-688.000000, -449.000000)">
            <g id="ic_hex_home" transform="translate(684.000000, 449.000000)">
                <polygon id="Polygon" fill="#4A90E2" points="36 0 67.1769145 18 67.1769145 54 36 72 4.82308546 54 4.82308546 18"></polygon>
                <g id="noun_789299_cc" transform="translate(14.000000, 16.000000)" fill-rule="nonzero" fill="#FFFFFF">
                    <path d="M41.7022222,15.6533333 L40.2933333,15.6533333 L40.2933333,38.1333333 C40.2933363,39.1453495 39.4742355,39.9664385 38.4622222,39.9688889 L38.1866667,39.9688889 C37.1763857,39.9664456 36.3579988,39.1480588 36.3555556,38.1377778 L36.3555556,15.6533333 L7.20444444,15.6533333 L7.20444444,38.1333333 C7.20444444,39.1470827 6.38263823,39.9688889 5.36888889,39.9688889 L5.09333333,39.9688889 C4.08132009,39.9664385 3.26221926,39.1453495 3.26222222,38.1333333 L3.26222222,15.6533333 L1.85333333,15.6533333 C1.01673717,15.6524323 0.284464817,15.0911722 0.0661892013,14.2835525 C-0.152086414,13.4759327 0.197757805,12.6222087 0.92,12.2 L21.7777778,0.0355555556 L42.6355556,12.2 C43.3577978,12.6222087 43.707642,13.4759327 43.4893664,14.2835525 C43.2710907,15.0911722 42.5388184,15.6524323 41.7022222,15.6533333 Z M32.0018306,25.409645 C32.0018306,25.6301431 32.0018306,25.8646411 32.0018306,26.1551387 C31.9846329,26.7280772 31.5033388,27.1886718 30.9046519,27.2051299 L30.3597198,27.2051299 C30.4157978,27.2751293 30.4694377,27.3462953 30.5206394,27.4186281 C31.0390831,28.1713809 31.303356,29.0583881 31.2776927,29.9596067 L31.2776927,34.9855644 C31.2776927,35.5654585 30.786469,36.0355556 30.180514,36.0355556 L28.7651535,36.0355556 C28.1591984,36.0355556 27.6679748,35.5654585 27.6679748,34.9855644 L27.6679748,34.194571 L15.3247146,34.194571 L15.3247146,34.9820644 C15.3247146,35.5619585 14.833491,36.0320556 14.2275359,36.0320556 L12.8121754,36.0320556 C12.2062204,36.0320556 11.7149967,35.5619585 11.7149967,34.9820644 L11.7149967,29.9666066 C11.6893334,29.065388 11.9536063,28.1783808 12.47205,27.425628 C12.5232517,27.3532953 12.5768915,27.2821292 12.6329696,27.2121298 L12.0990093,27.2121298 C11.5003224,27.1956717 11.0190283,26.7350771 11.0018306,26.1621386 C11.0018306,25.8716411 11.0018306,25.637143 11.0018306,25.4166449 C11.0152743,24.8570498 11.4850567,24.4059321 12.0697512,24.3911535 L12.4757073,24.3911535 C12.9323881,24.4080384 13.3663088,24.5863628 13.6935756,24.8916493 C14.1293775,23.7806866 14.660264,22.7060467 15.2808274,21.6786764 C15.8873427,20.8970449 16.8046926,20.3903226 17.8153102,20.2786881 C19.0333725,20.0970929 20.265658,20.0174588 21.4981733,20.0406901 L21.4981733,20.0406901 C22.7291504,20.0141892 23.9602011,20.0903093 25.1773792,20.2681882 C26.1879968,20.3798226 27.1053466,20.8865449 27.7118619,21.6681764 C28.3342411,22.6987957 28.8663627,23.7769714 29.302771,24.8916493 C29.6279022,24.5757842 30.0652078,24.388397 30.5279539,24.3666537 L30.93391,24.3666537 C31.5255794,24.3817471 31.9980949,24.8432322 32.0018306,25.409645 Z M17.8177778,30.0844444 C17.8169576,29.614187 17.4993767,29.203522 17.0444444,29.0844444 L14.6044444,28.4444444 C14.2943197,28.3632689 13.9640846,28.4302994 13.7101527,28.6259661 C13.4562208,28.8216328 13.3072255,29.1238722 13.3066667,29.4444444 L13.3066667,30.0844444 C13.3115263,30.6511635 13.771043,31.1086996 14.3377778,31.1111111 L16.7777778,31.1111111 C17.3479777,31.1135793 17.8128887,30.6546287 17.8177778,30.0844444 L17.8177778,30.0844444 Z M30.2622222,29.4444444 C30.2627784,29.1208158 30.1120047,28.815536 29.85468,28.6192714 C29.5973553,28.4230068 29.2630723,28.3583281 28.9511111,28.4444444 L26.5111111,29.0844444 C26.0250374,29.2307676 25.716686,29.7078558 25.7829074,30.2111379 C25.8491287,30.71442 26.2703977,31.0955056 26.7777778,31.1111111 L29.2177778,31.1111111 C29.4924242,31.1111111 29.7558218,31.0020082 29.9500261,30.8078039 C30.1442305,30.6135996 30.2533333,30.350202 30.2533333,30.0755556 L30.2622222,29.4444444 Z" id="Shape"></path>
                </g>
            </g>
        </g>
    </g>
</svg>