<?xml version="1.0" encoding="UTF-8" standalone="no"?>
<svg width="64px" height="72px" viewBox="0 0 64 72" version="1.1" xmlns="http://www.w3.org/2000/svg" xmlns:xlink="http://www.w3.org/1999/xlink">
    <!-- Generator: Sketch 45.2 (43514) - http://www.bohemiancoding.com/sketch -->
    <title>ic_hex_call</title>
    <desc>Created with Sketch.</desc>
    <defs></defs>
    <g id="Page-1" stroke="none" stroke-width="1" fill="none" fill-rule="evenodd">
        <g id="5-how-it-works" transform="translate(-1033.000000, -745.000000)">
            <g id="ic_hex_call" transform="translate(1029.000000, 745.000000)">
                <polygon id="Polygon-Copy" fill="#4A90E2" points="36 0 67.1769145 18 67.1769145 54 36 72 4.82308546 54 4.82308546 18"></polygon>
                <g id="Group" transform="translate(17.000000, 17.000000)" fill-rule="nonzero" fill="#FFFFFF">
                    <path d="M31.769234,18.0911489 C31.4739574,17.8039149 31.2889787,17.405234 31.2820851,16.9617447 C31.1878723,10.2611489 25.6603404,4.88757447 18.9608936,4.98178723 C18.0739149,4.99442553 17.3431915,4.28438298 17.3317021,3.39740426 C17.3190638,2.5092766 18.0291064,1.77970213 18.9160851,1.76821277 C23.0235319,1.71076596 26.9046383,3.25378723 29.8459149,6.11348936 C32.7871915,8.97319149 34.4393617,12.8106383 34.4968085,16.9169362 C34.5094468,17.8050638 33.7994043,18.5346383 32.9124255,18.5461277 C32.4677872,18.5518723 32.0633617,18.378383 31.769234,18.0911489 Z" id="Shape"></path>
                    <path d="M25.0893191,18.3634468 C24.7940426,18.0762128 24.6090638,17.6775319 24.6021702,17.2340426 C24.5814894,15.7243404 23.9737021,14.3134468 22.8937021,13.2633191 C21.8125532,12.2120426 20.3855745,11.645617 18.8758723,11.6662979 C17.9877447,11.6789362 17.2581702,10.9688936 17.2466809,10.0819149 C17.2340426,9.19378723 17.9440851,8.46421277 18.8310638,8.4527234 C21.2001702,8.41940426 23.4382979,9.30982979 25.1352766,10.9585532 C26.8322553,12.6084255 27.7847234,14.8212766 27.8180426,17.189234 C27.8306809,18.0773617 27.1206383,18.8069362 26.2336596,18.8184255 C25.7878723,18.8253191 25.3834468,18.6506809 25.0893191,18.3634468 Z" id="Shape"></path>
                    <path d="M29.718383,35.7548936 C25.5994468,35.3987234 22.2698298,33.8832766 19.1389787,31.8944681 C11.7880851,27.2240426 5.98021277,21.1369787 2.25765957,13.1909362 C1.76821277,12.1465532 1.38331915,11.0355319 1.08804255,9.91876596 C-0.149361702,5.22651064 0.882382979,3.76161702 4.85080851,0.822638298 C5.14953191,0.600893617 5.54706383,0.450382979 5.91817021,0.399829787 C9.15587234,-0.0505531915 10.4128085,2.46217021 11.844383,4.54289362 C13.3609787,6.74655319 13.2518298,8.31714894 11.8179574,10.0244681 C9.53387234,12.7405532 9.30178723,13.4080851 11.6846809,16.073617 C14.5914894,19.3251064 17.7763404,22.3663404 21.1013617,25.1915745 C23.2418298,27.0103404 24.0288511,26.7150638 26.0774043,24.8354043 C27.9467234,23.1200426 29.2530638,22.9603404 31.4980851,24.1954468 C31.949617,24.443617 32.3770213,24.7365957 32.8032766,25.0272766 C38.0998723,28.6418298 36.7682553,31.5877021 31.9840851,35.1804255 C31.3314894,35.6698723 30.275617,35.6250638 29.718383,35.7548936 Z" id="Shape"></path>
                </g>
            </g>
        </g>
    </g>
</svg>