<?xml version="1.0" encoding="UTF-8" standalone="no"?>
<svg width="64px" height="72px" viewBox="0 0 64 72" version="1.1" xmlns="http://www.w3.org/2000/svg" xmlns:xlink="http://www.w3.org/1999/xlink">
    <!-- Generator: Sketch 45.2 (43514) - http://www.bohemiancoding.com/sketch -->
    <title>ic_hex_chat</title>
    <desc>Created with Sketch.</desc>
    <defs></defs>
    <g id="Page-1" stroke="none" stroke-width="1" fill="none" fill-rule="evenodd">
        <g id="5-how-it-works" transform="translate(-477.000000, -745.000000)">
            <g id="ic_hex_chat" transform="translate(473.000000, 745.000000)">
                <polygon id="Polygon-Copy-2" fill="#4A90E2" points="36 0 67.1769145 18 67.1769145 54 36 72 4.82308546 54 4.82308546 18"></polygon>
                <g id="noun_600236_cc" transform="translate(15.000000, 18.000000)" fill-rule="nonzero" fill="#FFFFFF">
                    <path d="M8.83928571,23.9142857 C9.13660714,23.990625 9.225,24.0886607 9.22178571,24.384375 C9.20785714,25.9379464 9.20785714,27.4915179 9.22178571,29.0450893 C9.22741071,29.9957143 9.91526786,30.6948214 10.8225,30.7052679 C11.3729464,30.7116964 11.7932143,30.459375 12.16125,30.0752679 C13.95,28.2061607 15.7475893,26.3442857 17.5299107,24.46875 C17.7047744,24.2683007 17.9637185,24.1617467 18.2290179,24.1810714 C19.0205357,24.19875 19.8128571,24.1858929 20.6051786,24.1875 C23.5783929,24.1923214 26.1498214,23.1766071 28.2841071,21.1202679 C32.3839286,17.1642857 33.226875,10.5026786 30.1998214,5.596875 C27.973125,1.98883929 24.7395536,0.0610714286 20.4235714,0.0803571429 C17.3225893,0.0916071429 14.2208036,0.0803571429 11.1190179,0.0803571429 C9.93520937,0.0692852797 8.75941182,0.275465206 7.65,0.688660714 C3.79767857,2.15598214 1.485,4.98214286 0.394553571,8.8875 C0.207229496,9.5831162 0.0752990565,10.2924774 0,11.0089286 L0,13.2589286 C0.160714286,14.0697321 0.235446429,14.9014286 0.476517857,15.688125 C1.7775,19.9285714 4.45258929,22.7892857 8.83928571,23.9142857 Z M8.218125,8.41098214 C13.3304464,8.41098214 18.4427679,8.41098214 23.5550893,8.41098214 C24.2067857,8.41098214 24.553125,8.70348214 24.5563393,9.24107143 C24.5595536,9.77866071 24.2019643,10.0936607 23.5655357,10.0952679 C21.0026786,10.100625 18.4398214,10.100625 15.8769643,10.0952679 L8.50660714,10.0952679 C8.39892857,10.0952679 8.29205357,10.0952679 8.18517857,10.0952679 C7.59214286,10.0711607 7.22491071,9.736875 7.23535714,9.230625 C7.24580357,8.724375 7.60660714,8.41098214 8.21491071,8.41098214 L8.218125,8.41098214 Z M7.39285714,14.8805357 C7.543125,14.653125 7.79464286,14.5358036 8.14580357,14.535 C9.67473214,14.5323214 11.2039286,14.5323214 12.7333929,14.535 C14.2489286,14.535 15.7644643,14.535 17.28,14.535 C17.3533376,14.5349989 17.4266041,14.5395613 17.499375,14.5486607 L23.5534821,14.5486607 C24.2051786,14.5486607 24.5515179,14.8411607 24.5547321,15.37875 C24.5579464,15.9163393 24.1979464,16.2321429 23.5623214,16.2321429 C20.9994643,16.2375 18.4366071,16.2375 15.87375,16.2321429 L8.50660714,16.2321429 C8.39892857,16.2321429 8.29205357,16.2321429 8.18517857,16.2321429 C7.66366071,16.21125 7.31732143,15.9500893 7.24821429,15.5434821 C7.24821429,15.5314286 7.24821429,15.5185714 7.24339286,15.5065179 C7.23857143,15.4944643 7.23857143,15.4671429 7.23696429,15.44625 C7.23535714,15.4253571 7.23696429,15.4285714 7.23696429,15.4189286 C7.23696429,15.4092857 7.23696429,15.384375 7.23696429,15.3675 C7.23533423,15.1926567 7.28999048,15.0219263 7.39285714,14.8805357 Z" id="Shape"></path>
                    <path d="M38.0724107,15.06375 C36.9291408,14.0356034 35.5184389,13.3517027 34.003125,13.0909821 C33.9870536,13.2042857 33.975,13.269375 33.969375,13.3320536 C33.8038393,15.3289286 33.3120536,17.2438393 32.3429464,19.0004464 C29.8004464,23.608125 25.9465179,26.1241071 20.59875,26.1932143 C20.03625,26.2004464 19.47375,26.1875893 18.9072321,26.1932143 C18.4483929,26.2004464 18.2442857,26.5459821 18.4773214,26.9260714 C19.7783036,29.0515179 21.5975893,30.5011607 24.0838393,30.9358929 C25.14375,31.1215179 26.2470536,31.0660714 27.3310714,31.0966071 C27.5701091,31.0902588 27.7995565,31.1906973 27.9570536,31.370625 C28.6802679,32.1436607 29.4195536,32.9030357 30.1532143,33.6664286 C30.7157143,34.25625 31.2782143,34.8541071 31.8559821,35.4342857 C32.450625,36.0313393 33.2614286,36.0771429 33.845625,35.5741071 C34.2208929,35.2526786 34.3333929,34.8219643 34.3325893,34.3478571 C34.3325893,33.3707143 34.3470536,32.3927679 34.3245536,31.415625 C34.3165179,31.0652679 34.419375,30.9423214 34.7665179,30.8129464 C35.6022321,30.5019643 36.4725,30.1958036 37.1997321,29.6991964 C42.0774107,26.3651786 42.5008929,18.9948214 38.0724107,15.06375 Z" id="Shape"></path>
                </g>
            </g>
        </g>
    </g>
</svg>