<?xml version="1.0" encoding="UTF-8" standalone="no"?>
<svg width="64px" height="72px" viewBox="0 0 64 72" version="1.1" xmlns="http://www.w3.org/2000/svg" xmlns:xlink="http://www.w3.org/1999/xlink">
    <!-- Generator: Sketch 45.2 (43514) - http://www.bohemiancoding.com/sketch -->
    <title>ic_hex_nav</title>
    <desc>Created with Sketch.</desc>
    <defs></defs>
    <g id="Page-1" stroke="none" stroke-width="1" fill="none" fill-rule="evenodd">
        <g id="5-how-it-works" transform="translate(-1032.000000, -1341.000000)">
            <g id="ic_hex_nav" transform="translate(1028.000000, 1341.000000)">
                <polygon id="Polygon-Copy-5" fill="#4A90E2" points="36 0 67.1769145 18 67.1769145 54 36 72 4.82308546 54 4.82308546 18"></polygon>
                <g id="Group" transform="translate(18.000000, 16.000000)" fill-rule="nonzero" fill="#FFFFFF">
                    <path d="M18,0.375 C13.125,0.375 9.225,4.275 9.225,9.15 C9.225,13.35 15.825,22.275 17.55,24.6 C17.775,24.9 18.15,24.9 18.375,24.6 C20.1,22.35 26.7,13.35 26.7,9.15 C26.775,4.275 22.875,0.375 18,0.375 Z M18,14.7 C14.925,14.7 12.375,12.225 12.375,9.075 C12.375,5.925 14.85,3.45 18,3.45 C21.15,3.45 23.625,5.925 23.625,9.075 C23.625,12.225 21.075,14.7 18,14.7 Z" id="Shape"></path>
                    <path d="M35.625,34.875 L31.5,16.2 C31.35,15.525 30.75,15 30.075,15 L28.125,15 C27.6,15 27.15,15.3 26.925,15.75 C25.05,19.35 22.35,23.175 20.325,25.8 C19.875,26.4 19.2,26.85 18.45,27 C17.4,27.15 16.5,26.7 15.9,25.95 C13.95,23.4 11.175,19.5 9.225,15.825 C9,15.375 8.55,15.075 8.025,15.075 L6,15.075 C5.325,15.075 4.725,15.525 4.575,16.275 L0.375,34.875 C0.225,35.475 0.975,35.85 1.425,35.475 L6.9,30 C8.25,28.65 10.5,28.65 11.85,30 L15.525,33.675 C16.875,35.025 19.125,35.025 20.475,33.675 L24.15,30 C25.5,28.65 27.75,28.65 29.1,30 L34.575,35.475 C35.025,35.85 35.775,35.475 35.625,34.875 Z" id="Shape"></path>
                </g>
            </g>
        </g>
    </g>
</svg>