<?xml version="1.0" encoding="UTF-8"?>
<svg width="56px" height="56px" viewBox="0 0 56 56" version="1.1" xmlns="http://www.w3.org/2000/svg" xmlns:xlink="http://www.w3.org/1999/xlink">
    <!-- Generator: Sketch 46.1 (44463) - http://www.bohemiancoding.com/sketch -->
    <title>ic_interface</title>
    <desc>Created with Sketch.</desc>
    <defs></defs>
    <g id="Mobile" stroke="none" stroke-width="1" fill="none" fill-rule="evenodd">
        <g id="second-fold-Updated-UI" transform="translate(-32.000000, -949.000000)">
            <g id="ic_interface" transform="translate(32.000000, 949.000000)">
                <rect id="Rectangle-2-Copy-2" fill="#879BA3" x="0" y="0" width="56" height="56" rx="28"></rect>
                <g id="Group-5" transform="translate(14.000000, 14.000000)" fill-rule="nonzero" fill="#FFFFFF">
                    <g id="interface_deselected">
                        <path d="M16.5328525,7.3373494 L16.5328525,1.17060241 C16.5328525,0.850120482 16.3877727,0.563373494 16.1592131,0.374457832 C16.1087213,0.333975903 16.0548634,0.296867469 15.997976,0.263132531 C15.8528962,0.185542168 15.6845902,0.138313253 15.5061858,0.138313253 L1.13621858,0.138313253 C0.570710383,0.138313253 0.109551913,0.600481927 0.109551913,1.17060241 L0.109551913,26.8867469 C0.109551913,27.4565301 0.570710383,27.9156626 1.13621858,27.9156626 L15.5061858,27.9156626 C16.0750601,27.9156626 16.5331891,27.4568675 16.5331891,26.8867469 L16.5331891,19.3233735 L15.0790251,19.3233735 L15.0790251,22.8992772 L1.56371585,22.8992772 L1.56371585,1.81156626 L15.0786885,1.81156626 L15.0786885,7.3373494 L16.5328525,7.3373494 Z M8.31951913,23.8 C9.13748634,23.8 9.7972459,24.4645783 9.7972459,25.2813011 C9.7972459,26.0976867 9.13748634,26.7588916 8.31951913,26.7588916 C7.50491803,26.7588916 6.84515847,26.0976867 6.84515847,25.2813011 C6.84515847,24.4645783 7.50491803,23.8 8.31951913,23.8 Z" id="Shape"></path>
                        <path d="M11.3355628,12.3537349 L11.3355628,16.9450602 C11.3355628,17.3461686 11.0124153,17.6733976 10.611847,17.6733976 L6.03055738,17.6733976 C5.62998907,17.6733976 5.30347541,17.3461686 5.30347541,16.9450602 L5.30347541,12.3537349 C5.30347541,11.9522892 5.62998907,11.6250602 6.03055738,11.6250602 L10.611847,11.6250602 C11.0124153,11.6250602 11.3355628,11.9522892 11.3355628,12.3537349 Z" id="Shape"></path>
                        <path d="M28.2705137,4.99614458 L28.2705137,11.0279518 C28.2705137,11.5575904 27.8426798,11.9860241 27.3179016,11.9860241 L24.1840437,11.9860241 L24.1840437,9.29060241 C24.1840437,8.21445783 23.3088525,7.3373494 22.2350601,7.3373494 L20.3466667,7.3373494 L20.3466667,4.99614458 C20.3466667,4.46987951 20.7741639,4.04144578 21.2992787,4.04144578 L27.3179016,4.04144578 C27.8430164,4.04144578 28.2705137,4.46987951 28.2705137,4.99614458 Z" id="Shape"></path>
                        <path d="M23.5108197,9.29060241 L23.5108197,15.5315663 L21.2184918,15.5315663 C20.4476503,15.5315663 19.8215519,16.1624097 19.8215519,16.9349398 L19.8215519,18.6486748 L14.1732022,18.6486748 C13.4663169,18.6486748 12.8974426,18.0785542 12.8974426,17.3701205 L12.8974426,9.29060241 C12.8974426,8.58554217 13.4663169,8.01204819 14.1732022,8.01204819 L22.2350601,8.01204819 C22.9385792,8.01204819 23.5108197,8.58554217 23.5108197,9.29060241 Z" id="Shape"></path>
                        <path d="M26.5234973,16.9349398 L26.5234973,21.526265 C26.5234973,21.9277108 26.2003497,22.2549398 25.7997814,22.2549398 L21.2184918,22.2549398 C20.8179235,22.2549398 20.494776,21.9277108 20.494776,21.526265 L20.494776,16.9349398 C20.494776,16.533494 20.8179235,16.206265 21.2184918,16.206265 L25.7997814,16.206265 C26.2003497,16.206265 26.5234973,16.533494 26.5234973,16.9349398 Z" id="Shape"></path>
                    </g>
                </g>
            </g>
        </g>
    </g>
</svg>