<?xml version="1.0" encoding="UTF-8" standalone="no"?>
<svg width="20px" height="20px" viewBox="0 0 20 20" version="1.1" xmlns="http://www.w3.org/2000/svg" xmlns:xlink="http://www.w3.org/1999/xlink">
    <!-- Generator: Sketch 45.2 (43514) - http://www.bohemiancoding.com/sketch -->
    <title>ic_missed_call</title>
    <desc>Created with Sketch.</desc>
    <defs></defs>
    <g id="Page-1" stroke="none" stroke-width="1" fill="none" fill-rule="evenodd">
        <g id="2" transform="translate(-592.000000, -497.000000)" fill="#3C3C3C">
            <path d="M596.022222,505.655556 C597.622222,508.8 600.2,511.366667 603.344444,512.977778 L605.788889,510.533333 C606.088889,510.233333 606.533333,510.133333 606.922222,510.266667 C608.166667,510.677778 609.511111,510.9 610.888889,510.9 C611.5,510.9 612,511.4 612,512.011111 L612,515.888889 C612,516.5 611.5,517 610.888889,517 C600.455556,517 592,508.544444 592,498.111111 C592,497.5 592.5,497 593.111111,497 L597,497 C597.611111,497 598.111111,497.5 598.111111,498.111111 C598.111111,499.5 598.333333,500.833333 598.744444,502.077778 C598.866667,502.466667 598.777778,502.9 598.466667,503.211111 L596.022222,505.655556" id="ic_missed_call"></path>
        </g>
    </g>
</svg>