<?xml version="1.0" encoding="UTF-8" standalone="no"?>
<svg width="43px" height="48px" viewBox="0 0 43 48" version="1.1" xmlns="http://www.w3.org/2000/svg" xmlns:xlink="http://www.w3.org/1999/xlink">
    <!-- Generator: Sketch 45.2 (43514) - http://www.bohemiancoding.com/sketch -->
    <title>ic_music_selected</title>
    <desc>Created with Sketch.</desc>
    <defs></defs>
    <g id="Page-1" stroke="none" stroke-width="1" fill="none" fill-rule="evenodd">
        <g id="2-copy" transform="translate(-1055.000000, -195.000000)" fill-rule="nonzero" fill="#4A90E2">
            <g id="ic_music_selected" transform="translate(1055.000000, 195.000000)">
                <path d="M38.0784,25.1856 L38.0784,11.016 L31.5552,12.888 C27.0336,14.184 22.5168,15.4992 17.9808,16.728 C17.112,16.968 16.8144,17.328 16.8192,18.2544 C16.8608,25.3424 16.8608,32.432 16.8192,39.5232 C16.8656578,43.5342207 14.0556244,47.0124598 10.1244112,47.8099613 C6.1931981,48.6074628 2.24987225,46.4992368 0.7296,42.7872 C-0.563419115,39.6938422 0.154904266,36.1250292 2.544,33.7728 C5.0736,31.3152 8.0688,30.6672 11.424,31.8288 C11.8464,31.9776 12.2544,32.1744 12.84,32.424 C12.84,31.8528 12.84,31.416 12.84,30.984 C12.84,23.8096 12.84,16.6368 12.84,9.4656 C12.84,8.8176 12.84,8.3376 13.68,8.0976 C22.9296,5.4768 32.16,2.8032 41.4096,0.1488 C41.6016,0.096 41.8032,0.0576 42.0624,0 C42.0864,0.2976 42.1248,0.5376 42.1248,0.7728 C42.1248,11.3664 42.1584,21.96 42.1248,32.5488 C42.1248,37.2672 38.1696,40.896 33.3888,40.752 C30.0733625,40.6128038 27.1552419,38.522968 25.9559545,35.4289073 C24.7566671,32.3348467 25.5040046,28.8242444 27.8595236,26.4869315 C30.2150426,24.1496185 33.7313377,23.4295421 36.816,24.6528 C37.1856,24.8112 37.56,24.96 38.0784,25.1856 Z" id="Shape"></path>
            </g>
        </g>
    </g>
</svg>