<?xml version="1.0" encoding="UTF-8" standalone="no"?>
<svg width="22px" height="20px" viewBox="0 0 22 20" version="1.1" xmlns="http://www.w3.org/2000/svg" xmlns:xlink="http://www.w3.org/1999/xlink">
    <!-- Generator: Sketch 45.2 (43514) - http://www.bohemiancoding.com/sketch -->
    <title>ic_menu</title>
    <desc>Created with Sketch.</desc>
    <defs></defs>
    <g id="Page-1" stroke="none" stroke-width="1" fill="none" fill-rule="evenodd">
        <g id="m4-How-it-works" transform="translate(-368.000000, -20.000000)" fill-rule="nonzero" fill="#000000">
            <g id="ic_menu" transform="translate(368.000000, 20.000000)">
                <path d="M20.6971917,11.0882353 L1.15140415,11.0882353 C0.561660562,11.0882353 0.0842490842,10.5882353 0.0842490842,9.97058824 L0.0842490842,9.97058824 C0.0842490842,9.35294118 0.561660562,8.85294118 1.15140415,8.85294118 L20.7252747,8.85294118 C21.3150183,8.85294118 21.7924298,9.35294118 21.7924298,9.97058824 L21.7924298,9.97058824 C21.7924298,10.5882353 21.3150183,11.0882353 20.6971917,11.0882353 Z" id="Shape"></path>
                <path d="M20.6971917,2.26470588 L1.15140415,2.26470588 C0.561660562,2.26470588 0.0842490842,1.76470588 0.0842490842,1.14705882 L0.0842490842,1.14705882 C0.0842490842,0.529411765 0.561660562,0.0294117647 1.15140415,0.0294117647 L20.7252747,0.0294117647 C21.3150183,0.0294117647 21.7924298,0.529411765 21.7924298,1.14705882 L21.7924298,1.14705882 C21.7924298,1.76470588 21.3150183,2.26470588 20.6971917,2.26470588 Z" id="Shape"></path>
                <path d="M20.6971917,19.9117647 L1.15140415,19.9117647 C0.561660562,19.9117647 0.0842490842,19.4117647 0.0842490842,18.7941176 L0.0842490842,18.7941176 C0.0842490842,18.1764706 0.561660562,17.6764706 1.15140415,17.6764706 L20.7252747,17.6764706 C21.3150183,17.6764706 21.7924298,18.1764706 21.7924298,18.7941176 L21.7924298,18.7941176 C21.7924298,19.4117647 21.3150183,19.9117647 20.6971917,19.9117647 Z" id="Shape"></path>
            </g>
        </g>
    </g>
</svg>