<?xml version="1.0" encoding="UTF-8" standalone="no"?>
<svg width="48px" height="48px" viewBox="0 0 48 48" version="1.1" xmlns="http://www.w3.org/2000/svg" xmlns:xlink="http://www.w3.org/1999/xlink">
    <!-- Generator: Sketch 45.2 (43514) - http://www.bohemiancoding.com/sketch -->
    <title>ic_nav_selected</title>
    <desc>Created with Sketch.</desc>
    <defs></defs>
    <g id="Page-1" stroke="none" stroke-width="1" fill="none" fill-rule="evenodd">
        <g id="2-copy" transform="translate(-819.000000, -196.000000)" fill-rule="nonzero" fill="#4A90E2">
            <g id="ic_nav_selected" transform="translate(819.000000, 196.000000)">
                <g id="Group">
                    <path d="M24,0.5 C17.5,0.5 12.3,5.7 12.3,12.2 C12.3,17.8 21.1,29.7 23.4,32.8 C23.7,33.2 24.2,33.2 24.5,32.8 C26.8,29.8 35.6,17.8 35.6,12.2 C35.7,5.7 30.5,0.5 24,0.5 Z M24,19.6 C19.9,19.6 16.5,16.3 16.5,12.1 C16.5,7.9 19.8,4.6 24,4.6 C28.2,4.6 31.5,7.9 31.5,12.1 C31.5,16.3 28.1,19.6 24,19.6 Z" id="Shape"></path>
                    <path d="M47.5,46.5 L42,21.6 C41.8,20.7 41,20 40.1,20 L37.5,20 C36.8,20 36.2,20.4 35.9,21 C33.4,25.8 29.8,30.9 27.1,34.4 C26.5,35.2 25.6,35.8 24.6,36 C23.2,36.2 22,35.6 21.2,34.6 C18.6,31.2 14.9,26 12.3,21.1 C12,20.5 11.4,20.1 10.7,20.1 L8,20.1 C7.1,20.1 6.3,20.7 6.1,21.7 L0.5,46.5 C0.3,47.3 1.3,47.8 1.9,47.3 L9.2,40 C11,38.2 14,38.2 15.8,40 L20.7,44.9 C22.5,46.7 25.5,46.7 27.3,44.9 L32.2,40 C34,38.2 37,38.2 38.8,40 L46.1,47.3 C46.7,47.8 47.7,47.3 47.5,46.5 Z" id="Shape"></path>
                </g>
            </g>
        </g>
    </g>
</svg>