<?xml version="1.0" encoding="UTF-8" standalone="no"?>
<svg width="52px" height="64px" viewBox="0 0 52 64" version="1.1" xmlns="http://www.w3.org/2000/svg" xmlns:xlink="http://www.w3.org/1999/xlink">
    <!-- Generator: Sketch 45.2 (43514) - http://www.bohemiancoding.com/sketch -->
    <title>ic_trip</title>
    <desc>Created with Sketch.</desc>
    <defs></defs>
    <g id="Page-1" stroke="none" stroke-width="1" fill="none" fill-rule="evenodd">
        <g id="3" transform="translate(-694.000000, -287.000000)" fill-rule="nonzero" fill="#879BA3">
            <g id="ic_trip" transform="translate(693.750000, 287.000000)">
                <path d="M45.1533333,28 L35.4533333,23.0133333 C34.4821076,22.5233866 33.2973868,22.8995354 32.7866667,23.86 C32.3159381,24.7984148 32.6157201,25.9404416 33.4866667,26.5266667 L34.3466667,27.1333333 C38.2133333,29.8 41.24,33.1333333 36.4666667,35.08 L13.56,42.44 C13.56,42.44 -7.10666667,49.1066667 3.61333333,63.0533333 C4.07556533,63.6522861 4.79009664,64.0021601 5.54666667,64 L40.1333333,64 C40.5846936,63.999731 40.9888957,63.7204736 41.1488386,63.298402 C41.3087815,62.8763304 41.1911614,62.3993298 40.8533333,62.1 C36.8,58.48 30.2533333,50.3533333 43.26,43.6666667 C60.5666667,34.78 45.1533333,28 45.1533333,28 Z" id="Shape"></path>
                <path d="M15.1133333,34.44 C16.2761313,35.5862104 18.1438687,35.5862104 19.3066667,34.44 C23.0333333,30.78 30.44,22.3866667 30.5266667,13.4666667 C30.5695962,6.39872405 25.1230553,0.5089956 18.0733333,0 C17.7844444,0 17.4977778,0 17.2133333,0 C9.84953667,-2.96059473e-16 3.88,5.96953667 3.88,13.3333333 C3.9,22.2866667 11.3333333,30.7533333 15.1133333,34.44 Z M11.8866667,13.3333333 C11.8866667,10.3878147 14.2744813,8 17.22,8 C20.1655187,8 22.5533333,10.3878147 22.5533333,13.3333333 C22.5533333,16.278852 20.1655187,18.6666667 17.22,18.6666667 C14.2744813,18.6666667 11.8866667,16.278852 11.8866667,13.3333333 Z" id="Shape"></path>
            </g>
        </g>
    </g>
</svg>