<?xml version="1.0" encoding="UTF-8" standalone="no"?>
<svg width="45px" height="65px" viewBox="0 0 45 65" version="1.1" xmlns="http://www.w3.org/2000/svg" xmlns:xlink="http://www.w3.org/1999/xlink">
    <!-- Generator: Sketch 45.2 (43514) - http://www.bohemiancoding.com/sketch -->
    <title>ic_touch</title>
    <desc>Created with Sketch.</desc>
    <defs></defs>
    <g id="Page-1" stroke="none" stroke-width="1" fill="none" fill-rule="evenodd">
        <g id="5-how-it-works" transform="translate(-559.000000, -1822.000000)" fill-rule="nonzero" fill="#4A90E2">
            <g id="ic_touch" transform="translate(559.000000, 1822.000000)">
                <g id="Group" transform="translate(0.000000, 0.482073)">
                    <path d="M17.3824716,0.273740698 C9.88673203,0.273740698 3.77782041,6.38265233 3.77782041,13.8783919 C3.77782041,16.8307977 4.6543832,19.9797756 6.3286925,22.3104413 C6.64505179,22.7494419 7.17162488,22.986266 7.70997783,22.9316686 C8.24833078,22.8770713 8.71663614,22.5393511 8.9384176,22.0457746 C9.16019907,21.5521981 9.10174675,20.9777869 8.78508785,20.5390023 C7.60837622,18.9009948 6.80107622,16.1855291 6.80107622,13.8783919 C6.80107622,8.0165407 11.5206204,3.29699651 17.3824716,3.29699651 C23.2443227,3.29699651 27.9638669,8.0165407 27.9638669,13.8783919 C27.9638669,16.1855291 27.1565669,18.9009948 25.9798553,20.5390023 C25.6633343,20.977792 25.6049724,21.5521206 25.8267574,22.0456116 C26.0485424,22.5391026 26.5167738,22.8767694 27.0550467,22.9313971 C27.5933196,22.9860249 28.119843,22.7493127 28.4362506,22.3104413 C30.1105599,19.9797756 30.9871227,16.8307977 30.9871227,13.8783919 C30.9871227,6.38265233 24.8782111,0.273740698 17.3824716,0.273740698 L17.3824716,0.273740698 Z M17.3824716,9.34350814 C14.870607,9.34350814 12.8475878,11.3660663 12.8475878,13.8783919 L12.8475878,41.0877093 L9.82433203,35.0411977 C7.34751459,30.4452442 4.91170762,30.9229942 3.02200645,32.0179419 C0.834794244,33.476814 0.0197698256,34.9830756 1.51037855,38.8202674 C4.94154715,47.2460058 10.2107041,57.2844244 15.8708437,63.7621279 L36.2778204,63.7621279 C43.4494745,58.4483779 49.2201669,33.1793256 39.3010762,32.0179419 C38.3913634,32.0179419 36.9347361,32.163814 36.2778204,32.7737558 C36.2778204,29.7504773 33.6395687,28.9758436 32.4987506,28.9946634 C31.1899001,29.016582 30.2310065,29.7504773 29.4754948,31.2621279 C29.4754948,28.2388494 27.0097198,27.4830355 25.6964251,27.4830355 C24.2506512,27.4830355 22.5739762,28.385175 21.9173553,29.7504773 L21.9173553,13.8783843 C21.9173553,11.3660663 19.8943437,9.34350058 17.3824716,9.34350058 L17.3824716,9.34350814 Z" id="Shape"></path>
                </g>
            </g>
        </g>
    </g>
</svg>