<?xml version="1.0" encoding="UTF-8" standalone="no"?>
<svg width="49px" height="48px" viewBox="0 0 49 48" version="1.1" xmlns="http://www.w3.org/2000/svg" xmlns:xlink="http://www.w3.org/1999/xlink">
    <!-- Generator: Sketch 45.2 (43514) - http://www.bohemiancoding.com/sketch -->
    <title>interface_deselected</title>
    <desc>Created with Sketch.</desc>
    <defs></defs>
    <g id="Page-1" stroke="none" stroke-width="1" fill="none" fill-rule="evenodd">
        <g id="2-copy" transform="translate(-733.000000, -273.000000)" fill-rule="nonzero" fill="#879BA3">
            <g id="interface_deselected" transform="translate(733.000000, 273.000000)">
                <path d="M28.3420328,12.5783133 L28.3420328,2.00674699 C28.3420328,1.4573494 28.0933246,0.965783132 27.7015082,0.641927711 C27.6149508,0.572530119 27.522623,0.508915662 27.4251016,0.451084338 C27.1763934,0.318072289 26.8878689,0.237108434 26.5820328,0.237108434 L1.94780328,0.237108434 C0.978360656,0.237108434 0.187803279,1.02939759 0.187803279,2.00674699 L0.187803279,46.0915662 C0.187803279,47.0683373 0.978360656,47.8554216 1.94780328,47.8554216 L26.5820328,47.8554216 C27.5572459,47.8554216 28.3426098,47.0689157 28.3426098,46.0915662 L28.3426098,33.1257831 L25.8497574,33.1257831 L25.8497574,39.2559037 L2.68065574,39.2559037 L2.68065574,3.10554216 L25.8491803,3.10554216 L25.8491803,12.5783133 L28.3420328,12.5783133 Z M14.2620328,40.8 C15.6642623,40.8 16.7952787,41.9392771 16.7952787,43.3393734 C16.7952787,44.7388915 15.6642623,45.8723856 14.2620328,45.8723856 C12.8655738,45.8723856 11.7345574,44.7388915 11.7345574,43.3393734 C11.7345574,41.9392771 12.8655738,40.8 14.2620328,40.8 Z" id="Shape"></path>
                <path d="M19.4323934,21.1778313 L19.4323934,29.0486746 C19.4323934,29.736289 18.8784262,30.297253 18.1917377,30.297253 L10.3380984,30.297253 C9.65140984,30.297253 9.09167213,29.736289 9.09167213,29.0486746 L9.09167213,21.1778313 C9.09167213,20.4896386 9.65140984,19.9286747 10.3380984,19.9286747 L18.1917377,19.9286747 C18.8784262,19.9286747 19.4323934,20.4896386 19.4323934,21.1778313 Z" id="Shape"></path>
                <path d="M48.4637377,8.56481928 L48.4637377,18.9050602 C48.4637377,19.813012 47.7303082,20.5474699 46.8306885,20.5474699 L41.4583607,20.5474699 L41.4583607,15.926747 C41.4583607,14.0819277 39.9580328,12.5783133 38.1172459,12.5783133 L34.88,12.5783133 L34.88,8.56481928 C34.88,7.6626506 35.6128525,6.92819276 36.5130492,6.92819276 L46.8306885,6.92819276 C47.7308852,6.92819276 48.4637377,7.6626506 48.4637377,8.56481928 Z" id="Shape"></path>
                <path d="M40.3042623,15.926747 L40.3042623,26.6255423 L36.3745574,26.6255423 C35.0531148,26.6255423 33.9798033,27.7069881 33.9798033,29.0313254 L33.9798033,31.9691567 L24.296918,31.9691567 C23.0851148,31.9691567 22.1099016,30.9918072 22.1099016,29.7773495 L22.1099016,15.926747 C22.1099016,14.7180723 23.0851148,13.7349398 24.296918,13.7349398 L38.1172459,13.7349398 C39.3232787,13.7349398 40.3042623,14.7180723 40.3042623,15.926747 Z" id="Shape"></path>
                <path d="M45.4688525,29.0313254 L45.4688525,36.9021687 C45.4688525,37.5903614 44.9148852,38.1513254 44.2281967,38.1513254 L36.3745574,38.1513254 C35.6878689,38.1513254 35.1339016,37.5903614 35.1339016,36.9021687 L35.1339016,29.0313254 C35.1339016,28.3431326 35.6878689,27.7821687 36.3745574,27.7821687 L44.2281967,27.7821687 C44.9148852,27.7821687 45.4688525,28.3431326 45.4688525,29.0313254 Z" id="Shape"></path>
            </g>
        </g>
    </g>
</svg>