<?xml version="1.0" encoding="UTF-8" standalone="no"?>
<svg width="299px" height="299px" viewBox="0 0 299 299" version="1.1" xmlns="http://www.w3.org/2000/svg" xmlns:xlink="http://www.w3.org/1999/xlink">
    <!-- Generator: Sketch 45.2 (43514) - http://www.bohemiancoding.com/sketch -->
    <title>interface card</title>
    <desc>Created with Sketch.</desc>
    <defs>
        <rect id="path-1" x="0" y="0" width="294.922777" height="294.922777" rx="2"></rect>
        <filter x="-1.2%" y="-0.8%" width="102.4%" height="102.4%" filterUnits="objectBoundingBox" id="filter-2">
            <feOffset dx="0" dy="1" in="SourceAlpha" result="shadowOffsetOuter1"></feOffset>
            <feGaussianBlur stdDeviation="1" in="shadowOffsetOuter1" result="shadowBlurOuter1"></feGaussianBlur>
            <feColorMatrix values="0 0 0 0 0   0 0 0 0 0   0 0 0 0 0  0 0 0 0.2 0" type="matrix" in="shadowBlurOuter1"></feColorMatrix>
        </filter>
    </defs>
    <g id="Page-1" stroke="none" stroke-width="1" fill="none" fill-rule="evenodd">
        <g id="2-copy-3" transform="translate(-347.000000, -405.000000)">
            <g id="interface-card" transform="translate(349.000000, 406.000000)">
                <g id="Rectangle-6">
                    <use fill="black" fill-opacity="1" filter="url(#filter-2)" xlink:href="#path-1"></use>
                    <use fill="#FFFFFF" fill-rule="evenodd" xlink:href="#path-1"></use>
                </g>
                <path d="M28,142 L268,142" id="Line" stroke-opacity="0.306584013" stroke="#9B9B9B" stroke-linecap="square"></path>
                <path d="M28,215 L268,215" id="Line-Copy" stroke-opacity="0.306584013" stroke="#9B9B9B" stroke-linecap="square"></path>
                <g id="Group-10" transform="translate(27.000000, 161.000000)">
                    <circle id="Oval-4" fill="#3C3C3C" cx="17.5" cy="17.5" r="17.5"></circle>
                    <text id="A" font-family="Montserrat-SemiBold, Montserrat" font-size="14" font-weight="500" fill="#FFFFFF">
                        <tspan x="12" y="23">A</tspan>
                    </text>
                </g>
                <path d="M84.686,178 L83.706,175.438 L79.52,175.438 L78.54,178 L77.364,178 L80.962,168.76 L82.292,168.76 L85.876,178 L84.686,178 Z M79.926,174.388 L83.3,174.388 L82.054,171.112 L81.62,169.824 L81.592,169.824 L81.186,171.07 L79.926,174.388 Z M90.944,170.86 C89.978,170.86 89.082,171.21 88.592,172.092 L88.522,171 L87.542,171 L87.542,178 L88.662,178 L88.662,174.276 C88.662,172.484 89.81,171.84 90.832,171.84 C91.798,171.84 92.554,172.358 92.554,173.912 L92.554,178 L93.674,178 L93.674,173.52 C93.674,171.714 92.442,170.86 90.944,170.86 Z M101.304,167.78 L102.424,167.78 L102.424,178 L101.444,178 L101.374,176.782 C100.968,177.58 100.086,178.14 98.98,178.14 C97.034,178.14 95.788,176.782 95.788,174.5 C95.788,172.218 97.034,170.86 98.98,170.86 C100.03,170.86 100.87,171.364 101.304,172.092 L101.304,167.78 Z M99.106,177.16 C100.436,177.16 101.304,176.166 101.304,174.584 L101.304,174.416 C101.304,172.834 100.436,171.84 99.106,171.84 C97.734,171.84 96.908,172.876 96.908,174.5 C96.908,176.124 97.734,177.16 99.106,177.16 Z M108.332,170.86 C107.24,170.86 106.484,171.294 106.092,172.148 L105.938,171 L105.028,171 L105.028,178 L106.148,178 L106.148,174.22 C106.148,172.652 107.156,171.91 107.996,171.91 C108.36,171.91 108.668,171.98 108.878,172.092 L109.102,171 C108.892,170.888 108.57,170.86 108.332,170.86 Z M116.522,174.136 C116.522,174.458 116.494,174.724 116.466,174.92 L111.188,174.92 C111.328,176.334 112.182,177.16 113.47,177.16 C114.492,177.16 115.192,176.796 115.444,176.124 L116.382,176.614 C115.85,177.566 114.982,178.14 113.47,178.14 C111.356,178.14 110.082,176.768 110.082,174.5 C110.082,172.232 111.272,170.86 113.386,170.86 C115.416,170.86 116.522,172.33 116.522,174.136 Z M113.386,171.84 C112.14,171.84 111.37,172.61 111.202,173.926 L115.444,173.926 C115.29,172.638 114.576,171.84 113.386,171.84 Z M127.4,171 L125.636,176.698 L123.732,171 L122.612,171 L120.708,176.698 L118.944,171 L117.698,171 L120.134,178 L121.254,178 L123.116,172.428 L125.09,178 L126.21,178 L128.646,171 L127.4,171 Z M142.59,175.634 L141.47,175.214 C141.064,176.46 140.098,177.09 138.866,177.09 C136.948,177.09 135.758,175.704 135.758,173.38 C135.758,171.042 137.032,169.67 138.922,169.67 C140.154,169.67 140.91,170.23 141.316,171.294 L142.422,170.776 C141.834,169.376 140.63,168.62 138.838,168.62 C136.262,168.62 134.582,170.454 134.582,173.38 C134.582,176.306 136.234,178.14 138.866,178.14 C140.602,178.14 142.002,177.216 142.59,175.634 Z M147.938,170.86 C146.986,170.86 146.146,171.21 145.656,172.05 L145.656,167.78 L144.536,167.78 L144.536,178 L145.656,178 L145.656,174.29 C145.656,172.498 146.804,171.84 147.826,171.84 C148.792,171.84 149.548,172.358 149.548,173.912 L149.548,178 L150.668,178 L150.668,173.52 C150.668,171.714 149.436,170.86 147.938,170.86 Z M159.208,174.136 C159.208,174.458 159.18,174.724 159.152,174.92 L153.874,174.92 C154.014,176.334 154.868,177.16 156.156,177.16 C157.178,177.16 157.878,176.796 158.13,176.124 L159.068,176.614 C158.536,177.566 157.668,178.14 156.156,178.14 C154.042,178.14 152.768,176.768 152.768,174.5 C152.768,172.232 153.958,170.86 156.072,170.86 C158.102,170.86 159.208,172.33 159.208,174.136 Z M156.072,171.84 C154.826,171.84 154.056,172.61 153.888,173.926 L158.13,173.926 C157.976,172.638 157.262,171.84 156.072,171.84 Z M164.738,170.86 C163.772,170.86 162.876,171.21 162.386,172.092 L162.316,171 L161.336,171 L161.336,178 L162.456,178 L162.456,174.276 C162.456,172.484 163.604,171.84 164.626,171.84 C165.592,171.84 166.348,172.358 166.348,173.912 L166.348,178 L167.468,178 L167.468,173.52 C167.468,171.714 166.236,170.86 164.738,170.86 Z" id="Andrew-Chen" fill="#3C3C3C"></path>
                <polyline id="Fill-171" fill="#D0021B" points="90.06 185 85 190.06 81.2733333 186.333333 84.3333333 186.333333 84.3333333 185 79 185 79 190.333333 80.3333333 190.333333 80.3333333 187.273333 85 191.94 91 185.94 90.06 185"></polyline>
                <polyline id="Fill-171-Copy" fill="#D0021B" points="107.06 185 102 190.06 98.2733333 186.333333 101.333333 186.333333 101.333333 185 96 185 96 190.333333 97.3333333 190.333333 97.3333333 187.273333 102 191.94 108 185.94 107.06 185"></polyline>
                <path d="M247.424444,176.521111 C249.184444,179.98 252.02,182.803333 255.478889,184.575556 L258.167778,181.886667 C258.497778,181.556667 258.986667,181.446667 259.414444,181.593333 C260.783333,182.045556 262.262222,182.29 263.777778,182.29 C264.45,182.29 265,182.84 265,183.512222 L265,187.777778 C265,188.45 264.45,189 263.777778,189 C252.301111,189 243,179.698889 243,168.222222 C243,167.55 243.55,167 244.222222,167 L248.5,167 C249.172222,167 249.722222,167.55 249.722222,168.222222 C249.722222,169.75 249.966667,171.216667 250.418889,172.585556 C250.553333,173.013333 250.455556,173.49 250.113333,173.832222 L247.424444,176.521111" id="Fill-137" fill="#3C3C3C"></path>
                <path d="M87.444,246.76 L85.722,246.76 L83.706,252.388 L82.992,254.684 L82.964,254.684 L82.264,252.374 L80.234,246.76 L78.512,246.76 L78.512,256 L79.576,256 L79.576,250.19 L79.45,247.754 L79.464,247.754 L82.502,256 L83.454,256 L86.492,247.754 L86.506,247.754 L86.38,250.19 L86.38,256 L87.444,256 L87.444,246.76 Z M96.208,249 L95.004,249 L93.366,253.424 L92.862,254.81 L92.428,253.564 L90.678,249 L89.404,249 L92.33,255.986 L91.966,256.896 C91.616,257.82 91.182,258.03 90.692,258.03 C90.3,258.03 89.88,257.918 89.558,257.47 L89.166,258.422 C89.558,258.842 90.006,259.01 90.706,259.01 C91.742,259.01 92.372,258.548 92.918,257.176 L96.208,249 Z M108.514,246.76 L108.514,250.792 L103.502,250.792 L103.502,246.76 L102.382,246.76 L102.382,256 L103.502,256 L103.502,251.842 L108.514,251.842 L108.514,256 L109.634,256 L109.634,246.76 L108.514,246.76 Z M115.276,248.86 C117.39,248.86 118.664,250.232 118.664,252.5 C118.664,254.768 117.39,256.14 115.276,256.14 C113.162,256.14 111.888,254.768 111.888,252.5 C111.888,250.232 113.162,248.86 115.276,248.86 Z M115.276,249.826 C113.862,249.826 113.008,250.834 113.008,252.5 C113.008,254.166 113.862,255.174 115.276,255.174 C116.69,255.174 117.544,254.166 117.544,252.5 C117.544,250.834 116.69,249.826 115.276,249.826 Z M128.968,248.86 C128.086,248.86 126.966,249.28 126.532,250.232 C126.07,249.294 125.104,248.86 124.124,248.86 C123.256,248.86 122.388,249.238 121.884,250.092 L121.814,249 L120.834,249 L120.834,256 L121.954,256 L121.954,252.262 C121.954,250.526 123.102,249.84 124.026,249.84 C124.95,249.84 125.678,250.358 125.678,251.632 L125.678,256 L126.798,256 L126.798,252.164 C126.798,250.666 127.778,249.84 128.87,249.84 C129.794,249.84 130.522,250.358 130.522,251.632 L130.522,256 L131.642,256 L131.642,251.52 C131.642,249.672 130.312,248.86 128.968,248.86 Z M140.182,252.136 C140.182,252.458 140.154,252.724 140.126,252.92 L134.848,252.92 C134.988,254.334 135.842,255.16 137.13,255.16 C138.152,255.16 138.852,254.796 139.104,254.124 L140.042,254.614 C139.51,255.566 138.642,256.14 137.13,256.14 C135.016,256.14 133.742,254.768 133.742,252.5 C133.742,250.232 134.932,248.86 137.046,248.86 C139.076,248.86 140.182,250.33 140.182,252.136 Z M137.046,249.84 C135.8,249.84 135.03,250.61 134.862,251.926 L139.104,251.926 C138.95,250.638 138.236,249.84 137.046,249.84 Z" id="My-Home" fill="#3C3C3C"></path>
                <g id="Group-13" transform="translate(27.000000, 234.000000)">
                    <circle id="Oval-5" fill="#3C3C3C" cx="17.5" cy="17.5" r="17.5"></circle>
                    <path d="M17.325,9.1 C13.93875,9.1 11.2,11.83875 11.2,15.225 C11.2,19.81875 17.325,26.6 17.325,26.6 C17.325,26.6 23.45,19.81875 23.45,15.225 C23.45,11.83875 20.71125,9.1 17.325,9.1 L17.325,9.1 Z M17.325,17.4125 C16.1175,17.4125 15.1375,16.4325 15.1375,15.225 C15.1375,14.0175 16.1175,13.0375 17.325,13.0375 C18.5325,13.0375 19.5125,14.0175 19.5125,15.225 C19.5125,16.4325 18.5325,17.4125 17.325,17.4125 L17.325,17.4125 Z" id="Fill-222" fill="#FFFFFF"></path>
                </g>
                <polygon id="Fill-131" fill="#3C3C3C" points="39.1428571 121 39.1428571 104 27 112.5"></polygon>
                <path d="M138,123 L143.666667,123 L143.666667,103 L138,103 L138,123 Z M149.333333,123 L155,123 L155,103 L149.333333,103 L149.333333,123 Z" id="Fill-117" fill="#3C3C3C"></path>
                <polygon id="Fill-132" fill="#3C3C3C" points="255.857143 104 255.857143 121 268 112.5"></polygon>
                <polygon id="Path" fill="#3C3C3C" points="249 121 261.142857 112.5 249 104"></polygon>
                <path d="M31.48,74.62 C29.338,74.62 28.036,75.88 28.036,77.364 C28.036,78.778 28.932,79.534 31.424,79.968 C33.37,80.304 33.972,80.766 33.972,81.564 C33.972,82.558 33.02,83.09 31.592,83.09 C30.08,83.09 29.128,82.418 28.638,81.354 L27.672,82.138 C28.316,83.286 29.604,84.14 31.564,84.14 C33.72,84.14 35.134,83.09 35.134,81.508 C35.134,80.08 34.252,79.296 31.774,78.876 C29.828,78.54 29.212,78.106 29.212,77.238 C29.212,76.356 30.024,75.67 31.494,75.67 C32.852,75.67 33.524,76.146 34.084,77.364 L35.05,76.58 C34.336,75.292 33.174,74.62 31.48,74.62 Z M40.23,76.86 C38.116,76.86 36.842,78.232 36.842,80.5 C36.842,82.768 38.116,84.14 40.23,84.14 C41.714,84.14 42.722,83.37 43.198,82.082 L42.162,81.718 C41.952,82.642 41.294,83.16 40.202,83.16 C38.802,83.16 37.962,82.166 37.962,80.5 C37.962,78.834 38.802,77.84 40.202,77.84 C41.168,77.84 41.77,78.33 42.064,79.226 L43.128,78.722 C42.61,77.574 41.672,76.86 40.23,76.86 Z M50.912,83.188 C51.094,83.188 51.304,83.16 51.472,83.118 L51.402,84 C51.206,84.07 50.912,84.14 50.562,84.14 C49.876,84.14 49.428,83.888 49.302,83.104 C48.854,83.762 47.944,84.14 47.048,84.14 C45.732,84.14 44.668,83.524 44.668,82.264 C44.668,81.214 45.592,80.388 47.398,80.08 L49.26,79.772 L49.26,79.38 C49.26,78.456 48.672,77.84 47.622,77.84 C46.698,77.84 45.998,78.288 45.62,79.17 L44.794,78.568 C45.158,77.532 46.264,76.86 47.622,76.86 C49.218,76.86 50.38,77.616 50.38,79.24 L50.38,82.684 C50.38,83.02 50.52,83.188 50.912,83.188 Z M47.104,83.16 C48.224,83.16 49.26,82.572 49.26,81.648 L49.26,80.682 L47.692,80.976 C46.46,81.2 45.83,81.606 45.83,82.264 C45.83,82.852 46.306,83.16 47.104,83.16 Z M56.4,76.86 C55.308,76.86 54.552,77.294 54.16,78.148 L54.006,77 L53.096,77 L53.096,84 L54.216,84 L54.216,80.22 C54.216,78.652 55.224,77.91 56.064,77.91 C56.428,77.91 56.736,77.98 56.946,78.092 L57.17,77 C56.96,76.888 56.638,76.86 56.4,76.86 Z M64.59,80.136 C64.59,80.458 64.562,80.724 64.534,80.92 L59.256,80.92 C59.396,82.334 60.25,83.16 61.538,83.16 C62.56,83.16 63.26,82.796 63.512,82.124 L64.45,82.614 C63.918,83.566 63.05,84.14 61.538,84.14 C59.424,84.14 58.15,82.768 58.15,80.5 C58.15,78.232 59.34,76.86 61.454,76.86 C63.484,76.86 64.59,78.33 64.59,80.136 Z M61.454,77.84 C60.208,77.84 59.438,78.61 59.27,79.926 L63.512,79.926 C63.358,78.638 62.644,77.84 61.454,77.84 Z M71.814,73.78 L72.934,73.78 L72.934,84 L71.954,84 L71.884,82.782 C71.478,83.58 70.596,84.14 69.49,84.14 C67.544,84.14 66.298,82.782 66.298,80.5 C66.298,78.218 67.544,76.86 69.49,76.86 C70.54,76.86 71.38,77.364 71.814,78.092 L71.814,73.78 Z M69.616,83.16 C70.946,83.16 71.814,82.166 71.814,80.584 L71.814,80.416 C71.814,78.834 70.946,77.84 69.616,77.84 C68.244,77.84 67.418,78.876 67.418,80.5 C67.418,82.124 68.244,83.16 69.616,83.16 Z M83.924,82.572 C83.602,82.894 83.238,83.09 82.734,83.09 C82.118,83.09 81.684,82.754 81.684,82.068 L81.684,77.966 L84.274,77.966 L84.274,77 L81.684,77 L81.684,75.012 L80.564,75.32 L80.564,77 L79.164,77 L79.164,77.966 L80.564,77.966 L80.564,82.264 C80.578,83.622 81.474,84.14 82.51,84.14 C83.28,84.14 83.882,83.902 84.316,83.51 L83.924,82.572 Z M88.852,76.86 C90.966,76.86 92.24,78.232 92.24,80.5 C92.24,82.768 90.966,84.14 88.852,84.14 C86.738,84.14 85.464,82.768 85.464,80.5 C85.464,78.232 86.738,76.86 88.852,76.86 Z M88.852,77.826 C87.438,77.826 86.584,78.834 86.584,80.5 C86.584,82.166 87.438,83.174 88.852,83.174 C90.266,83.174 91.12,82.166 91.12,80.5 C91.12,78.834 90.266,77.826 88.852,77.826 Z M102.628,76.86 C104.574,76.86 105.82,78.218 105.82,80.5 C105.82,82.782 104.574,84.14 102.628,84.14 C101.522,84.14 100.64,83.58 100.234,82.782 L100.164,84 L99.184,84 L99.184,73.78 L100.304,73.78 L100.304,78.092 C100.738,77.364 101.578,76.86 102.628,76.86 Z M102.502,83.16 C103.874,83.16 104.7,82.124 104.7,80.5 C104.7,78.876 103.874,77.84 102.502,77.84 C101.172,77.84 100.304,78.834 100.304,80.416 L100.304,80.584 C100.304,82.166 101.172,83.16 102.502,83.16 Z M114.01,80.136 C114.01,80.458 113.982,80.724 113.954,80.92 L108.676,80.92 C108.816,82.334 109.67,83.16 110.958,83.16 C111.98,83.16 112.68,82.796 112.932,82.124 L113.87,82.614 C113.338,83.566 112.47,84.14 110.958,84.14 C108.844,84.14 107.57,82.768 107.57,80.5 C107.57,78.232 108.76,76.86 110.874,76.86 C112.904,76.86 114.01,78.33 114.01,80.136 Z M110.874,77.84 C109.628,77.84 108.858,78.61 108.69,79.926 L112.932,79.926 C112.778,78.638 112.064,77.84 110.874,77.84 Z M121.976,73.78 L120.856,73.78 L120.856,82.264 C120.856,83.538 121.402,84.14 122.536,84.14 C122.9,84.14 123.278,84.07 123.572,83.944 L123.754,82.866 C123.348,83.02 123.11,83.062 122.732,83.062 C122.158,83.062 121.976,82.838 121.976,82.124 L121.976,73.78 Z M128.15,76.86 C130.264,76.86 131.538,78.232 131.538,80.5 C131.538,82.768 130.264,84.14 128.15,84.14 C126.036,84.14 124.762,82.768 124.762,80.5 C124.762,78.232 126.036,76.86 128.15,76.86 Z M128.15,77.826 C126.736,77.826 125.882,78.834 125.882,80.5 C125.882,82.166 126.736,83.174 128.15,83.174 C129.564,83.174 130.418,82.166 130.418,80.5 C130.418,78.834 129.564,77.826 128.15,77.826 Z M137.11,76.86 C136.144,76.86 135.248,77.21 134.758,78.092 L134.688,77 L133.708,77 L133.708,84 L134.828,84 L134.828,80.276 C134.828,78.484 135.976,77.84 136.998,77.84 C137.964,77.84 138.72,78.358 138.72,79.912 L138.72,84 L139.84,84 L139.84,79.52 C139.84,77.714 138.608,76.86 137.11,76.86 Z M148.38,80.136 C148.38,80.458 148.352,80.724 148.324,80.92 L143.046,80.92 C143.186,82.334 144.04,83.16 145.328,83.16 C146.35,83.16 147.05,82.796 147.302,82.124 L148.24,82.614 C147.708,83.566 146.84,84.14 145.328,84.14 C143.214,84.14 141.94,82.768 141.94,80.5 C141.94,78.232 143.13,76.86 145.244,76.86 C147.274,76.86 148.38,78.33 148.38,80.136 Z M145.244,77.84 C143.998,77.84 143.228,78.61 143.06,79.926 L147.302,79.926 C147.148,78.638 146.434,77.84 145.244,77.84 Z M151.572,73.78 L150.452,73.78 L150.452,82.264 C150.452,83.538 150.998,84.14 152.132,84.14 C152.496,84.14 152.874,84.07 153.168,83.944 L153.35,82.866 C152.944,83.02 152.706,83.062 152.328,83.062 C151.754,83.062 151.572,82.838 151.572,82.124 L151.572,73.78 Z M160.392,77 L159.188,77 L157.55,81.424 L157.046,82.81 L156.612,81.564 L154.862,77 L153.588,77 L156.514,83.986 L156.15,84.896 C155.8,85.82 155.366,86.03 154.876,86.03 C154.484,86.03 154.064,85.918 153.742,85.47 L153.35,86.422 C153.742,86.842 154.19,87.01 154.89,87.01 C155.926,87.01 156.556,86.548 157.102,85.176 L160.392,77 Z M173.202,79.814 L166.202,79.814 L166.202,80.864 L173.202,80.864 L173.202,79.814 Z M189.568,74.76 L187.846,74.76 L185.83,80.388 L185.116,82.684 L185.088,82.684 L184.388,80.374 L182.358,74.76 L180.636,74.76 L180.636,84 L181.7,84 L181.7,78.19 L181.574,75.754 L181.588,75.754 L184.626,84 L185.578,84 L188.616,75.754 L188.63,75.754 L188.504,78.19 L188.504,84 L189.568,84 L189.568,74.76 Z M198.038,83.188 C198.22,83.188 198.43,83.16 198.598,83.118 L198.528,84 C198.332,84.07 198.038,84.14 197.688,84.14 C197.002,84.14 196.554,83.888 196.428,83.104 C195.98,83.762 195.07,84.14 194.174,84.14 C192.858,84.14 191.794,83.524 191.794,82.264 C191.794,81.214 192.718,80.388 194.524,80.08 L196.386,79.772 L196.386,79.38 C196.386,78.456 195.798,77.84 194.748,77.84 C193.824,77.84 193.124,78.288 192.746,79.17 L191.92,78.568 C192.284,77.532 193.39,76.86 194.748,76.86 C196.344,76.86 197.506,77.616 197.506,79.24 L197.506,82.684 C197.506,83.02 197.646,83.188 198.038,83.188 Z M194.23,83.16 C195.35,83.16 196.386,82.572 196.386,81.648 L196.386,80.682 L194.818,80.976 C193.586,81.2 192.956,81.606 192.956,82.264 C192.956,82.852 193.432,83.16 194.23,83.16 Z M203.526,76.86 C202.434,76.86 201.678,77.294 201.286,78.148 L201.132,77 L200.222,77 L200.222,84 L201.342,84 L201.342,80.22 C201.342,78.652 202.35,77.91 203.19,77.91 C203.554,77.91 203.862,77.98 204.072,78.092 L204.296,77 C204.086,76.888 203.764,76.86 203.526,76.86 Z M209.406,82.572 C209.084,82.894 208.72,83.09 208.216,83.09 C207.6,83.09 207.166,82.754 207.166,82.068 L207.166,77.966 L209.756,77.966 L209.756,77 L207.166,77 L207.166,75.012 L206.046,75.32 L206.046,77 L204.646,77 L204.646,77.966 L206.046,77.966 L206.046,82.264 C206.06,83.622 206.956,84.14 207.992,84.14 C208.762,84.14 209.364,83.902 209.798,83.51 L209.406,82.572 Z M211.94,75.656 C212.444,75.656 212.78,75.32 212.78,74.816 C212.78,74.312 212.444,73.976 211.94,73.976 C211.436,73.976 211.1,74.312 211.1,74.816 C211.1,75.32 211.436,75.656 211.94,75.656 Z M212.5,77 L211.38,77 L211.38,84 L212.5,84 L212.5,77 Z M218.506,76.86 C217.54,76.86 216.644,77.21 216.154,78.092 L216.084,77 L215.104,77 L215.104,84 L216.224,84 L216.224,80.276 C216.224,78.484 217.372,77.84 218.394,77.84 C219.36,77.84 220.116,78.358 220.116,79.912 L220.116,84 L221.236,84 L221.236,79.52 C221.236,77.714 220.004,76.86 218.506,76.86 Z M232.31,79.338 L232.31,80.388 L235.25,80.388 L235.25,80.71 C235.25,82.306 234.06,83.09 232.52,83.09 C230.462,83.09 229.37,81.704 229.37,79.38 C229.37,77.056 230.63,75.67 232.506,75.67 C233.794,75.67 234.774,76.23 235.18,77.294 L236.202,76.734 C235.488,75.306 234.34,74.62 232.506,74.62 C229.916,74.62 228.194,76.454 228.194,79.38 C228.194,82.306 229.846,84.14 232.478,84.14 C233.892,84.14 234.858,83.622 235.39,82.754 L235.432,84 L236.272,84 L236.272,79.338 L232.31,79.338 Z M244.42,83.188 C244.602,83.188 244.812,83.16 244.98,83.118 L244.91,84 C244.714,84.07 244.42,84.14 244.07,84.14 C243.384,84.14 242.936,83.888 242.81,83.104 C242.362,83.762 241.452,84.14 240.556,84.14 C239.24,84.14 238.176,83.524 238.176,82.264 C238.176,81.214 239.1,80.388 240.906,80.08 L242.768,79.772 L242.768,79.38 C242.768,78.456 242.18,77.84 241.13,77.84 C240.206,77.84 239.506,78.288 239.128,79.17 L238.302,78.568 C238.666,77.532 239.772,76.86 241.13,76.86 C242.726,76.86 243.888,77.616 243.888,79.24 L243.888,82.684 C243.888,83.02 244.028,83.188 244.42,83.188 Z M240.612,83.16 C241.732,83.16 242.768,82.572 242.768,81.648 L242.768,80.682 L241.2,80.976 C239.968,81.2 239.338,81.606 239.338,82.264 C239.338,82.852 239.814,83.16 240.612,83.16 Z M249.908,76.86 C248.816,76.86 248.06,77.294 247.668,78.148 L247.514,77 L246.604,77 L246.604,84 L247.724,84 L247.724,80.22 C247.724,78.652 248.732,77.91 249.572,77.91 C249.936,77.91 250.244,77.98 250.454,78.092 L250.678,77 C250.468,76.888 250.146,76.86 249.908,76.86 Z M255.62,76.86 C254.528,76.86 253.772,77.294 253.38,78.148 L253.226,77 L252.316,77 L252.316,84 L253.436,84 L253.436,80.22 C253.436,78.652 254.444,77.91 255.284,77.91 C255.648,77.91 255.956,77.98 256.166,78.092 L256.39,77 C256.18,76.888 255.858,76.86 255.62,76.86 Z M258.588,75.656 C259.092,75.656 259.428,75.32 259.428,74.816 C259.428,74.312 259.092,73.976 258.588,73.976 C258.084,73.976 257.748,74.312 257.748,74.816 C257.748,75.32 258.084,75.656 258.588,75.656 Z M259.148,77 L258.028,77 L258.028,84 L259.148,84 L259.148,77 Z M267.45,84 L264.874,80.43 L267.408,77 L266.092,77 L264.272,79.59 L262.424,77 L261.024,77 L263.544,80.472 L260.856,84 L262.158,84 L264.146,81.298 L266.078,84 L267.45,84 Z" id="Scared-to-be-lonely" fill="#3C3C3C"></path>
                <polygon id="Shape" fill="#3C3C3C" fill-rule="nonzero" points="264.999962 239 240 249.398212 251.283155 252.71682 254.601728 264"></polygon>
                <path d="M68.851,34.13 C71.847,34.13 74.115,36.258 74.115,39.1 C74.115,41.928 71.847,44.098 68.851,44.098 C65.855,44.098 63.587,41.942 63.587,39.1 C63.587,36.244 65.855,34.13 68.851,34.13 Z M68.879,36.062 C67.227,36.062 65.855,37.378 65.855,39.1 C65.855,40.822 67.241,42.166 68.879,42.166 C70.517,42.166 71.847,40.822 71.847,39.1 C71.847,37.378 70.517,36.062 68.879,36.062 Z M75.571,34.2 L75.571,44 L77.685,44 L77.685,37.714 L82.431,44 L84.447,44 L84.447,34.2 L82.347,34.2 L82.347,40.5 L77.587,34.2 L75.571,34.2 Z M86.603,34.2 L86.603,44 L94.219,44 L94.219,42.166 L88.815,42.166 L88.815,39.996 L93.547,39.996 L93.547,38.162 L88.815,38.162 L88.815,36.034 L94.065,36.034 L94.065,34.2 L86.603,34.2 Z M98.363,34.2 L106.553,34.2 L106.553,36.076 L103.557,36.076 L103.557,44 L101.345,44 L101.345,36.076 L98.363,36.076 L98.363,34.2 Z M111.775,34.13 C114.771,34.13 117.039,36.258 117.039,39.1 C117.039,41.928 114.771,44.098 111.775,44.098 C108.779,44.098 106.511,41.942 106.511,39.1 C106.511,36.244 108.779,34.13 111.775,34.13 Z M111.803,36.062 C110.151,36.062 108.779,37.378 108.779,39.1 C108.779,40.822 110.165,42.166 111.803,42.166 C113.441,42.166 114.771,40.822 114.771,39.1 C114.771,37.378 113.441,36.062 111.803,36.062 Z M120.525,39.898 L120.525,34.2 L118.313,34.2 L118.313,39.898 C118.313,42.488 120.049,44.098 122.765,44.098 C125.467,44.098 127.161,42.488 127.161,39.898 L127.161,34.2 L124.949,34.2 L124.949,39.898 C124.949,41.312 124.081,42.166 122.765,42.166 C121.449,42.166 120.525,41.312 120.525,39.898 Z M136.233,37.322 L137.521,35.754 C136.555,34.76 135.071,34.13 133.657,34.13 C130.689,34.13 128.435,36.258 128.435,39.086 C128.435,41.928 130.647,44.098 133.573,44.098 C135.001,44.098 136.499,43.412 137.535,42.348 L136.233,40.934 C135.533,41.634 134.567,42.082 133.685,42.082 C132.005,42.082 130.703,40.766 130.703,39.058 C130.703,37.35 132.005,36.048 133.685,36.048 C134.595,36.048 135.561,36.552 136.233,37.322 Z M138.851,34.2 L138.851,44 L141.063,44 L141.063,40.136 L145.501,40.136 L145.501,44 L147.713,44 L147.713,34.2 L145.501,34.2 L145.501,38.288 L141.063,38.288 L141.063,34.2 L138.851,34.2 Z M153.243,34.2 L153.243,44 L155.455,44 L155.455,34.2 L153.243,34.2 Z M157.625,34.2 L157.625,44 L159.739,44 L159.739,37.714 L164.485,44 L166.501,44 L166.501,34.2 L164.401,34.2 L164.401,40.5 L159.641,34.2 L157.625,34.2 Z M167.691,34.2 L167.691,36.076 L170.673,36.076 L170.673,44 L172.885,44 L172.885,36.076 L175.881,36.076 L175.881,34.2 L167.691,34.2 Z M177.071,34.2 L177.071,44 L184.687,44 L184.687,42.166 L179.283,42.166 L179.283,39.996 L184.015,39.996 L184.015,38.162 L179.283,38.162 L179.283,36.034 L184.533,36.034 L184.533,34.2 L177.071,34.2 Z M194.949,44 L192.443,44 L190.889,41.2 L188.635,41.2 L188.635,44 L186.423,44 L186.423,34.2 L190.679,34.2 C193.241,34.2 194.697,35.432 194.697,37.602 C194.697,39.114 194.053,40.206 192.863,40.766 L194.949,44 Z M188.635,36.034 L188.635,39.352 L190.679,39.352 C191.897,39.352 192.597,38.792 192.597,37.672 C192.597,36.58 191.897,36.034 190.679,36.034 L188.635,36.034 Z M196.559,34.2 L203.601,34.2 L203.587,36.034 L198.771,36.034 L198.771,38.442 L203.195,38.442 L203.195,40.29 L198.771,40.29 L198.771,44 L196.559,44 L196.559,34.2 Z M211.679,44 L210.909,42.096 L206.373,42.096 L205.603,44 L203.321,44 L207.577,34.2 L209.859,34.2 L214.045,44 L211.679,44 Z M207.101,40.318 L210.195,40.318 L208.655,36.51 L207.101,40.318 Z M221.899,37.322 L223.187,35.754 C222.221,34.76 220.737,34.13 219.323,34.13 C216.355,34.13 214.101,36.258 214.101,39.086 C214.101,41.928 216.313,44.098 219.239,44.098 C220.667,44.098 222.165,43.412 223.201,42.348 L221.899,40.934 C221.199,41.634 220.233,42.082 219.351,42.082 C217.671,42.082 216.369,40.766 216.369,39.058 C216.369,37.35 217.671,36.048 219.351,36.048 C220.261,36.048 221.227,36.552 221.899,37.322 Z M224.517,34.2 L224.517,44 L232.133,44 L232.133,42.166 L226.729,42.166 L226.729,39.996 L231.461,39.996 L231.461,38.162 L226.729,38.162 L226.729,36.034 L231.979,36.034 L231.979,34.2 L224.517,34.2 Z" id="ONE-TOUCH-INTERFACE" fill="#3C3C3C"></path>
                <polygon id="Path" fill="#3C3C3C" points="32.8571429 112.5 45 121 45 104"></polygon>
            </g>
        </g>
    </g>
</svg>