<?xml version="1.0" encoding="UTF-8"?>
<svg width="204px" height="52px" viewBox="0 0 204 52" version="1.1" xmlns="http://www.w3.org/2000/svg" xmlns:xlink="http://www.w3.org/1999/xlink">
    <!-- Generator: Sketch 46 (44423) - http://www.bohemiancoding.com/sketch -->
    <title>Group 2</title>
    <desc>Created with Sketch.</desc>
    <defs></defs>
    <g id="Page-1" stroke="none" stroke-width="1" fill="none" fill-rule="evenodd">
        <g id="1" transform="translate(-736.000000, -560.000000)">
            <g id="Group-4" transform="translate(500.000000, 560.000000)">
                <g id="Group-2" transform="translate(236.000000, 0.000000)">
                    <rect id="Rectangle-1" stroke="#879BA3" stroke-width="0.96" x="0.48" y="0.48" width="202.24" height="50.88" rx="3.84"></rect>
                    <path d="M43.3811383,18.4788571 C46.4941714,18.4788571 48.4848274,21.49088 48.4848274,21.49088 C48.4848274,21.49088 45.4481554,23.1387429 45.4481554,26.7175086 C45.4481554,30.9650971 49.2629211,32.2006629 49.2629211,32.2006629 C49.2629211,32.2006629 46.2519223,39.3449371 42.8709669,39.3449371 C40.9698377,39.3449371 40.8427886,38.2512229 38.316288,38.2512229 C36.1222217,38.2512229 35.3823086,39.3449371 33.7109211,39.3449371 C30.5208686,39.3449371 26.4,32.38096 26.4,26.7175086 C26.4,20.8346514 30.5722149,18.4788571 33.187584,18.4788571 C35.4843429,18.4788571 36.440832,19.8304229 38.2906149,19.8304229 C39.8474606,19.8304229 41.0725303,18.4788571 43.3811383,18.4788571 L43.3811383,18.4788571 Z M42.845952,12.48 C43.3047771,15.3634286 40.689408,18.9296 37.5638674,18.8136 C37.104384,15.1446857 40.472832,12.6735543 42.845952,12.48 L42.845952,12.48 Z" id="Imported-Layers" fill="#8E8E8E"></path>
                    <text id="App-Store" font-family="Montserrat-Light, Montserrat" font-size="23.04" font-weight="300" fill="#879BA3">
                        <tspan x="62.56" y="34.16">App Store</tspan>
                    </text>
                </g>
            </g>
        </g>
    </g>
</svg>