<?xml version="1.0" encoding="UTF-8" standalone="no"?>
<svg width="204px" height="52px" viewBox="0 0 204 52" version="1.1" xmlns="http://www.w3.org/2000/svg" xmlns:xlink="http://www.w3.org/1999/xlink">
    <!-- Generator: Sketch 45.2 (43514) - http://www.bohemiancoding.com/sketch -->
    <title>ios</title>
    <desc>Created with Sketch.</desc>
    <defs></defs>
    <g id="Web" stroke="none" stroke-width="1" fill="none" fill-rule="evenodd">
        <g id="1" transform="translate(-736.000000, -560.000000)">
            <g id="ios" transform="translate(736.000000, 560.000000)">
                <rect id="Rectangle-1" stroke="#879BA3" stroke-width="0.96" x="0.48" y="0.48" width="202.24" height="50.88" rx="3.84"></rect>
                <path d="M43.3811383,18.4788571 C46.4941714,18.4788571 48.4848274,21.49088 48.4848274,21.49088 C48.4848274,21.49088 45.4481554,23.1387429 45.4481554,26.7175086 C45.4481554,30.9650971 49.2629211,32.2006629 49.2629211,32.2006629 C49.2629211,32.2006629 46.2519223,39.3449371 42.8709669,39.3449371 C40.9698377,39.3449371 40.8427886,38.2512229 38.316288,38.2512229 C36.1222217,38.2512229 35.3823086,39.3449371 33.7109211,39.3449371 C30.5208686,39.3449371 26.4,32.38096 26.4,26.7175086 C26.4,20.8346514 30.5722149,18.4788571 33.187584,18.4788571 C35.4843429,18.4788571 36.440832,19.8304229 38.2906149,19.8304229 C39.8474606,19.8304229 41.0725303,18.4788571 43.3811383,18.4788571 L43.3811383,18.4788571 Z M42.845952,12.48 C43.3047771,15.3634286 40.689408,18.9296 37.5638674,18.8136 C37.104384,15.1446857 40.472832,12.6735543 42.845952,12.48 L42.845952,12.48 Z" id="Imported-Layers" fill="#8E8E8E"></path>
                <path d="M81.794,30 L80.056,26.062 L71.674,26.062 L69.958,30 L68.088,30 L74.996,14.6 L76.822,14.6 L83.708,30 L81.794,30 Z M72.4,24.434 L79.352,24.434 L75.854,16.514 L72.4,24.434 Z M92.178,18.362 C95.456,18.362 97.744,20.782 97.744,24.236 C97.744,27.668 95.5,30.066 92.222,30.066 C90.154,30.066 88.57,29.12 87.712,27.514 L87.712,34.268 L85.996,34.268 L85.996,18.428 L87.712,18.428 L87.712,20.914 C88.57,19.308 90.154,18.362 92.178,18.362 Z M91.87,28.548 C94.29,28.548 96.006,26.722 96.006,24.192 C96.006,21.684 94.29,19.836 91.87,19.836 C89.428,19.836 87.712,21.662 87.712,24.192 C87.712,26.744 89.428,28.548 91.87,28.548 Z M107.05,18.362 C110.328,18.362 112.616,20.782 112.616,24.236 C112.616,27.668 110.372,30.066 107.094,30.066 C105.026,30.066 103.442,29.12 102.584,27.514 L102.584,34.268 L100.868,34.268 L100.868,18.428 L102.584,18.428 L102.584,20.914 C103.442,19.308 105.026,18.362 107.05,18.362 Z M106.742,28.548 C109.162,28.548 110.878,26.722 110.878,24.192 C110.878,21.684 109.162,19.836 106.742,19.836 C104.3,19.836 102.584,21.662 102.584,24.192 C102.584,26.744 104.3,28.548 106.742,28.548 Z M130.612,17.526 L131.36,15.964 C130.084,15.106 128.258,14.534 126.476,14.534 C123.286,14.534 121.152,16.074 121.152,18.494 C121.152,24.016 129.82,21.838 129.798,25.952 C129.798,27.448 128.412,28.35 126.19,28.35 C124.452,28.35 122.494,27.558 121.064,26.194 L120.272,27.712 C121.724,29.098 123.924,30.066 126.168,30.066 C129.468,30.066 131.734,28.416 131.734,25.864 C131.756,20.276 123.088,22.366 123.088,18.362 C123.088,17.042 124.386,16.25 126.366,16.25 C127.598,16.25 129.226,16.624 130.612,17.526 Z M140.6,27.888 C139.962,28.262 139.346,28.46 138.752,28.482 C137.762,28.482 137.212,27.91 137.212,26.502 L137.212,20.122 L140.886,20.122 L140.886,18.78 L137.212,18.78 L137.212,15.744 L135.518,15.744 L135.518,18.78 L133.846,18.78 L133.846,20.122 L135.518,20.122 L135.518,26.788 C135.518,29.076 136.772,30.088 138.466,30.066 C139.39,30.066 140.27,29.758 141.084,29.208 L140.6,27.888 Z M148.212,18.362 C151.644,18.362 154.086,20.76 154.086,24.192 C154.086,27.668 151.644,30.066 148.212,30.066 C144.78,30.066 142.338,27.668 142.338,24.192 C142.338,20.76 144.78,18.362 148.212,18.362 Z M148.212,19.88 C145.792,19.88 144.054,21.662 144.054,24.214 C144.054,26.81 145.792,28.57 148.212,28.57 C150.632,28.57 152.37,26.81 152.37,24.214 C152.37,21.662 150.632,19.88 148.212,19.88 Z M158.816,21.002 L158.816,18.428 L157.1,18.428 L157.1,30 L158.816,30 L158.816,23.84 C159.014,21.508 160.532,19.99 162.974,20.034 L162.974,18.362 C161.016,18.384 159.586,19.308 158.816,21.002 Z M169.86,18.362 C173.6,18.362 175.448,20.936 175.272,24.852 L165.812,24.852 C166.098,27.14 167.748,28.636 170.014,28.636 C171.444,28.636 172.698,28.108 173.6,27.162 L174.546,28.152 C173.446,29.362 171.818,30.066 169.882,30.066 C166.472,30.066 164.118,27.668 164.118,24.214 C164.118,20.76 166.494,18.384 169.86,18.362 Z M165.812,23.488 L173.732,23.488 C173.622,21.244 172.126,19.792 169.86,19.792 C167.638,19.792 166.054,21.244 165.812,23.488 Z" id="App-Store" fill="#879BA3"></path>
                <path d="M94.99,39.91 L95.68,39.05 C95,38.38 94.01,37.97 93.02,37.97 C90.95,37.97 89.34,39.5 89.34,41.49 C89.34,43.5 90.93,45.05 92.98,45.05 C93.97,45.05 94.98,44.6 95.69,43.9 L94.99,43.12 C94.46,43.63 93.74,43.95 93.04,43.95 C91.64,43.95 90.54,42.86 90.54,41.48 C90.54,40.1 91.64,39.02 93.04,39.02 C93.75,39.02 94.48,39.36 94.99,39.91 Z M98.95,39.64 C100.59,39.64 101.72,40.73 101.72,42.34 C101.72,43.94 100.59,45.04 98.95,45.04 C97.3,45.04 96.17,43.94 96.17,42.34 C96.17,40.73 97.3,39.64 98.95,39.64 Z M98.95,40.63 C97.99,40.63 97.32,41.33 97.32,42.35 C97.32,43.38 97.99,44.08 98.95,44.08 C99.9,44.08 100.57,43.38 100.57,42.35 C100.57,41.33 99.9,40.63 98.95,40.63 Z M109.86,39.64 C108.89,39.64 108.18,40.03 107.84,40.92 C107.59,40.11 106.94,39.64 105.99,39.64 C105.11,39.64 104.43,39.96 104.06,40.71 L104.06,39.68 L102.92,39.68 L102.92,45 L104.06,45 L104.06,42.37 C104.06,41.44 104.62,40.74 105.54,40.71 C106.32,40.71 106.79,41.2 106.79,42.01 L106.79,45 L107.94,45 L107.94,42.37 C107.94,41.44 108.49,40.74 109.4,40.71 C110.18,40.71 110.66,41.2 110.66,42.01 L110.66,45 L111.81,45 L111.81,41.69 C111.81,40.42 111.08,39.64 109.86,39.64 Z M113.92,37.46 C113.54,37.46 113.25,37.75 113.25,38.16 C113.25,38.56 113.54,38.85 113.92,38.85 C114.3,38.85 114.59,38.56 114.59,38.16 C114.59,37.75 114.3,37.46 113.92,37.46 Z M113.35,39.68 L113.35,45 L114.49,45 L114.49,39.68 L113.35,39.68 Z M119.3,39.64 C118.4,39.64 117.72,39.96 117.34,40.7 L117.34,39.68 L116.19,39.68 L116.19,45 L117.34,45 L117.34,42.17 C117.42,41.34 117.97,40.73 118.85,40.72 C119.65,40.72 120.13,41.21 120.13,42.01 L120.13,45 L121.28,45 L121.28,41.69 C121.28,40.42 120.54,39.64 119.3,39.64 Z M126.48,39.68 L127.62,39.68 L127.62,44.48 C127.62,46.01 126.53,46.97 124.86,46.97 C124.03,46.97 123.3,46.71 122.65,46.27 L123.14,45.44 C123.64,45.81 124.16,46.02 124.81,46.02 C125.82,46.02 126.48,45.43 126.48,44.51 L126.48,43.84 C126.12,44.42 125.52,44.74 124.72,44.74 C123.28,44.74 122.32,43.7 122.32,42.17 C122.32,40.67 123.27,39.65 124.68,39.64 C125.5,39.63 126.11,39.96 126.48,40.54 L126.48,39.68 Z M124.95,43.84 C125.85,43.84 126.48,43.16 126.48,42.2 C126.48,41.24 125.85,40.57 124.95,40.57 C124.04,40.57 123.41,41.25 123.4,42.2 C123.41,43.16 124.03,43.84 124.95,43.84 Z M136.13,39.71 L136.62,38.67 C135.97,38.24 135.08,37.95 134.17,37.95 C132.65,37.95 131.62,38.7 131.62,39.9 C131.62,42.39 135.4,41.52 135.4,43.08 C135.4,43.62 134.91,43.93 134.09,43.93 C133.34,43.93 132.44,43.57 131.72,42.91 L131.21,43.93 C131.93,44.59 132.97,45.04 134.07,45.04 C135.61,45.04 136.71,44.27 136.71,43.02 C136.72,40.5 132.94,41.32 132.94,39.79 C132.94,39.32 133.39,39.06 134.08,39.06 C134.61,39.06 135.37,39.25 136.13,39.71 Z M140.3,39.64 C141.94,39.64 143.07,40.73 143.07,42.34 C143.07,43.94 141.94,45.04 140.3,45.04 C138.65,45.04 137.52,43.94 137.52,42.34 C137.52,40.73 138.65,39.64 140.3,39.64 Z M140.3,40.63 C139.34,40.63 138.67,41.33 138.67,42.35 C138.67,43.38 139.34,44.08 140.3,44.08 C141.25,44.08 141.92,43.38 141.92,42.35 C141.92,41.33 141.25,40.63 140.3,40.63 Z M146.55,39.64 C148.19,39.64 149.32,40.73 149.32,42.34 C149.32,43.94 148.19,45.04 146.55,45.04 C144.9,45.04 143.77,43.94 143.77,42.34 C143.77,40.73 144.9,39.64 146.55,39.64 Z M146.55,40.63 C145.59,40.63 144.92,41.33 144.92,42.35 C144.92,43.38 145.59,44.08 146.55,44.08 C147.5,44.08 148.17,43.38 148.17,42.35 C148.17,41.33 147.5,40.63 146.55,40.63 Z M153.63,39.64 C152.73,39.64 152.05,39.96 151.67,40.7 L151.67,39.68 L150.52,39.68 L150.52,45 L151.67,45 L151.67,42.17 C151.75,41.34 152.3,40.73 153.18,40.72 C153.98,40.72 154.46,41.21 154.46,42.01 L154.46,45 L155.61,45 L155.61,41.69 C155.61,40.42 154.87,39.64 153.63,39.64 Z" id="Coming-Soon" fill="#879BA3"></path>
            </g>
        </g>
    </g>
</svg>