<?xml version="1.0" encoding="UTF-8" standalone="no"?>
<svg width="195px" height="40px" viewBox="0 0 195 40" version="1.1" xmlns="http://www.w3.org/2000/svg" xmlns:xlink="http://www.w3.org/1999/xlink">
    <!-- Generator: Sketch 45.2 (43514) - http://www.bohemiancoding.com/sketch -->
    <title>googleBlack</title>
    <desc>Created with Sketch.</desc>
    <defs>
        <linearGradient x1="19.2147947%" y1="-35.1571758%" x2="69.3023416%" y2="93.5367562%" id="linearGradient-1">
            <stop stop-color="#19A3B4" offset="0%"></stop>
            <stop stop-color="#5BC3AF" offset="34.816763%"></stop>
            <stop stop-color="#C8F7A6" offset="92.2336229%"></stop>
            <stop stop-color="#D7FEA5" offset="100%"></stop>
        </linearGradient>
        <path d="M13.96212,6.6463789 L2.15799666,0.198737411 C1.82329662,0.0168273079 1.51459808,-0.0254901481 1.2645412,0.0520002584 L10.933223,9.65586447 L13.96212,6.6463789" id="path-2"></path>
        <linearGradient x1="-14.698314%" y1="-114.321644%" x2="74.8444046%" y2="114.156353%" id="linearGradient-4">
            <stop stop-color="#FC227C" offset="0%"></stop>
            <stop stop-color="#FEEB7B" offset="100%"></stop>
        </linearGradient>
        <linearGradient x1="28.1511582%" y1="-14.8137139%" x2="48.1878808%" y2="82.8944571%" id="linearGradient-5">
            <stop stop-color="#0E4DA0" offset="0%"></stop>
            <stop stop-color="#6BFED4" offset="100%"></stop>
        </linearGradient>
        <path d="M1.26398797,0.0520002584 C0.904946118,0.163564461 0.672592375,0.524636781 0.672592375,1.07091667 L0.674805268,18.2638945 C0.674805268,18.8041291 0.899967109,19.1597056 1.24849772,19.2784143 L10.933223,9.65751321 L1.26398797,0.0520002584" id="path-6"></path>
        <linearGradient x1="132.244588%" y1="16.465744%" x2="5.95853392%" y2="126.310354%" id="linearGradient-8">
            <stop stop-color="#FC472E" offset="0%"></stop>
            <stop stop-color="#FC472F" offset="0.331892433%"></stop>
            <stop stop-color="#893CD8" offset="100%"></stop>
        </linearGradient>
        <path d="M1.24849772,19.2784143 C1.50021428,19.3630492 1.81499828,19.3234797 2.15799666,19.1366234 L13.9759506,12.6801886 L10.933223,9.65751321 L1.24849772,19.2784143" id="path-9"></path>
    </defs>
    <g id="Web" stroke="none" stroke-width="1" fill="none" fill-rule="evenodd">
        <g id="2" transform="translate(-1027.000000, -20.000000)">
            <g id="googleBlack" transform="translate(1027.000000, 20.000000)">
                <rect id="Rectangle-1-Copy" fill="#000000" x="0" y="0" width="195" height="40" rx="3.368448"></rect>
                <g id="Google-Play-Icon" transform="translate(16.000000, 10.000000)">
                    <mask id="mask-3" fill="white">
                        <use xlink:href="#path-2"></use>
                    </mask>
                    <use id="Fill-1" fill="url(#linearGradient-1)" xlink:href="#path-2"></use>
                    <path d="M13.9776103,12.6801886 L18.007288,10.4791313 C18.8243987,10.0312258 18.8243987,9.30248624 18.007288,8.85567985 L13.9626732,6.6463789 L10.933223,9.65586447 L13.9776103,12.6801886" id="Fill-2" fill="url(#linearGradient-4)"></path>
                    <mask id="mask-7" fill="white">
                        <use xlink:href="#path-6"></use>
                    </mask>
                    <use id="Fill-3" fill="url(#linearGradient-5)" xlink:href="#path-6"></use>
                    <mask id="mask-10" fill="white">
                        <use xlink:href="#path-9"></use>
                    </mask>
                    <use id="Fill-4" fill="url(#linearGradient-8)" xlink:href="#path-9"></use>
                </g>
                <path d="M53.848,26 L49.064,19.68 L53.512,14.8 L51.992,14.8 L45.976,21.312 L45.976,14.8 L44.696,14.8 L44.696,26 L45.976,26 L45.976,23.072 L48.152,20.672 L52.28,26 L53.848,26 Z M56.952,19.456 L56.952,17.584 L55.704,17.584 L55.704,26 L56.952,26 L56.952,21.52 C57.096,19.824 58.2,18.72 59.976,18.752 L59.976,17.536 C58.552,17.552 57.512,18.224 56.952,19.456 Z M67.72,17.584 L67.72,21.712 C67.72,23.536 66.696,24.816 64.952,24.848 C63.496,24.848 62.616,23.952 62.616,22.448 L62.616,17.584 L61.368,17.584 L61.368,22.768 C61.368,24.8 62.552,26.048 64.52,26.048 C66.04,26.032 67.16,25.408 67.72,24.096 L67.72,26 L68.968,26 L68.968,17.584 L67.72,17.584 Z M71.464,17.584 L71.464,18.624 L76.6,18.64 L71.32,25.072 L71.32,26 L78.232,26.016 L78.232,24.96 L72.824,24.944 L78.104,18.512 L78.104,17.584 L71.464,17.584 Z M81.448,19.456 L81.448,17.584 L80.2,17.584 L80.2,26 L81.448,26 L81.448,21.52 C81.592,19.824 82.696,18.72 84.472,18.752 L84.472,17.536 C83.048,17.552 82.008,18.224 81.448,19.456 Z M93.512,15.2 C92.696,15.184 92.024,15.744 92.024,16.736 L92.024,17.84 L94.44,17.84 L94.44,18.816 L92.024,18.816 L92.024,26 L90.792,26 L90.792,18.816 L89.704,18.816 L89.704,17.84 L90.792,17.84 L90.792,16.896 C90.792,15.072 92.088,14.064 93.496,14.08 C94.136,14.08 94.792,14.288 95.304,14.672 L94.792,15.632 C94.408,15.36 93.944,15.2 93.512,15.2 Z M98.984,17.536 C101.48,17.536 103.256,19.28 103.256,21.776 C103.256,24.304 101.48,26.048 98.984,26.048 C96.488,26.048 94.712,24.304 94.712,21.776 C94.712,19.28 96.488,17.536 98.984,17.536 Z M98.984,18.64 C97.224,18.64 95.96,19.936 95.96,21.792 C95.96,23.68 97.224,24.96 98.984,24.96 C100.744,24.96 102.008,23.68 102.008,21.792 C102.008,19.936 100.744,18.64 98.984,18.64 Z M106.696,19.456 L106.696,17.584 L105.448,17.584 L105.448,26 L106.696,26 L106.696,21.52 C106.84,19.824 107.944,18.72 109.72,18.752 L109.72,17.536 C108.296,17.552 107.256,18.224 106.696,19.456 Z M124.296,26 L123.032,23.136 L116.936,23.136 L115.688,26 L114.328,26 L119.352,14.8 L120.68,14.8 L125.688,26 L124.296,26 Z M117.464,21.952 L122.52,21.952 L119.976,16.192 L117.464,21.952 Z M131.784,17.536 C130.248,17.552 129.112,18.16 128.52,19.44 L128.52,17.584 L127.272,17.584 L127.272,26 L128.52,26 L128.52,21.488 C128.664,19.856 129.688,18.752 131.352,18.736 C132.84,18.736 133.736,19.632 133.736,21.136 L133.736,26 L134.984,26 L134.984,20.816 C134.984,18.768 133.8,17.536 131.784,17.536 Z M144.264,14.128 L145.512,14.128 L145.512,26 L144.264,26 L144.264,24.192 C143.64,25.376 142.488,26.064 140.984,26.064 C138.584,26.064 136.92,24.288 136.92,21.776 C136.92,19.264 138.584,17.52 140.968,17.52 C142.472,17.52 143.64,18.208 144.264,19.408 L144.264,14.128 Z M141.224,24.992 C143,24.992 144.264,23.664 144.264,21.808 C144.264,19.952 143,18.608 141.224,18.608 C139.432,18.608 138.168,19.952 138.168,21.808 C138.168,23.664 139.432,24.992 141.224,24.992 Z M149.88,19.456 L149.88,17.584 L148.632,17.584 L148.632,26 L149.88,26 L149.88,21.52 C150.024,19.824 151.128,18.72 152.904,18.752 L152.904,17.536 C151.48,17.552 150.44,18.224 149.88,19.456 Z M158.008,17.536 C160.504,17.536 162.28,19.28 162.28,21.776 C162.28,24.304 160.504,26.048 158.008,26.048 C155.512,26.048 153.736,24.304 153.736,21.776 C153.736,19.28 155.512,17.536 158.008,17.536 Z M158.008,18.64 C156.248,18.64 154.984,19.936 154.984,21.792 C154.984,23.68 156.248,24.96 158.008,24.96 C159.768,24.96 161.032,23.68 161.032,21.792 C161.032,19.936 159.768,18.64 158.008,18.64 Z M165.08,14.32 C164.616,14.32 164.264,14.672 164.264,15.168 C164.264,15.648 164.616,16.016 165.08,16.016 C165.544,16.016 165.896,15.648 165.896,15.168 C165.896,14.672 165.544,14.32 165.08,14.32 Z M164.472,17.584 L164.472,26 L165.704,26 L165.704,17.584 L164.472,17.584 Z M175.24,14.128 L176.488,14.128 L176.488,26 L175.24,26 L175.24,24.192 C174.616,25.376 173.464,26.064 171.96,26.064 C169.56,26.064 167.896,24.288 167.896,21.776 C167.896,19.264 169.56,17.52 171.944,17.52 C173.448,17.52 174.616,18.208 175.24,19.408 L175.24,14.128 Z M172.2,24.992 C173.976,24.992 175.24,23.664 175.24,21.808 C175.24,19.952 173.976,18.608 172.2,18.608 C170.408,18.608 169.144,19.952 169.144,21.808 C169.144,23.664 170.408,24.992 172.2,24.992 Z" id="Kruzr-for-Android" fill="#FFFFFF"></path>
            </g>
        </g>
    </g>
</svg>