<?xml version="1.0" encoding="UTF-8" standalone="no"?>
<svg width="156px" height="40px" viewBox="0 0 156 40" version="1.1" xmlns="http://www.w3.org/2000/svg" xmlns:xlink="http://www.w3.org/1999/xlink">
    <!-- Generator: Sketch 45.2 (43514) - http://www.bohemiancoding.com/sketch -->
    <title>iOSBlack</title>
    <desc>Created with Sketch.</desc>
    <defs></defs>
    <g id="Web" stroke="none" stroke-width="1" fill="none" fill-rule="evenodd">
        <g id="2" transform="translate(-1238.000000, -20.000000)">
            <g id="iOSBlack" transform="translate(1238.000000, 20.000000)">
                <rect id="Rectangle-1" fill="#000000" x="0" y="0" width="156" height="40" rx="3.368448"></rect>
                <path d="M28.503832,14.465938 C30.7960719,14.465938 32.2618646,16.708283 32.2618646,16.708283 C32.2618646,16.708283 30.0258521,17.9350588 30.0258521,20.5993239 C30.0258521,23.7615041 32.8348034,24.6813393 32.8348034,24.6813393 C32.8348034,24.6813393 30.617695,30 28.1281741,30 C26.7283033,30 26.6347524,29.1857682 24.7743978,29.1857682 C23.1588267,29.1857682 22.6140017,30 21.3832981,30 C19.0343459,30 16,24.8155642 16,20.5993239 C16,16.2197439 19.0721541,14.465938 20.9979459,14.465938 C22.6891332,14.465938 23.3934311,15.4721311 24.7554938,15.4721311 C25.9018561,15.4721311 26.8039196,14.465938 28.503832,14.465938 L28.503832,14.465938 Z M28.1097548,10 C28.4476045,12.1466111 26.5218127,14.8015002 24.2203631,14.7151422 C23.8820287,11.9837647 26.3623399,10.1440944 28.1097548,10 L28.1097548,10 Z" id="Imported-Layers" fill="#FFFFFF"></path>
                <path d="M51.848,22 L47.064,15.68 L51.512,10.8 L49.992,10.8 L43.976,17.312 L43.976,10.8 L42.696,10.8 L42.696,22 L43.976,22 L43.976,19.072 L46.152,16.672 L50.28,22 L51.848,22 Z M54.952,15.456 L54.952,13.584 L53.704,13.584 L53.704,22 L54.952,22 L54.952,17.52 C55.096,15.824 56.2,14.72 57.976,14.752 L57.976,13.536 C56.552,13.552 55.512,14.224 54.952,15.456 Z M65.72,13.584 L65.72,17.712 C65.72,19.536 64.696,20.816 62.952,20.848 C61.496,20.848 60.616,19.952 60.616,18.448 L60.616,13.584 L59.368,13.584 L59.368,18.768 C59.368,20.8 60.552,22.048 62.52,22.048 C64.04,22.032 65.16,21.408 65.72,20.096 L65.72,22 L66.968,22 L66.968,13.584 L65.72,13.584 Z M69.464,13.584 L69.464,14.624 L74.6,14.64 L69.32,21.072 L69.32,22 L76.232,22.016 L76.232,20.96 L70.824,20.944 L76.104,14.512 L76.104,13.584 L69.464,13.584 Z M79.448,15.456 L79.448,13.584 L78.2,13.584 L78.2,22 L79.448,22 L79.448,17.52 C79.592,15.824 80.696,14.72 82.472,14.752 L82.472,13.536 C81.048,13.552 80.008,14.224 79.448,15.456 Z M91.512,11.2 C90.696,11.184 90.024,11.744 90.024,12.736 L90.024,13.84 L92.44,13.84 L92.44,14.816 L90.024,14.816 L90.024,22 L88.792,22 L88.792,14.816 L87.704,14.816 L87.704,13.84 L88.792,13.84 L88.792,12.896 C88.792,11.072 90.088,10.064 91.496,10.08 C92.136,10.08 92.792,10.288 93.304,10.672 L92.792,11.632 C92.408,11.36 91.944,11.2 91.512,11.2 Z M96.984,13.536 C99.48,13.536 101.256,15.28 101.256,17.776 C101.256,20.304 99.48,22.048 96.984,22.048 C94.488,22.048 92.712,20.304 92.712,17.776 C92.712,15.28 94.488,13.536 96.984,13.536 Z M96.984,14.64 C95.224,14.64 93.96,15.936 93.96,17.792 C93.96,19.68 95.224,20.96 96.984,20.96 C98.744,20.96 100.008,19.68 100.008,17.792 C100.008,15.936 98.744,14.64 96.984,14.64 Z M104.696,15.456 L104.696,13.584 L103.448,13.584 L103.448,22 L104.696,22 L104.696,17.52 C104.84,15.824 105.944,14.72 107.72,14.752 L107.72,13.536 C106.296,13.552 105.256,14.224 104.696,15.456 Z M114.392,10.32 C113.928,10.32 113.576,10.672 113.576,11.168 C113.576,11.648 113.928,12.016 114.392,12.016 C114.856,12.016 115.208,11.648 115.208,11.168 C115.208,10.672 114.856,10.32 114.392,10.32 Z M113.784,13.584 L113.784,22 L115.016,22 L115.016,13.584 L113.784,13.584 Z M123.048,10.768 C126.312,10.768 128.904,13.248 128.904,16.4 C128.904,19.552 126.312,22.048 123.048,22.048 C119.768,22.048 117.176,19.552 117.176,16.4 C117.176,13.248 119.768,10.768 123.048,10.768 Z M123.048,11.952 C120.552,11.952 118.472,13.92 118.472,16.4 C118.472,18.88 120.552,20.88 123.048,20.88 C125.544,20.88 127.592,18.88 127.592,16.4 C127.592,13.92 125.544,11.952 123.048,11.952 Z M137.576,12.928 L138.12,11.792 C137.192,11.168 135.864,10.752 134.568,10.752 C132.248,10.752 130.696,11.872 130.696,13.632 C130.696,17.648 137,16.064 136.984,19.056 C136.984,20.144 135.976,20.8 134.36,20.8 C133.096,20.8 131.672,20.224 130.632,19.232 L130.056,20.336 C131.112,21.344 132.712,22.048 134.344,22.048 C136.744,22.048 138.392,20.848 138.392,18.992 C138.408,14.928 132.104,16.448 132.104,13.536 C132.104,12.576 133.048,12 134.488,12 C135.384,12 136.568,12.272 137.576,12.928 Z" id="Kruzr-for-iOS" fill="#FFFFFF"></path>
                <path d="M68.68,28.664 L69.064,28.2 C68.528,27.696 67.784,27.384 67.016,27.384 C65.392,27.384 64.096,28.624 64.096,30.192 C64.096,31.776 65.376,33.024 66.992,33.024 C67.768,33.024 68.52,32.696 69.072,32.176 L68.68,31.752 C68.24,32.168 67.64,32.424 67.024,32.424 C65.76,32.424 64.744,31.424 64.744,30.192 C64.744,28.952 65.76,27.968 67.024,27.968 C67.64,27.968 68.248,28.232 68.68,28.664 Z M71.712,28.768 C72.96,28.768 73.848,29.64 73.848,30.888 C73.848,32.152 72.96,33.024 71.712,33.024 C70.464,33.024 69.576,32.152 69.576,30.888 C69.576,29.64 70.464,28.768 71.712,28.768 Z M71.712,29.32 C70.832,29.32 70.2,29.968 70.2,30.896 C70.2,31.84 70.832,32.48 71.712,32.48 C72.592,32.48 73.224,31.84 73.224,30.896 C73.224,29.968 72.592,29.32 71.712,29.32 Z M80.344,28.768 C79.536,28.776 78.944,29.128 78.68,29.864 C78.504,29.168 77.96,28.768 77.168,28.768 C76.408,28.776 75.84,29.088 75.56,29.744 L75.56,28.792 L74.944,28.792 L74.944,33 L75.56,33 L75.56,30.928 C75.56,30.016 76.08,29.384 76.944,29.36 C77.68,29.36 78.112,29.808 78.112,30.568 L78.112,33 L78.744,33 L78.744,30.928 C78.744,30.016 79.248,29.384 80.12,29.36 C80.848,29.36 81.288,29.808 81.288,30.568 L81.288,33 L81.912,33 L81.912,30.408 C81.912,29.384 81.328,28.768 80.344,28.768 Z M83.6,27.16 C83.368,27.16 83.192,27.336 83.192,27.584 C83.192,27.824 83.368,28.008 83.6,28.008 C83.832,28.008 84.008,27.824 84.008,27.584 C84.008,27.336 83.832,27.16 83.6,27.16 Z M83.296,28.792 L83.296,33 L83.912,33 L83.912,28.792 L83.296,28.792 Z M87.688,28.768 C86.92,28.776 86.352,29.08 86.056,29.72 L86.056,28.792 L85.432,28.792 L85.432,33 L86.056,33 L86.056,30.744 C86.128,29.928 86.64,29.376 87.472,29.368 C88.216,29.368 88.664,29.816 88.664,30.568 L88.664,33 L89.288,33 L89.288,30.408 C89.288,29.384 88.696,28.768 87.688,28.768 Z M93.728,28.792 L94.352,28.792 L94.352,32.56 C94.352,33.792 93.512,34.568 92.232,34.568 C91.568,34.56 91.016,34.344 90.504,33.952 L90.792,33.496 C91.208,33.84 91.648,34.024 92.208,34.032 C93.128,34.032 93.728,33.464 93.728,32.576 L93.728,31.936 C93.432,32.496 92.888,32.816 92.176,32.816 C91.04,32.816 90.256,31.976 90.256,30.784 C90.256,29.6 91.032,28.776 92.16,28.768 C92.88,28.76 93.424,29.088 93.728,29.648 L93.728,28.792 Z M92.288,32.304 C93.128,32.304 93.728,31.672 93.728,30.8 C93.728,29.92 93.128,29.288 92.288,29.288 C91.44,29.288 90.848,29.92 90.84,30.8 C90.848,31.672 91.44,32.304 92.288,32.304 Z M101.216,28.464 L101.488,27.896 C101.024,27.584 100.36,27.376 99.712,27.376 C98.552,27.376 97.776,27.936 97.776,28.816 C97.776,30.824 100.928,30.032 100.92,31.528 C100.92,32.072 100.416,32.4 99.608,32.4 C98.976,32.4 98.264,32.112 97.744,31.616 L97.456,32.168 C97.984,32.672 98.784,33.024 99.6,33.024 C100.8,33.024 101.624,32.424 101.624,31.496 C101.632,29.464 98.48,30.224 98.48,28.768 C98.48,28.288 98.952,28 99.672,28 C100.12,28 100.712,28.136 101.216,28.464 Z M104.56,28.768 C105.808,28.768 106.696,29.64 106.696,30.888 C106.696,32.152 105.808,33.024 104.56,33.024 C103.312,33.024 102.424,32.152 102.424,30.888 C102.424,29.64 103.312,28.768 104.56,28.768 Z M104.56,29.32 C103.68,29.32 103.048,29.968 103.048,30.896 C103.048,31.84 103.68,32.48 104.56,32.48 C105.44,32.48 106.072,31.84 106.072,30.896 C106.072,29.968 105.44,29.32 104.56,29.32 Z M109.504,28.768 C110.752,28.768 111.64,29.64 111.64,30.888 C111.64,32.152 110.752,33.024 109.504,33.024 C108.256,33.024 107.368,32.152 107.368,30.888 C107.368,29.64 108.256,28.768 109.504,28.768 Z M109.504,29.32 C108.624,29.32 107.992,29.968 107.992,30.896 C107.992,31.84 108.624,32.48 109.504,32.48 C110.384,32.48 111.016,31.84 111.016,30.896 C111.016,29.968 110.384,29.32 109.504,29.32 Z M114.992,28.768 C114.224,28.776 113.656,29.08 113.36,29.72 L113.36,28.792 L112.736,28.792 L112.736,33 L113.36,33 L113.36,30.744 C113.432,29.928 113.944,29.376 114.776,29.368 C115.52,29.368 115.968,29.816 115.968,30.568 L115.968,33 L116.592,33 L116.592,30.408 C116.592,29.384 116,28.768 114.992,28.768 Z" id="Coming-Soon" fill="#FFFFFF" opacity="0.8"></path>
            </g>
        </g>
    </g>
</svg>