<?xml version="1.0" encoding="UTF-8" standalone="no"?>
<svg width="57px" height="57px" viewBox="0 0 57 57" version="1.1" xmlns="http://www.w3.org/2000/svg" xmlns:xlink="http://www.w3.org/1999/xlink">
    <!-- Generator: Sketch 45.2 (43514) - http://www.bohemiancoding.com/sketch -->
    <title>logo_curved</title>
    <desc>Created with Sketch.</desc>
    <defs>
        <path d="M36.6035504,18.3119724 C36.6035504,28.4253736 28.410587,36.6239448 18.3041033,36.6239448 C8.19761959,36.6239448 0.0046561933,28.4253736 0.0046561933,18.3119724 C0.0046561933,8.19857117 8.19761959,0 18.3041033,0 C28.410587,0 36.6035504,8.19857117 36.6035504,18.3119724 Z" id="path-1"></path>
    </defs>
    <g id="Logo" stroke="none" stroke-width="1" fill="none" fill-rule="evenodd">
        <g id="logo_curved">
            <g id="App-Icon">
                <rect id="BG" fill="#042333" x="0" y="0" width="57" height="57" rx="3.48800256"></rect>
                <path d="M15.724875,0 L53.4375,0 C55.4057813,0 57,1.59421875 57,3.5625 L57,7.2496875 L39.9872813,24.2624063 L15.724875,0 Z M20.5752187,14.9250937 L0,35.5003125 L0,53.4375 C0,55.4057812 1.59421875,57 3.5625,57 L7.2496875,57 L34.9499062,29.2997812 L20.5752187,14.9250937 Z M57,12.2870625 L42.5059688,26.7810938 L57,41.275125 L57,12.2870625 Z M18.0565312,12.4064062 L5.650125,0 L3.5625,0 C1.59421875,0 0,1.59421875 0,3.5625 L0,30.4629375 L18.0565312,12.4064062 Z M37.4685938,31.8255937 L12.2870625,57 L53.4375,57 C55.4057813,57 57,55.4057812 57,53.4375 L57,51.349875 L37.4685938,31.8255937 Z" id="Map" fill="#4EB2C2" fill-rule="nonzero" opacity="0.15"></path>
                <g id="Steering-Wheel-+-K" transform="translate(10.186523, 10.242188)">
                    <g id="Stroke-22">
                        <use fill="#042333" fill-rule="evenodd" xlink:href="#path-1"></use>
                        <path stroke="#FFFFFF" stroke-width="1.15344" d="M36.0268304,18.3119724 C36.0268304,8.51699653 28.0919849,0.57672 18.3041033,0.57672 C8.51622162,0.57672 0.581376193,8.51699653 0.581376193,18.3119724 C0.581376193,28.1069482 8.51622162,36.0472248 18.3041033,36.0472248 C28.0919849,36.0472248 36.0268304,28.1069482 36.0268304,18.3119724 Z"></path>
                    </g>
                    <path d="M12.8583984,9.64951873 C12.8583984,9.26578006 13.2069709,9.07324219 13.9047835,9.07324219 L14.1137934,9.07324219 C14.8109383,9.07324219 15.1601785,9.26578006 15.1601785,9.64951873 L15.1601785,17.6578908 L15.5020733,17.6578908 C15.5020733,17.6578908 19.4926267,12.560317 21.4879034,10.0118643 C21.6368146,9.82133204 21.9353048,9.44026751 21.9353048,9.44026751 C22.1269528,9.19558396 22.5977259,9.07324219 23.3476241,9.07324219 L23.6087196,9.07324219 C24.2190552,9.07324219 24.524223,9.18689301 24.524223,9.41352613 C24.524223,9.57063169 24.436746,9.74511914 24.2624598,9.93698847 L17.7250573,18.1024661 L25.6487364,26.7131876 C25.8056608,26.8876751 25.8837891,27.0273987 25.8837891,27.1316901 C25.8837891,27.3763736 25.5004929,27.4980469 24.7332329,27.4980469 L24.4193842,27.4980469 C23.6701538,27.4980469 23.1906997,27.3850646 22.9810221,27.1577629 L15.5020733,18.7308884 L15.1601785,18.7308884 L15.1601785,26.9224389 C15.1601785,27.3061775 14.8109383,27.4980469 14.1137934,27.4980469 L13.9047835,27.4980469 C13.2069709,27.4980469 12.8583984,27.3061775 12.8583984,26.9224389 L12.8583984,9.64951873" id="Fill-21" fill="#FFFFFF"></path>
                    <path d="M0.0046561933,18.3119724 C0.0046561933,18.3119724 2.01362704,17.9449508 2.22406917,16.0902882 C2.43451131,14.2356256 3.66710098,10.8827928 4.75313273,9.41621054 L2.91927981,8.39336339 C2.91927981,8.39336339 -0.135137513,12.8743364 0.0046561933,18.3119724" id="Fill-23" fill="#FFFFFF"></path>
                    <path d="M9.08297973,2.52101739 C9.08297973,2.52101739 9.75714615,4.4501372 8.25023012,5.54969789 C6.74256252,6.64850648 4.53066533,9.42974822 3.79336626,11.0993958 L2.00085019,10.014877 C2.00085019,10.014877 4.29016002,5.0856562 9.08297973,2.52101739" id="Fill-24" fill="#FFFFFF"></path>
                    <path d="M36.5697293,18.2518049 C36.5697293,18.2518049 34.5021353,17.8697414 34.2916932,16.0150788 C34.081251,14.1604163 32.8486614,10.8075835 31.7626296,9.34100119 L33.5972341,8.31815404 C33.5972341,8.31815404 36.709523,12.8141689 36.5697293,18.2518049" id="Fill-25" fill="#FFFFFF"></path>
                    <path d="M28.2655322,5.47448854 C29.7731998,6.57329713 31.985097,9.35453887 32.7223961,11.0241864 L34.5149121,9.93966761 C34.5149121,9.93966761 32.2256023,5.01044685 27.4327826,2.44580804 C27.4327826,2.44580804 26.7586162,4.37492785 28.2655322,5.47448854 Z" id="Fill-26" fill="#FFFFFF"></path>
                    <path d="M9.0266113,34.1555739 C9.0266113,34.1555739 10.3959884,32.5588794 12.103576,33.3094687 C13.8119152,34.060058 17.3278021,34.6812873 19.1413624,34.4789741 L19.1015287,36.5795712 C19.1015287,36.5795712 13.6525804,37.0105208 9.0266113,34.1555739" id="Fill-27" fill="#FFFFFF"></path>
                    <path d="M27.2741994,34.2014516 C27.2741994,34.2014516 25.9469108,32.6483785 24.2393232,33.3989679 C22.5317355,34.1503093 19.0173518,34.6647412 17.2037915,34.4624281 L17.2391157,36.5585126 C17.2391157,36.5585126 22.6482303,37.0571506 27.2741994,34.2014516" id="Fill-28" fill="#FFFFFF"></path>
                </g>
            </g>
        </g>
    </g>
</svg>