<?xml version="1.0" encoding="UTF-8" standalone="no"?>
<svg width="299px" height="299px" viewBox="0 0 299 299" version="1.1" xmlns="http://www.w3.org/2000/svg" xmlns:xlink="http://www.w3.org/1999/xlink">
    <!-- Generator: Sketch 45.2 (43514) - http://www.bohemiancoding.com/sketch -->
    <title>calls</title>
    <desc>Created with Sketch.</desc>
    <defs>
        <rect id="path-1" x="0" y="0" width="294.922777" height="294.922777" rx="2"></rect>
        <filter x="-1.2%" y="-0.8%" width="102.4%" height="102.4%" filterUnits="objectBoundingBox" id="filter-2">
            <feOffset dx="0" dy="1" in="SourceAlpha" result="shadowOffsetOuter1"></feOffset>
            <feGaussianBlur stdDeviation="1" in="shadowOffsetOuter1" result="shadowBlurOuter1"></feGaussianBlur>
            <feColorMatrix values="0 0 0 0 0   0 0 0 0 0   0 0 0 0 0  0 0 0 0.2 0" type="matrix" in="shadowBlurOuter1"></feColorMatrix>
        </filter>
    </defs>
    <g id="Page-1" stroke="none" stroke-width="1" fill="none" fill-rule="evenodd">
        <g id="2-copy-4" transform="translate(-347.000000, -405.000000)">
            <g id="calls" transform="translate(349.000000, 406.000000)">
                <g id="Rectangle-6">
                    <use fill="black" fill-opacity="1" filter="url(#filter-2)" xlink:href="#path-1"></use>
                    <use fill="#FFFFFF" fill-rule="evenodd" xlink:href="#path-1"></use>
                </g>
                <circle id="Oval-4" fill="#50E3C2" cx="40.5" cy="168.5" r="17.5"></circle>
                <path d="M40.586,164.2 C42.742,164.2 44.086,165.138 44.086,166.65 C44.086,167.714 43.442,168.54 42.392,168.806 C43.652,169.044 44.436,169.996 44.436,171.284 C44.436,172.964 43.022,174 40.74,174 L36.078,174 L36.078,164.2 L40.586,164.2 Z M40.474,168.148 C41.3,168.148 41.818,167.742 41.818,167.056 C41.818,166.384 41.3,166.006 40.474,166.006 L38.29,166.006 L38.29,168.148 L40.474,168.148 Z M40.474,172.194 C41.524,172.194 42.154,171.76 42.154,171.004 C42.154,170.29 41.524,169.856 40.474,169.856 L38.29,169.856 L38.29,172.194 L40.474,172.194 Z" id="B" fill="#FFFFFF"></path>
                <path d="M74.512,168 L74.512,158.76 L77.802,158.76 C79.986,158.76 80.952,159.74 80.952,161.308 C80.952,162.246 80.392,163.1 79.398,163.296 L79.398,163.31 C80.49,163.52 81.19,164.402 81.19,165.41 C81.19,166.978 79.972,168 77.788,168 L74.512,168 Z M75.632,162.82 L77.816,162.82 C79.132,162.82 79.776,162.33 79.776,161.308 C79.776,160.3 79.132,159.81 77.816,159.81 L75.632,159.81 L75.632,162.82 Z M75.632,166.95 L78.054,166.95 C79.37,166.95 80.014,166.39 80.014,165.41 C80.014,164.43 79.37,163.87 78.054,163.87 L75.632,163.87 L75.632,166.95 Z M86.748,160.86 C85.656,160.86 84.9,161.294 84.508,162.148 L84.354,161 L83.444,161 L83.444,168 L84.564,168 L84.564,164.22 C84.564,162.652 85.572,161.91 86.412,161.91 C86.776,161.91 87.084,161.98 87.294,162.092 L87.518,161 C87.308,160.888 86.986,160.86 86.748,160.86 Z M94.7,167.188 C94.882,167.188 95.092,167.16 95.26,167.118 L95.19,168 C94.994,168.07 94.7,168.14 94.35,168.14 C93.664,168.14 93.216,167.888 93.09,167.104 C92.642,167.762 91.732,168.14 90.836,168.14 C89.52,168.14 88.456,167.524 88.456,166.264 C88.456,165.214 89.38,164.388 91.186,164.08 L93.048,163.772 L93.048,163.38 C93.048,162.456 92.46,161.84 91.41,161.84 C90.486,161.84 89.786,162.288 89.408,163.17 L88.582,162.568 C88.946,161.532 90.052,160.86 91.41,160.86 C93.006,160.86 94.168,161.616 94.168,163.24 L94.168,166.684 C94.168,167.02 94.308,167.188 94.7,167.188 Z M90.892,167.16 C92.012,167.16 93.048,166.572 93.048,165.648 L93.048,164.682 L91.48,164.976 C90.248,165.2 89.618,165.606 89.618,166.264 C89.618,166.852 90.094,167.16 90.892,167.16 Z M101.98,157.78 L103.1,157.78 L103.1,168 L102.12,168 L102.05,166.782 C101.644,167.58 100.762,168.14 99.656,168.14 C97.71,168.14 96.464,166.782 96.464,164.5 C96.464,162.218 97.71,160.86 99.656,160.86 C100.706,160.86 101.546,161.364 101.98,162.092 L101.98,157.78 Z M99.782,167.16 C101.112,167.16 101.98,166.166 101.98,164.584 L101.98,164.416 C101.98,162.834 101.112,161.84 99.782,161.84 C98.41,161.84 97.584,162.876 97.584,164.5 C97.584,166.124 98.41,167.16 99.782,167.16 Z M113.656,158.62 C111.514,158.62 110.212,159.88 110.212,161.364 C110.212,162.778 111.108,163.534 113.6,163.968 C115.546,164.304 116.148,164.766 116.148,165.564 C116.148,166.558 115.196,167.09 113.768,167.09 C112.256,167.09 111.304,166.418 110.814,165.354 L109.848,166.138 C110.492,167.286 111.78,168.14 113.74,168.14 C115.896,168.14 117.31,167.09 117.31,165.508 C117.31,164.08 116.428,163.296 113.95,162.876 C112.004,162.54 111.388,162.106 111.388,161.238 C111.388,160.356 112.2,159.67 113.67,159.67 C115.028,159.67 115.7,160.146 116.26,161.364 L117.226,160.58 C116.512,159.292 115.35,158.62 113.656,158.62 Z M123.344,166.572 C123.022,166.894 122.658,167.09 122.154,167.09 C121.538,167.09 121.104,166.754 121.104,166.068 L121.104,161.966 L123.694,161.966 L123.694,161 L121.104,161 L121.104,159.012 L119.984,159.32 L119.984,161 L118.584,161 L118.584,161.966 L119.984,161.966 L119.984,166.264 C119.998,167.622 120.894,168.14 121.93,168.14 C122.7,168.14 123.302,167.902 123.736,167.51 L123.344,166.572 Z M125.878,159.656 C126.382,159.656 126.718,159.32 126.718,158.816 C126.718,158.312 126.382,157.976 125.878,157.976 C125.374,157.976 125.038,158.312 125.038,158.816 C125.038,159.32 125.374,159.656 125.878,159.656 Z M126.438,161 L125.318,161 L125.318,168 L126.438,168 L126.438,161 Z M131.996,160.86 C129.882,160.86 128.608,162.232 128.608,164.5 C128.608,166.768 129.882,168.14 131.996,168.14 C133.48,168.14 134.488,167.37 134.964,166.082 L133.928,165.718 C133.718,166.642 133.06,167.16 131.968,167.16 C130.568,167.16 129.728,166.166 129.728,164.5 C129.728,162.834 130.568,161.84 131.968,161.84 C132.934,161.84 133.536,162.33 133.83,163.226 L134.894,162.722 C134.376,161.574 133.438,160.86 131.996,160.86 Z M141.894,168 L143.252,168 L140.354,163.73 L143.084,161 L141.684,161 L138.058,164.626 L138.058,157.78 L136.938,157.78 L136.938,168 L138.058,168 L138.058,166.026 L139.542,164.542 L141.894,168 Z" id="Brad-Stick" fill="#3C3C3C"></path>
                <polyline id="Fill-171" fill="#D0021B" points="86.06 175 81 180.06 77.2733333 176.333333 80.3333333 176.333333 80.3333333 175 75 175 75 180.333333 76.3333333 180.333333 76.3333333 177.273333 81 181.94 87 175.94 86.06 175"></polyline>
                <polyline id="Fill-171-Copy" fill="#D0021B" points="103.06 175 98 180.06 94.2733333 176.333333 97.3333333 176.333333 97.3333333 175 92 175 92 180.333333 93.3333333 180.333333 93.3333333 177.273333 98 181.94 104 175.94 103.06 175"></polyline>
                <path d="M247.022222,167.655556 C248.622222,170.8 251.2,173.366667 254.344444,174.977778 L256.788889,172.533333 C257.088889,172.233333 257.533333,172.133333 257.922222,172.266667 C259.166667,172.677778 260.511111,172.9 261.888889,172.9 C262.5,172.9 263,173.4 263,174.011111 L263,177.888889 C263,178.5 262.5,179 261.888889,179 C251.455556,179 243,170.544444 243,160.111111 C243,159.5 243.5,159 244.111111,159 L248,159 C248.611111,159 249.111111,159.5 249.111111,160.111111 C249.111111,161.5 249.333333,162.833333 249.744444,164.077778 C249.866667,164.466667 249.777778,164.9 249.466667,165.211111 L247.022222,167.655556" id="Fill-137-Copy" fill="#3C3C3C"></path>
                <circle id="Oval-4" fill="#50E3C2" cx="40.5" cy="236.5" r="17.5"></circle>
                <path d="M40.586,232.2 C42.742,232.2 44.086,233.138 44.086,234.65 C44.086,235.714 43.442,236.54 42.392,236.806 C43.652,237.044 44.436,237.996 44.436,239.284 C44.436,240.964 43.022,242 40.74,242 L36.078,242 L36.078,232.2 L40.586,232.2 Z M40.474,236.148 C41.3,236.148 41.818,235.742 41.818,235.056 C41.818,234.384 41.3,234.006 40.474,234.006 L38.29,234.006 L38.29,236.148 L40.474,236.148 Z M40.474,240.194 C41.524,240.194 42.154,239.76 42.154,239.004 C42.154,238.29 41.524,237.856 40.474,237.856 L38.29,237.856 L38.29,240.194 L40.474,240.194 Z" id="B" fill="#FFFFFF"></path>
                <path d="M74.512,236 L74.512,226.76 L77.802,226.76 C79.986,226.76 80.952,227.74 80.952,229.308 C80.952,230.246 80.392,231.1 79.398,231.296 L79.398,231.31 C80.49,231.52 81.19,232.402 81.19,233.41 C81.19,234.978 79.972,236 77.788,236 L74.512,236 Z M75.632,230.82 L77.816,230.82 C79.132,230.82 79.776,230.33 79.776,229.308 C79.776,228.3 79.132,227.81 77.816,227.81 L75.632,227.81 L75.632,230.82 Z M75.632,234.95 L78.054,234.95 C79.37,234.95 80.014,234.39 80.014,233.41 C80.014,232.43 79.37,231.87 78.054,231.87 L75.632,231.87 L75.632,234.95 Z M86.748,228.86 C85.656,228.86 84.9,229.294 84.508,230.148 L84.354,229 L83.444,229 L83.444,236 L84.564,236 L84.564,232.22 C84.564,230.652 85.572,229.91 86.412,229.91 C86.776,229.91 87.084,229.98 87.294,230.092 L87.518,229 C87.308,228.888 86.986,228.86 86.748,228.86 Z M94.7,235.188 C94.882,235.188 95.092,235.16 95.26,235.118 L95.19,236 C94.994,236.07 94.7,236.14 94.35,236.14 C93.664,236.14 93.216,235.888 93.09,235.104 C92.642,235.762 91.732,236.14 90.836,236.14 C89.52,236.14 88.456,235.524 88.456,234.264 C88.456,233.214 89.38,232.388 91.186,232.08 L93.048,231.772 L93.048,231.38 C93.048,230.456 92.46,229.84 91.41,229.84 C90.486,229.84 89.786,230.288 89.408,231.17 L88.582,230.568 C88.946,229.532 90.052,228.86 91.41,228.86 C93.006,228.86 94.168,229.616 94.168,231.24 L94.168,234.684 C94.168,235.02 94.308,235.188 94.7,235.188 Z M90.892,235.16 C92.012,235.16 93.048,234.572 93.048,233.648 L93.048,232.682 L91.48,232.976 C90.248,233.2 89.618,233.606 89.618,234.264 C89.618,234.852 90.094,235.16 90.892,235.16 Z M101.98,225.78 L103.1,225.78 L103.1,236 L102.12,236 L102.05,234.782 C101.644,235.58 100.762,236.14 99.656,236.14 C97.71,236.14 96.464,234.782 96.464,232.5 C96.464,230.218 97.71,228.86 99.656,228.86 C100.706,228.86 101.546,229.364 101.98,230.092 L101.98,225.78 Z M99.782,235.16 C101.112,235.16 101.98,234.166 101.98,232.584 L101.98,232.416 C101.98,230.834 101.112,229.84 99.782,229.84 C98.41,229.84 97.584,230.876 97.584,232.5 C97.584,234.124 98.41,235.16 99.782,235.16 Z M113.656,226.62 C111.514,226.62 110.212,227.88 110.212,229.364 C110.212,230.778 111.108,231.534 113.6,231.968 C115.546,232.304 116.148,232.766 116.148,233.564 C116.148,234.558 115.196,235.09 113.768,235.09 C112.256,235.09 111.304,234.418 110.814,233.354 L109.848,234.138 C110.492,235.286 111.78,236.14 113.74,236.14 C115.896,236.14 117.31,235.09 117.31,233.508 C117.31,232.08 116.428,231.296 113.95,230.876 C112.004,230.54 111.388,230.106 111.388,229.238 C111.388,228.356 112.2,227.67 113.67,227.67 C115.028,227.67 115.7,228.146 116.26,229.364 L117.226,228.58 C116.512,227.292 115.35,226.62 113.656,226.62 Z M123.344,234.572 C123.022,234.894 122.658,235.09 122.154,235.09 C121.538,235.09 121.104,234.754 121.104,234.068 L121.104,229.966 L123.694,229.966 L123.694,229 L121.104,229 L121.104,227.012 L119.984,227.32 L119.984,229 L118.584,229 L118.584,229.966 L119.984,229.966 L119.984,234.264 C119.998,235.622 120.894,236.14 121.93,236.14 C122.7,236.14 123.302,235.902 123.736,235.51 L123.344,234.572 Z M125.878,227.656 C126.382,227.656 126.718,227.32 126.718,226.816 C126.718,226.312 126.382,225.976 125.878,225.976 C125.374,225.976 125.038,226.312 125.038,226.816 C125.038,227.32 125.374,227.656 125.878,227.656 Z M126.438,229 L125.318,229 L125.318,236 L126.438,236 L126.438,229 Z M131.996,228.86 C129.882,228.86 128.608,230.232 128.608,232.5 C128.608,234.768 129.882,236.14 131.996,236.14 C133.48,236.14 134.488,235.37 134.964,234.082 L133.928,233.718 C133.718,234.642 133.06,235.16 131.968,235.16 C130.568,235.16 129.728,234.166 129.728,232.5 C129.728,230.834 130.568,229.84 131.968,229.84 C132.934,229.84 133.536,230.33 133.83,231.226 L134.894,230.722 C134.376,229.574 133.438,228.86 131.996,228.86 Z M141.894,236 L143.252,236 L140.354,231.73 L143.084,229 L141.684,229 L138.058,232.626 L138.058,225.78 L136.938,225.78 L136.938,236 L138.058,236 L138.058,234.026 L139.542,232.542 L141.894,236 Z" id="Brad-Stick" fill="#3C3C3C"></path>
                <polyline id="Fill-171" fill="#D0021B" points="86.06 243 81 248.06 77.2733333 244.333333 80.3333333 244.333333 80.3333333 243 75 243 75 248.333333 76.3333333 248.333333 76.3333333 245.273333 81 249.94 87 243.94 86.06 243"></polyline>
                <polyline id="Fill-171-Copy" fill="#D0021B" points="103.06 243 98 248.06 94.2733333 244.333333 97.3333333 244.333333 97.3333333 243 92 243 92 248.333333 93.3333333 248.333333 93.3333333 245.273333 98 249.94 104 243.94 103.06 243"></polyline>
                <path d="M247.022222,235.655556 C248.622222,238.8 251.2,241.366667 254.344444,242.977778 L256.788889,240.533333 C257.088889,240.233333 257.533333,240.133333 257.922222,240.266667 C259.166667,240.677778 260.511111,240.9 261.888889,240.9 C262.5,240.9 263,241.4 263,242.011111 L263,245.888889 C263,246.5 262.5,247 261.888889,247 C251.455556,247 243,238.544444 243,228.111111 C243,227.5 243.5,227 244.111111,227 L248,227 C248.611111,227 249.111111,227.5 249.111111,228.111111 C249.111111,229.5 249.333333,230.833333 249.744444,232.077778 C249.866667,232.466667 249.777778,232.9 249.466667,233.211111 L247.022222,235.655556" id="Fill-137-Copy-2" fill="#3C3C3C"></path>
                <circle id="Oval-4" fill="#4A90E2" cx="40.5" cy="100.5" r="17.5"></circle>
                <path d="M43.316,106 L42.546,104.096 L38.01,104.096 L37.24,106 L34.958,106 L39.214,96.2 L41.496,96.2 L45.682,106 L43.316,106 Z M38.738,102.318 L41.832,102.318 L40.292,98.51 L38.738,102.318 Z" id="A" fill="#FFFFFF"></path>
                <path d="M80.686,100 L79.706,97.438 L75.52,97.438 L74.54,100 L73.364,100 L76.962,90.76 L78.292,90.76 L81.876,100 L80.686,100 Z M75.926,96.388 L79.3,96.388 L78.054,93.112 L77.62,91.824 L77.592,91.824 L77.186,93.07 L75.926,96.388 Z M86.944,92.86 C85.978,92.86 85.082,93.21 84.592,94.092 L84.522,93 L83.542,93 L83.542,100 L84.662,100 L84.662,96.276 C84.662,94.484 85.81,93.84 86.832,93.84 C87.798,93.84 88.554,94.358 88.554,95.912 L88.554,100 L89.674,100 L89.674,95.52 C89.674,93.714 88.442,92.86 86.944,92.86 Z M97.304,89.78 L98.424,89.78 L98.424,100 L97.444,100 L97.374,98.782 C96.968,99.58 96.086,100.14 94.98,100.14 C93.034,100.14 91.788,98.782 91.788,96.5 C91.788,94.218 93.034,92.86 94.98,92.86 C96.03,92.86 96.87,93.364 97.304,94.092 L97.304,89.78 Z M95.106,99.16 C96.436,99.16 97.304,98.166 97.304,96.584 L97.304,96.416 C97.304,94.834 96.436,93.84 95.106,93.84 C93.734,93.84 92.908,94.876 92.908,96.5 C92.908,98.124 93.734,99.16 95.106,99.16 Z M104.332,92.86 C103.24,92.86 102.484,93.294 102.092,94.148 L101.938,93 L101.028,93 L101.028,100 L102.148,100 L102.148,96.22 C102.148,94.652 103.156,93.91 103.996,93.91 C104.36,93.91 104.668,93.98 104.878,94.092 L105.102,93 C104.892,92.888 104.57,92.86 104.332,92.86 Z M112.522,96.136 C112.522,96.458 112.494,96.724 112.466,96.92 L107.188,96.92 C107.328,98.334 108.182,99.16 109.47,99.16 C110.492,99.16 111.192,98.796 111.444,98.124 L112.382,98.614 C111.85,99.566 110.982,100.14 109.47,100.14 C107.356,100.14 106.082,98.768 106.082,96.5 C106.082,94.232 107.272,92.86 109.386,92.86 C111.416,92.86 112.522,94.33 112.522,96.136 Z M109.386,93.84 C108.14,93.84 107.37,94.61 107.202,95.926 L111.444,95.926 C111.29,94.638 110.576,93.84 109.386,93.84 Z M123.4,93 L121.636,98.698 L119.732,93 L118.612,93 L116.708,98.698 L114.944,93 L113.698,93 L116.134,100 L117.254,100 L119.116,94.428 L121.09,100 L122.21,100 L124.646,93 L123.4,93 Z M138.59,97.634 L137.47,97.214 C137.064,98.46 136.098,99.09 134.866,99.09 C132.948,99.09 131.758,97.704 131.758,95.38 C131.758,93.042 133.032,91.67 134.922,91.67 C136.154,91.67 136.91,92.23 137.316,93.294 L138.422,92.776 C137.834,91.376 136.63,90.62 134.838,90.62 C132.262,90.62 130.582,92.454 130.582,95.38 C130.582,98.306 132.234,100.14 134.866,100.14 C136.602,100.14 138.002,99.216 138.59,97.634 Z M143.938,92.86 C142.986,92.86 142.146,93.21 141.656,94.05 L141.656,89.78 L140.536,89.78 L140.536,100 L141.656,100 L141.656,96.29 C141.656,94.498 142.804,93.84 143.826,93.84 C144.792,93.84 145.548,94.358 145.548,95.912 L145.548,100 L146.668,100 L146.668,95.52 C146.668,93.714 145.436,92.86 143.938,92.86 Z M155.208,96.136 C155.208,96.458 155.18,96.724 155.152,96.92 L149.874,96.92 C150.014,98.334 150.868,99.16 152.156,99.16 C153.178,99.16 153.878,98.796 154.13,98.124 L155.068,98.614 C154.536,99.566 153.668,100.14 152.156,100.14 C150.042,100.14 148.768,98.768 148.768,96.5 C148.768,94.232 149.958,92.86 152.072,92.86 C154.102,92.86 155.208,94.33 155.208,96.136 Z M152.072,93.84 C150.826,93.84 150.056,94.61 149.888,95.926 L154.13,95.926 C153.976,94.638 153.262,93.84 152.072,93.84 Z M160.738,92.86 C159.772,92.86 158.876,93.21 158.386,94.092 L158.316,93 L157.336,93 L157.336,100 L158.456,100 L158.456,96.276 C158.456,94.484 159.604,93.84 160.626,93.84 C161.592,93.84 162.348,94.358 162.348,95.912 L162.348,100 L163.468,100 L163.468,95.52 C163.468,93.714 162.236,92.86 160.738,92.86 Z" id="Andrew-Chen" fill="#3C3C3C"></path>
                <polyline id="ic_missed_call_arrow" fill="#D0021B" points="86.06 107 81 112.06 77.2733333 108.333333 80.3333333 108.333333 80.3333333 107 75 107 75 112.333333 76.3333333 112.333333 76.3333333 109.273333 81 113.94 87 107.94 86.06 107"></polyline>
                <polyline id="Fill-171-Copy" fill="#D0021B" points="103.06 107 98 112.06 94.2733333 108.333333 97.3333333 108.333333 97.3333333 107 92 107 92 112.333333 93.3333333 112.333333 93.3333333 109.273333 98 113.94 104 107.94 103.06 107"></polyline>
                <path d="M247.022222,99.6555556 C248.622222,102.8 251.2,105.366667 254.344444,106.977778 L256.788889,104.533333 C257.088889,104.233333 257.533333,104.133333 257.922222,104.266667 C259.166667,104.677778 260.511111,104.9 261.888889,104.9 C262.5,104.9 263,105.4 263,106.011111 L263,109.888889 C263,110.5 262.5,111 261.888889,111 C251.455556,111 243,102.544444 243,92.1111111 C243,91.5 243.5,91 244.111111,91 L248,91 C248.611111,91 249.111111,91.5 249.111111,92.1111111 C249.111111,93.5 249.333333,94.8333333 249.744444,96.0777778 C249.866667,96.4666667 249.777778,96.9 249.466667,97.2111111 L247.022222,99.6555556" id="ic_missed_call" fill="#3C3C3C"></path>
                <path d="M71.826,34.2 L70.146,34.2 L67.402,38.974 L64.602,34.2 L62.936,34.2 L66.59,40.794 L66.59,44 L68.228,44 L68.228,40.738 L71.826,34.2 Z M77.09,34.158 C80.016,34.158 82.284,36.3 82.284,39.1 C82.284,41.9 80.016,44.07 77.09,44.07 C74.164,44.07 71.896,41.9 71.896,39.1 C71.896,36.286 74.164,34.158 77.09,34.158 Z M77.104,35.642 C75.172,35.642 73.576,37.154 73.576,39.1 C73.576,41.046 75.186,42.586 77.104,42.586 C79.022,42.586 80.59,41.046 80.59,39.1 C80.59,37.154 79.022,35.642 77.104,35.642 Z M85.504,39.94 L85.504,34.2 L83.852,34.2 L83.852,39.94 C83.852,42.502 85.476,44.07 88.122,44.07 C90.768,44.07 92.378,42.502 92.378,39.94 L92.378,34.2 L90.726,34.2 L90.726,39.94 C90.726,41.606 89.732,42.586 88.136,42.586 C86.526,42.586 85.504,41.592 85.504,39.94 Z M94.982,34.186 C94.478,34.186 94.114,34.564 94.114,35.082 C94.114,35.376 94.24,35.642 94.492,35.81 L93.96,37.028 L94.786,37.028 L95.584,35.824 C95.738,35.6 95.836,35.362 95.836,35.082 C95.836,34.522 95.43,34.186 94.982,34.186 Z M96.494,34.2 L100.4,44 L102.108,44 L106.07,34.2 L104.348,34.2 L101.296,42.166 L98.272,34.2 L96.494,34.2 Z M107.4,34.2 L107.4,44 L114.568,44 L114.568,42.516 L109.052,42.516 L109.052,39.814 L113.84,39.814 L113.84,38.33 L109.052,38.33 L109.052,35.684 L114.4,35.684 L114.4,34.2 L107.4,34.2 Z M123.542,38.316 L122.968,38.274 L126.118,35.236 L126.118,34.2 L119.678,34.2 L119.692,35.67 L124.06,35.67 L121.19,38.428 L121.19,39.38 L122.618,39.38 C124.116,39.38 124.998,39.926 124.998,40.99 C124.998,42.012 124.13,42.684 122.646,42.684 C121.652,42.684 120.658,42.32 119.888,41.662 L119.202,43.006 C120.098,43.65 121.456,44.07 122.758,44.07 C125.124,44.07 126.608,42.796 126.608,40.962 C126.608,39.408 125.376,38.47 123.542,38.316 Z M132.446,34.2 L132.446,44 L134,44 L134,36.678 L137.094,42.978 L138.172,42.978 L141.266,36.678 L141.28,44 L142.806,44 L142.806,34.2 L140.86,34.2 L137.64,40.71 L134.406,34.2 L132.446,34.2 Z M145.396,34.2 L145.396,44 L147.048,44 L147.048,34.2 L145.396,34.2 Z M155.588,36.594 L156.274,35.138 C155.364,34.536 154.118,34.13 152.844,34.13 C150.716,34.13 149.274,35.18 149.274,36.86 C149.274,40.346 154.566,39.128 154.566,41.312 C154.566,42.068 153.88,42.502 152.732,42.502 C151.682,42.502 150.422,41.998 149.414,41.074 L148.7,42.502 C149.708,43.426 151.164,44.056 152.704,44.056 C154.86,44.056 156.4,42.978 156.4,41.228 C156.414,37.7 151.122,38.848 151.122,36.706 C151.122,36.048 151.752,35.684 152.718,35.684 C153.46,35.684 154.524,35.95 155.588,36.594 Z M164.296,36.594 L164.982,35.138 C164.072,34.536 162.826,34.13 161.552,34.13 C159.424,34.13 157.982,35.18 157.982,36.86 C157.982,40.346 163.274,39.128 163.274,41.312 C163.274,42.068 162.588,42.502 161.44,42.502 C160.39,42.502 159.13,41.998 158.122,41.074 L157.408,42.502 C158.416,43.426 159.872,44.056 161.412,44.056 C163.568,44.056 165.108,42.978 165.108,41.228 C165.122,37.7 159.83,38.848 159.83,36.706 C159.83,36.048 160.46,35.684 161.426,35.684 C162.168,35.684 163.232,35.95 164.296,36.594 Z M167.04,34.2 L167.04,44 L174.208,44 L174.208,42.516 L168.692,42.516 L168.692,39.814 L173.48,39.814 L173.48,38.33 L168.692,38.33 L168.692,35.684 L174.04,35.684 L174.04,34.2 L167.04,34.2 Z M180.242,34.2 C183.182,34.2 185.31,36.258 185.31,39.1 C185.31,41.928 183.168,44 180.2,44 L176.224,44 L176.224,34.2 L180.242,34.2 Z M180.284,42.516 C182.188,42.516 183.644,41.102 183.644,39.114 C183.644,37.112 182.146,35.684 180.214,35.684 L177.876,35.684 L177.876,42.516 L180.284,42.516 Z M197.784,36.874 L198.75,35.67 C197.798,34.732 196.412,34.158 195.026,34.158 C192.128,34.158 189.874,36.3 189.874,39.086 C189.874,41.9 192.1,44.07 194.97,44.07 C196.356,44.07 197.77,43.44 198.764,42.46 L197.784,41.368 C197.042,42.082 196.034,42.53 195.054,42.53 C193.094,42.53 191.554,41.004 191.554,39.072 C191.554,37.14 193.094,35.628 195.054,35.628 C196.048,35.628 197.07,36.104 197.784,36.874 Z M207.64,44 L206.702,41.788 L201.76,41.788 L200.822,44 L199.1,44 L203.426,34.2 L205.12,34.2 L209.404,44 L207.64,44 Z M202.376,40.318 L206.072,40.318 L204.224,35.964 L202.376,40.318 Z M210.706,34.2 L210.706,44 L216.6,44 L216.6,42.502 L212.358,42.502 L212.358,34.2 L210.706,34.2 Z M218.182,34.2 L218.182,44 L224.076,44 L224.076,42.502 L219.834,42.502 L219.834,34.2 L218.182,34.2 Z M231.622,36.594 L232.308,35.138 C231.398,34.536 230.152,34.13 228.878,34.13 C226.75,34.13 225.308,35.18 225.308,36.86 C225.308,40.346 230.6,39.128 230.6,41.312 C230.6,42.068 229.914,42.502 228.766,42.502 C227.716,42.502 226.456,41.998 225.448,41.074 L224.734,42.502 C225.742,43.426 227.198,44.056 228.738,44.056 C230.894,44.056 232.434,42.978 232.434,41.228 C232.448,37.7 227.156,38.848 227.156,36.706 C227.156,36.048 227.786,35.684 228.752,35.684 C229.494,35.684 230.558,35.95 231.622,36.594 Z" id="YOU’VE-3-MISSED-CALL" fill="#3C3C3C"></path>
                <path d="M25.5,134.5 L276.947808,134.5" id="Line" stroke-opacity="0.306584013" stroke="#9B9B9B" stroke-linecap="square"></path>
                <path d="M25.5,202.5 L276.947808,202.5" id="Line-Copy" stroke-opacity="0.306584013" stroke="#9B9B9B" stroke-linecap="square"></path>
            </g>
        </g>
    </g>
</svg>