<?xml version="1.0" encoding="UTF-8"?>
<svg width="343px" height="68px" viewBox="0 0 343 68" version="1.1" xmlns="http://www.w3.org/2000/svg" xmlns:xlink="http://www.w3.org/1999/xlink">
    <!-- Generator: Sketch 46.1 (44463) - http://www.bohemiancoding.com/sketch -->
    <title>navigate</title>
    <desc>Created with Sketch.</desc>
    <defs></defs>
    <g id="Mobile" stroke="none" stroke-width="1" fill="none" fill-rule="evenodd">
        <g id="second-fold-Updated-UI" transform="translate(-16.000000, -1173.000000)">
            <g id="navigate" transform="translate(16.000000, 1173.000000)">
                <path d="M0,0 L343,0 L343,64 L343,64 C343,66.209139 341.209139,68 339,68 L4,68 L4,68 C1.790861,68 2.705415e-16,66.209139 0,64 L0,0 Z" id="Rectangle-3-Copy-2" fill="#0F3848"></path>
                <path d="M94.016,40 L92.432,40 L88.016,32.928 L86.896,30.848 L86.88,30.848 L86.944,32.544 L86.944,40 L85.728,40 L85.728,29.44 L87.312,29.44 L91.712,36.48 L92.848,38.592 L92.864,38.592 L92.8,36.896 L92.8,29.44 L94.016,29.44 L94.016,40 Z M103.792,39.072 C104.005334,39.072 104.218666,39.0453336 104.432,38.992 L104.352,40 C104.053332,40.1066672 103.733335,40.16 103.392,40.16 C102.975998,40.16 102.648001,40.0693342 102.408,39.888 C102.167999,39.7066658 102.016,39.4026688 101.952,38.976 C101.706665,39.3493352 101.346669,39.639999 100.872,39.848 C100.397331,40.056001 99.8986693,40.16 99.376,40.16 C98.5866627,40.16 97.9360026,39.9760018 97.424,39.608 C96.9119974,39.2399982 96.656,38.7093368 96.656,38.016 C96.656,37.407997 96.922664,36.8826689 97.456,36.44 C97.989336,35.9973311 98.7626616,35.6906675 99.776,35.52 L101.904,35.168 L101.904,34.72 C101.904,34.186664 101.738668,33.7600016 101.408,33.44 C101.077332,33.1199984 100.61867,32.96 100.032,32.96 C99.498664,32.96 99.0373353,33.0879987 98.648,33.344 C98.2586647,33.6000013 97.9573344,33.9786642 97.744,34.48 L96.8,33.792 C97.0133344,33.1946637 97.4106638,32.7200018 97.992,32.368 C98.5733362,32.0159982 99.2533294,31.84 100.032,31.84 C100.981338,31.84 101.743997,32.069331 102.32,32.528 C102.896003,32.986669 103.184,33.6639955 103.184,34.56 L103.184,38.496 C103.184,38.688001 103.232,38.8319995 103.328,38.928 C103.424,39.0240005 103.578666,39.072 103.792,39.072 Z M99.44,39.04 C100.112003,39.04 100.690664,38.8800016 101.176,38.56 C101.661336,38.2399984 101.904,37.8240026 101.904,37.312 L101.904,36.208 L100.112,36.544 C99.3973298,36.6720006 98.8640018,36.8559988 98.512,37.096 C98.1599982,37.3360012 97.984,37.6426648 97.984,38.016 C97.984,38.3466683 98.1119987,38.5999991 98.368,38.776 C98.6240013,38.9520009 98.981331,39.04 99.44,39.04 Z M112.928,32 L109.6,40 L108.32,40 L104.992,32 L106.448,32 L108.976,38.704 L111.584,32 L112.928,32 Z M115.248,30.464 C114.959999,30.464 114.728001,30.3760009 114.552,30.2 C114.375999,30.0239991 114.288,29.7920014 114.288,29.504 C114.288,29.2159986 114.375999,28.9840009 114.552,28.808 C114.728001,28.6319991 114.959999,28.544 115.248,28.544 C115.536001,28.544 115.767999,28.6319991 115.944,28.808 C116.120001,28.9840009 116.208,29.2159986 116.208,29.504 C116.208,29.7920014 116.120001,30.0239991 115.944,30.2 C115.767999,30.3760009 115.536001,30.464 115.248,30.464 Z M115.888,40 L114.608,40 L114.608,32 L115.888,32 L115.888,40 Z M123.328,38.976 C124.085337,38.976 124.677331,39.146665 125.104,39.488 C125.530669,39.829335 125.744,40.2933304 125.744,40.88 C125.744,41.3920026 125.568002,41.8426647 125.216,42.232 C124.863998,42.6213353 124.38667,42.919999 123.784,43.128 C123.18133,43.336001 122.517337,43.44 121.792,43.44 C120.575994,43.44 119.65867,43.2453353 119.04,42.856 C118.42133,42.4666647 118.112,41.9573365 118.112,41.328 C118.112,40.9653315 118.237332,40.6453347 118.488,40.368 C118.738668,40.0906653 119.082664,39.8933339 119.52,39.776 C119.189332,39.6159992 118.925334,39.4133346 118.728,39.168 C118.530666,38.9226654 118.432,38.6346683 118.432,38.304 C118.432,37.9093314 118.538666,37.5813346 118.752,37.32 C118.965334,37.0586654 119.258665,36.8640006 119.632,36.736 C119.247998,36.5013322 118.957334,36.1946686 118.76,35.816 C118.562666,35.4373314 118.464,35.0133357 118.464,34.544 C118.464,34.0213307 118.602665,33.5546687 118.88,33.144 C119.157335,32.7333313 119.546664,32.4133345 120.048,32.184 C120.549336,31.9546655 121.114664,31.84 121.744,31.84 C122.341336,31.84 122.885331,31.9466656 123.376,32.16 C123.674668,31.0719946 124.426661,30.528 125.632,30.528 L125.92,31.648 C124.874661,31.648 124.240001,31.9413304 124.016,32.528 C124.336002,32.7733346 124.583999,33.066665 124.76,33.408 C124.936001,33.749335 125.024,34.1279979 125.024,34.544 C125.024,35.0666693 124.885335,35.5333313 124.608,35.944 C124.330665,36.3546687 123.941336,36.6746655 123.44,36.904 C122.938664,37.1333345 122.373336,37.248 121.744,37.248 C121.274664,37.248 120.864002,37.2000005 120.512,37.104 C120.191998,37.178667 119.962667,37.2959992 119.824,37.456 C119.685333,37.6160008 119.616,37.8346653 119.616,38.112 C119.616,38.3893347 119.711999,38.6026659 119.904,38.752 C120.096001,38.9013341 120.351998,38.976 120.672,38.976 L123.328,38.976 Z M121.744,32.88 C121.189331,32.88 120.725335,33.0346651 120.352,33.344 C119.978665,33.6533349 119.792,34.0533309 119.792,34.544 C119.792,35.0346691 119.978665,35.4346651 120.352,35.744 C120.725335,36.0533349 121.189331,36.208 121.744,36.208 C122.298669,36.208 122.762665,36.0533349 123.136,35.744 C123.509335,35.4346651 123.696,35.0346691 123.696,34.544 C123.696,34.0533309 123.509335,33.6533349 123.136,33.344 C122.762665,33.0346651 122.298669,32.88 121.744,32.88 Z M121.936,42.368 C122.746671,42.368 123.386664,42.2373346 123.856,41.976 C124.325336,41.7146654 124.56,41.3973352 124.56,41.024 C124.56,40.7146651 124.440001,40.4800008 124.2,40.32 C123.959999,40.1599992 123.552003,40.08 122.976,40.08 L120.832,40.08 C120.341331,40.08 119.962668,40.1679991 119.696,40.344 C119.429332,40.5200009 119.296,40.7626651 119.296,41.072 C119.296,41.4773354 119.519998,41.7946655 119.968,42.024 C120.416002,42.2533345 121.071996,42.368 121.936,42.368 Z M134.208,39.072 C134.421334,39.072 134.634666,39.0453336 134.848,38.992 L134.768,40 C134.469332,40.1066672 134.149335,40.16 133.808,40.16 C133.391998,40.16 133.064001,40.0693342 132.824,39.888 C132.583999,39.7066658 132.432,39.4026688 132.368,38.976 C132.122665,39.3493352 131.762669,39.639999 131.288,39.848 C130.813331,40.056001 130.314669,40.16 129.792,40.16 C129.002663,40.16 128.352003,39.9760018 127.84,39.608 C127.327997,39.2399982 127.072,38.7093368 127.072,38.016 C127.072,37.407997 127.338664,36.8826689 127.872,36.44 C128.405336,35.9973311 129.178662,35.6906675 130.192,35.52 L132.32,35.168 L132.32,34.72 C132.32,34.186664 132.154668,33.7600016 131.824,33.44 C131.493332,33.1199984 131.03467,32.96 130.448,32.96 C129.914664,32.96 129.453335,33.0879987 129.064,33.344 C128.674665,33.6000013 128.373334,33.9786642 128.16,34.48 L127.216,33.792 C127.429334,33.1946637 127.826664,32.7200018 128.408,32.368 C128.989336,32.0159982 129.669329,31.84 130.448,31.84 C131.397338,31.84 132.159997,32.069331 132.736,32.528 C133.312003,32.986669 133.6,33.6639955 133.6,34.56 L133.6,38.496 C133.6,38.688001 133.648,38.8319995 133.744,38.928 C133.84,39.0240005 133.994666,39.072 134.208,39.072 Z M129.856,39.04 C130.528003,39.04 131.106664,38.8800016 131.592,38.56 C132.077336,38.2399984 132.32,37.8240026 132.32,37.312 L132.32,36.208 L130.528,36.544 C129.81333,36.6720006 129.280002,36.8559988 128.928,37.096 C128.575998,37.3360012 128.4,37.6426648 128.4,38.016 C128.4,38.3466683 128.527999,38.5999991 128.784,38.776 C129.040001,38.9520009 129.397331,39.04 129.856,39.04 Z M141.6,39.44 C141.066664,39.9200024 140.378671,40.16 139.536,40.16 C138.88533,40.16 138.354669,39.9840018 137.944,39.632 C137.533331,39.2799982 137.322667,38.741337 137.312,38.016 L137.312,33.104 L135.712,33.104 L135.712,32 L137.312,32 L137.312,30.08 L138.592,29.728 L138.592,32 L141.552,32 L141.552,33.104 L138.592,33.104 L138.592,37.792 C138.592,38.1760019 138.701332,38.4666657 138.92,38.664 C139.138668,38.8613343 139.429332,38.96 139.792,38.96 C140.304003,38.96 140.757331,38.7626686 141.152,38.368 L141.6,39.44 Z M150.272,35.584 C150.272,35.8826682 150.250667,36.1813318 150.208,36.48 L144.176,36.48 C144.250667,37.2906707 144.519998,37.9199978 144.984,38.368 C145.448002,38.8160022 146.047996,39.04 146.784,39.04 C147.37067,39.04 147.858665,38.9386677 148.248,38.736 C148.637335,38.5333323 148.901333,38.2400019 149.04,37.856 L150.112,38.416 C149.791998,38.9813362 149.365336,39.4133318 148.832,39.712 C148.298664,40.0106682 147.616004,40.16 146.784,40.16 C145.578661,40.16 144.632003,39.7920037 143.944,39.056 C143.255997,38.3199963 142.912,37.3013398 142.912,36 C142.912,34.6986602 143.239997,33.6800037 143.896,32.944 C144.552003,32.2079963 145.482661,31.84 146.688,31.84 C147.43467,31.84 148.079997,32.0053317 148.624,32.336 C149.168003,32.6666683 149.578665,33.1146638 149.856,33.68 C150.133335,34.2453362 150.272,34.8799965 150.272,35.584 Z M146.688,32.96 C145.983996,32.96 145.416002,33.1679979 144.984,33.584 C144.551998,34.0000021 144.288,34.5866629 144.192,35.344 L149.04,35.344 C148.954666,34.5973296 148.709335,34.0133354 148.304,33.592 C147.898665,33.1706646 147.360003,32.96 146.688,32.96 Z M163.056,39.44 C162.522664,39.9200024 161.834671,40.16 160.992,40.16 C160.34133,40.16 159.810669,39.9840018 159.4,39.632 C158.989331,39.2799982 158.778667,38.741337 158.768,38.016 L158.768,33.104 L157.168,33.104 L157.168,32 L158.768,32 L158.768,30.08 L160.048,29.728 L160.048,32 L163.008,32 L163.008,33.104 L160.048,33.104 L160.048,37.792 C160.048,38.1760019 160.157332,38.4666657 160.376,38.664 C160.594668,38.8613343 160.885332,38.96 161.248,38.96 C161.760003,38.96 162.213331,38.7626686 162.608,38.368 L163.056,39.44 Z M168.24,31.84 C169.445339,31.84 170.391997,32.2079963 171.08,32.944 C171.768003,33.6800037 172.112,34.6986602 172.112,36 C172.112,37.3013398 171.768003,38.3199963 171.08,39.056 C170.391997,39.7920037 169.445339,40.16 168.24,40.16 C167.034661,40.16 166.088003,39.7920037 165.4,39.056 C164.711997,38.3199963 164.368,37.3013398 164.368,36 C164.368,34.6986602 164.711997,33.6800037 165.4,32.944 C166.088003,32.2079963 167.034661,31.84 168.24,31.84 Z M168.24,32.944 C167.429329,32.944 166.794669,33.2159973 166.336,33.76 C165.877331,34.3040027 165.648,35.0506619 165.648,36 C165.648,36.9493381 165.877331,37.6959973 166.336,38.24 C166.794669,38.7840027 167.429329,39.056 168.24,39.056 C169.050671,39.056 169.685331,38.7840027 170.144,38.24 C170.602669,37.6959973 170.832,36.9493381 170.832,36 C170.832,35.0506619 170.602669,34.3040027 170.144,33.76 C169.685331,33.2159973 169.050671,32.944 168.24,32.944 Z M183.68,29.28 C185.568009,29.28 186.927996,30.0266592 187.76,31.52 L186.656,32.416 C186.335998,31.7119965 185.954669,31.2133348 185.512,30.92 C185.069331,30.6266652 184.464004,30.48 183.696,30.48 C182.885329,30.48 182.248002,30.6479983 181.784,30.984 C181.319998,31.3200017 181.088,31.7493307 181.088,32.272 C181.088,32.613335 181.178666,32.8959989 181.36,33.12 C181.541334,33.3440011 181.842665,33.5386658 182.264,33.704 C182.685335,33.8693342 183.26933,34.0159994 184.016,34.144 C185.41334,34.3786678 186.402664,34.7306643 186.984,35.2 C187.565336,35.6693357 187.856,36.3199958 187.856,37.152 C187.856,37.7493363 187.688002,38.2746644 187.352,38.728 C187.015998,39.1813356 186.53867,39.5333321 185.92,39.784 C185.30133,40.0346679 184.586671,40.16 183.776,40.16 C182.709328,40.16 181.800004,39.9520021 181.048,39.536 C180.295996,39.1199979 179.722669,38.5653368 179.328,37.872 L180.432,36.976 C180.720001,37.6053365 181.143997,38.0933316 181.704,38.44 C182.264003,38.7866684 182.965329,38.96 183.808,38.96 C184.640004,38.96 185.301331,38.8080015 185.792,38.504 C186.282669,38.1999985 186.528,37.7706694 186.528,37.216 C186.528,36.7466643 186.314669,36.3733347 185.888,36.096 C185.461331,35.8186653 184.704005,35.584001 183.616,35.392 C182.207993,35.1466654 181.21067,34.794669 180.624,34.336 C180.03733,33.877331 179.744,33.2373374 179.744,32.416 C179.744,31.8506638 179.903998,31.3280024 180.224,30.848 C180.544002,30.3679976 181.002664,29.9866681 181.6,29.704 C182.197336,29.4213319 182.890663,29.28 183.68,29.28 Z M196.864,39.072 C197.077334,39.072 197.290666,39.0453336 197.504,38.992 L197.424,40 C197.125332,40.1066672 196.805335,40.16 196.464,40.16 C196.047998,40.16 195.720001,40.0693342 195.48,39.888 C195.239999,39.7066658 195.088,39.4026688 195.024,38.976 C194.778665,39.3493352 194.418669,39.639999 193.944,39.848 C193.469331,40.056001 192.970669,40.16 192.448,40.16 C191.658663,40.16 191.008003,39.9760018 190.496,39.608 C189.983997,39.2399982 189.728,38.7093368 189.728,38.016 C189.728,37.407997 189.994664,36.8826689 190.528,36.44 C191.061336,35.9973311 191.834662,35.6906675 192.848,35.52 L194.976,35.168 L194.976,34.72 C194.976,34.186664 194.810668,33.7600016 194.48,33.44 C194.149332,33.1199984 193.69067,32.96 193.104,32.96 C192.570664,32.96 192.109335,33.0879987 191.72,33.344 C191.330665,33.6000013 191.029334,33.9786642 190.816,34.48 L189.872,33.792 C190.085334,33.1946637 190.482664,32.7200018 191.064,32.368 C191.645336,32.0159982 192.325329,31.84 193.104,31.84 C194.053338,31.84 194.815997,32.069331 195.392,32.528 C195.968003,32.986669 196.256,33.6639955 196.256,34.56 L196.256,38.496 C196.256,38.688001 196.304,38.8319995 196.4,38.928 C196.496,39.0240005 196.650666,39.072 196.864,39.072 Z M192.512,39.04 C193.184003,39.04 193.762664,38.8800016 194.248,38.56 C194.733336,38.2399984 194.976,37.8240026 194.976,37.312 L194.976,36.208 L193.184,36.544 C192.46933,36.6720006 191.936002,36.8559988 191.584,37.096 C191.231998,37.3360012 191.056,37.6426648 191.056,38.016 C191.056,38.3466683 191.183999,38.5999991 191.44,38.776 C191.696001,38.9520009 192.053331,39.04 192.512,39.04 Z M206,32 L202.672,40 L201.392,40 L198.064,32 L199.52,32 L202.048,38.704 L204.656,32 L206,32 Z M214.544,35.584 C214.544,35.8826682 214.522667,36.1813318 214.48,36.48 L208.448,36.48 C208.522667,37.2906707 208.791998,37.9199978 209.256,38.368 C209.720002,38.8160022 210.319996,39.04 211.056,39.04 C211.64267,39.04 212.130665,38.9386677 212.52,38.736 C212.909335,38.5333323 213.173333,38.2400019 213.312,37.856 L214.384,38.416 C214.063998,38.9813362 213.637336,39.4133318 213.104,39.712 C212.570664,40.0106682 211.888004,40.16 211.056,40.16 C209.850661,40.16 208.904003,39.7920037 208.216,39.056 C207.527997,38.3199963 207.184,37.3013398 207.184,36 C207.184,34.6986602 207.511997,33.6800037 208.168,32.944 C208.824003,32.2079963 209.754661,31.84 210.96,31.84 C211.70667,31.84 212.351997,32.0053317 212.896,32.336 C213.440003,32.6666683 213.850665,33.1146638 214.128,33.68 C214.405335,34.2453362 214.544,34.8799965 214.544,35.584 Z M210.96,32.96 C210.255996,32.96 209.688002,33.1679979 209.256,33.584 C208.823998,34.0000021 208.56,34.5866629 208.464,35.344 L213.312,35.344 C213.226666,34.5973296 212.981335,34.0133354 212.576,33.592 C212.170665,33.1706646 211.632003,32.96 210.96,32.96 Z M224.08,28.32 L224.08,40 L222.96,40 L222.88,38.608 C222.645332,39.0773357 222.285336,39.4533319 221.8,39.736 C221.314664,40.0186681 220.76267,40.16 220.144,40.16 C219.023994,40.16 218.136003,39.789337 217.48,39.048 C216.823997,38.306663 216.496,37.2906731 216.496,36 C216.496,34.7093269 216.823997,33.693337 217.48,32.952 C218.136003,32.210663 219.023994,31.84 220.144,31.84 C220.73067,31.84 221.255998,31.9679987 221.72,32.224 C222.184002,32.4800013 222.543999,32.8213312 222.8,33.248 L222.8,28.32 L224.08,28.32 Z M220.288,39.04 C221.056004,39.04 221.666664,38.773336 222.12,38.24 C222.573336,37.706664 222.8,36.9920045 222.8,36.096 L222.8,35.904 C222.8,35.0079955 222.573336,34.293336 222.12,33.76 C221.666664,33.226664 221.056004,32.96 220.288,32.96 C219.509329,32.96 218.896002,33.2346639 218.448,33.784 C217.999998,34.3333361 217.776,35.0719954 217.776,36 C217.776,36.9280046 217.999998,37.6666639 218.448,38.216 C218.896002,38.7653361 219.509329,39.04 220.288,39.04 Z M236.48,29.44 C237.546672,29.44 238.40533,29.7306638 239.056,30.312 C239.70667,30.8933362 240.032,31.6746618 240.032,32.656 C240.032,33.6373382 239.70667,34.4186638 239.056,35 C238.40533,35.5813362 237.546672,35.872 236.48,35.872 L234.032,35.872 L234.032,40 L232.752,40 L232.752,29.44 L236.48,29.44 Z M236.288,34.672 C237.109337,34.672 237.714665,34.5040017 238.104,34.168 C238.493335,33.8319983 238.688,33.3280034 238.688,32.656 C238.688,31.9839966 238.493335,31.4800017 238.104,31.144 C237.714665,30.8079983 237.109337,30.64 236.288,30.64 L234.032,30.64 L234.032,34.672 L236.288,34.672 Z M243.488,37.856 C243.488,38.2613354 243.549333,38.5413326 243.672,38.696 C243.794667,38.8506674 244.021332,38.928 244.352,38.928 C244.576001,38.928 244.770666,38.9120002 244.936,38.88 C245.101334,38.8479998 245.295999,38.7893338 245.52,38.704 L245.312,39.936 C244.959998,40.0853341 244.565336,40.16 244.128,40.16 C243.47733,40.16 242.994668,39.9840018 242.68,39.632 C242.365332,39.2799982 242.208,38.741337 242.208,38.016 L242.208,28.32 L243.488,28.32 L243.488,37.856 Z M253.728,39.072 C253.941334,39.072 254.154666,39.0453336 254.368,38.992 L254.288,40 C253.989332,40.1066672 253.669335,40.16 253.328,40.16 C252.911998,40.16 252.584001,40.0693342 252.344,39.888 C252.103999,39.7066658 251.952,39.4026688 251.888,38.976 C251.642665,39.3493352 251.282669,39.639999 250.808,39.848 C250.333331,40.056001 249.834669,40.16 249.312,40.16 C248.522663,40.16 247.872003,39.9760018 247.36,39.608 C246.847997,39.2399982 246.592,38.7093368 246.592,38.016 C246.592,37.407997 246.858664,36.8826689 247.392,36.44 C247.925336,35.9973311 248.698662,35.6906675 249.712,35.52 L251.84,35.168 L251.84,34.72 C251.84,34.186664 251.674668,33.7600016 251.344,33.44 C251.013332,33.1199984 250.55467,32.96 249.968,32.96 C249.434664,32.96 248.973335,33.0879987 248.584,33.344 C248.194665,33.6000013 247.893334,33.9786642 247.68,34.48 L246.736,33.792 C246.949334,33.1946637 247.346664,32.7200018 247.928,32.368 C248.509336,32.0159982 249.189329,31.84 249.968,31.84 C250.917338,31.84 251.679997,32.069331 252.256,32.528 C252.832003,32.986669 253.12,33.6639955 253.12,34.56 L253.12,38.496 C253.12,38.688001 253.168,38.8319995 253.264,38.928 C253.36,39.0240005 253.514666,39.072 253.728,39.072 Z M249.376,39.04 C250.048003,39.04 250.626664,38.8800016 251.112,38.56 C251.597336,38.2399984 251.84,37.8240026 251.84,37.312 L251.84,36.208 L250.048,36.544 C249.33333,36.6720006 248.800002,36.8559988 248.448,37.096 C248.095998,37.3360012 247.92,37.6426648 247.92,38.016 C247.92,38.3466683 248.047999,38.5999991 248.304,38.776 C248.560001,38.9520009 248.917331,39.04 249.376,39.04 Z M259.6,31.84 C260.400004,31.84 261.074664,32.0239982 261.624,32.392 C262.173336,32.7600018 262.602665,33.2853299 262.912,33.968 L261.696,34.544 C261.354665,33.4879947 260.645339,32.96 259.568,32.96 C258.767996,32.96 258.141336,33.2293306 257.688,33.768 C257.234664,34.3066694 257.008,35.0506619 257.008,36 C257.008,36.9493381 257.234664,37.6933306 257.688,38.232 C258.141336,38.7706694 258.767996,39.04 259.568,39.04 C260.18667,39.04 260.685331,38.8986681 261.064,38.616 C261.442669,38.3333319 261.690666,37.925336 261.808,37.392 L262.992,37.808 C262.714665,38.5546704 262.288003,39.1333313 261.712,39.544 C261.135997,39.9546687 260.432004,40.16 259.6,40.16 C258.394661,40.16 257.448003,39.7920037 256.76,39.056 C256.071997,38.3199963 255.728,37.3013398 255.728,36 C255.728,34.6986602 256.071997,33.6800037 256.76,32.944 C257.448003,32.2079963 258.394661,31.84 259.6,31.84 Z M272.112,35.584 C272.112,35.8826682 272.090667,36.1813318 272.048,36.48 L266.016,36.48 C266.090667,37.2906707 266.359998,37.9199978 266.824,38.368 C267.288002,38.8160022 267.887996,39.04 268.624,39.04 C269.21067,39.04 269.698665,38.9386677 270.088,38.736 C270.477335,38.5333323 270.741333,38.2400019 270.88,37.856 L271.952,38.416 C271.631998,38.9813362 271.205336,39.4133318 270.672,39.712 C270.138664,40.0106682 269.456004,40.16 268.624,40.16 C267.418661,40.16 266.472003,39.7920037 265.784,39.056 C265.095997,38.3199963 264.752,37.3013398 264.752,36 C264.752,34.6986602 265.079997,33.6800037 265.736,32.944 C266.392003,32.2079963 267.322661,31.84 268.528,31.84 C269.27467,31.84 269.919997,32.0053317 270.464,32.336 C271.008003,32.6666683 271.418665,33.1146638 271.696,33.68 C271.973335,34.2453362 272.112,34.8799965 272.112,35.584 Z M268.528,32.96 C267.823996,32.96 267.256002,33.1679979 266.824,33.584 C266.391998,34.0000021 266.128,34.5866629 266.032,35.344 L270.88,35.344 C270.794666,34.5973296 270.549335,34.0133354 270.144,33.592 C269.738665,33.1706646 269.200003,32.96 268.528,32.96 Z M277.264,40.16 C276.495996,40.16 275.80267,40.0080015 275.184,39.704 C274.56533,39.3999985 274.112001,38.9493363 273.824,38.352 L274.864,37.632 C275.045334,38.1013357 275.359998,38.4533322 275.808,38.688 C276.256002,38.9226678 276.783997,39.04 277.392,39.04 C278.021336,39.04 278.501332,38.9280011 278.832,38.704 C279.162668,38.4799989 279.328,38.197335 279.328,37.856 C279.328,37.5466651 279.173335,37.2986676 278.864,37.112 C278.554665,36.9253324 278.010671,36.7626674 277.232,36.624 C276.463996,36.4853326 275.856002,36.3173343 275.408,36.12 C274.959998,35.9226657 274.634668,35.6720015 274.432,35.368 C274.229332,35.0639985 274.128,34.6880022 274.128,34.24 C274.128,33.8026645 274.255999,33.4026685 274.512,33.04 C274.768001,32.6773315 275.135998,32.3866678 275.616,32.168 C276.096002,31.9493322 276.650664,31.84 277.28,31.84 C278.133338,31.84 278.818664,31.9973318 279.336,32.312 C279.853336,32.6266682 280.223999,33.1093301 280.448,33.76 L279.36,34.4 C279.189332,33.8879974 278.930668,33.5200011 278.584,33.296 C278.237332,33.0719989 277.802669,32.96 277.28,32.96 C276.757331,32.96 276.314668,33.0773322 275.952,33.312 C275.589332,33.5466678 275.408,33.8186651 275.408,34.128 C275.408,34.4800018 275.565332,34.751999 275.88,34.944 C276.194668,35.136001 276.757329,35.3013326 277.568,35.44 C278.677339,35.6213342 279.461331,35.8933315 279.92,36.256 C280.378669,36.6186685 280.608,37.1306634 280.608,37.792 C280.608,38.250669 280.472001,38.6586649 280.2,39.016 C279.927999,39.3733351 279.538669,39.6533323 279.032,39.856 C278.525331,40.0586677 277.936003,40.16 277.264,40.16 Z" id="Navigate-to-Saved-Pl" fill="#FFFFFF"></path>
                <polygon id="Shape" fill="#FFFFFF" fill-rule="nonzero" points="55 25 33 34.1504268 42.9291918 37.0708019 45.8495405 47"></polygon>
            </g>
        </g>
    </g>
</svg>