<?xml version="1.0" encoding="UTF-8"?>
<svg width="343px" height="74px" viewBox="0 0 343 74" version="1.1" xmlns="http://www.w3.org/2000/svg" xmlns:xlink="http://www.w3.org/1999/xlink">
    <!-- Generator: Sketch 46.1 (44463) - http://www.bohemiancoding.com/sketch -->
    <title>playmusic</title>
    <desc>Created with Sketch.</desc>
    <defs></defs>
    <g id="Mobile" stroke="none" stroke-width="1" fill="none" fill-rule="evenodd">
        <g id="second-fold-Updated-UI" transform="translate(-16.000000, -1029.000000)">
            <g id="playmusic" transform="translate(16.000000, 1029.000000)">
                <rect id="Rectangle-3" fill="#0F3848" x="0" y="0" width="343" height="74"></rect>
                <g id="noun_1007079_cc-(2)" transform="translate(33.000000, 24.000000)" fill-rule="nonzero" fill="#FFFFFF">
                    <path d="M20.1334069,13.6422 L20.1334069,5.967 L16.6843586,6.981 C14.2936276,7.683 11.9054345,8.3954 9.50708966,9.061 C9.04772414,9.191 8.89037241,9.386 8.89291034,9.8878 C8.91490575,13.7271333 8.91490575,17.5673333 8.89291034,21.4084 C8.91747424,23.5810362 7.43170944,25.4650824 5.35313698,25.8970624 C3.27456452,26.3290423 1.18958763,25.1870866 0.385765517,23.1764 C-0.297899762,21.5008312 0.0819034048,19.5677242 1.34510345,18.2936 C2.6825931,16.9624 4.26626207,16.6114 6.04027586,17.2406 C6.26361379,17.3212 6.47933793,17.4278 6.78896552,17.563 C6.78896552,17.2536 6.78896552,17.017 6.78896552,16.783 C6.78896552,12.8968667 6.78896552,9.0116 6.78896552,5.1272 C6.78896552,4.7762 6.78896552,4.5162 7.23310345,4.3862 C12.1236966,2.9666 17.0041379,1.5184 21.894731,0.0806 C21.9962483,0.052 22.1028414,0.0312 22.2398897,0 C22.2525793,0.1612 22.2728828,0.2912 22.2728828,0.4186 C22.2728828,6.1568 22.2906483,11.895 22.2728828,17.6306 C22.2728828,20.1864 20.1816276,22.152 17.6538483,22.074 C15.9008583,21.998602 14.357944,20.8666077 13.723838,19.1906581 C13.089732,17.5147086 13.484876,15.6131324 14.7303228,14.3470879 C15.9757696,13.0810433 17.8349602,12.691002 19.465931,13.3536 C19.6613517,13.4394 19.8593103,13.52 20.1334069,13.6422 Z" id="Shape"></path>
                </g>
                <path d="M90.456,32.44 C91.522672,32.44 92.3813301,32.7306638 93.032,33.312 C93.6826699,33.8933362 94.008,34.6746618 94.008,35.656 C94.008,36.6373382 93.6826699,37.4186638 93.032,38 C92.3813301,38.5813362 91.522672,38.872 90.456,38.872 L88.008,38.872 L88.008,43 L86.728,43 L86.728,32.44 L90.456,32.44 Z M90.264,37.672 C91.0853374,37.672 91.6906647,37.5040017 92.08,37.168 C92.4693353,36.8319983 92.664,36.3280034 92.664,35.656 C92.664,34.9839966 92.4693353,34.4800017 92.08,34.144 C91.6906647,33.8079983 91.0853374,33.64 90.264,33.64 L88.008,33.64 L88.008,37.672 L90.264,37.672 Z M97.464,40.856 C97.464,41.2613354 97.5253327,41.5413326 97.648,41.696 C97.7706673,41.8506674 97.9973317,41.928 98.328,41.928 C98.5520011,41.928 98.7466658,41.9120002 98.912,41.88 C99.0773342,41.8479998 99.2719989,41.7893338 99.496,41.704 L99.288,42.936 C98.9359982,43.0853341 98.5413355,43.16 98.104,43.16 C97.4533301,43.16 96.9706682,42.9840018 96.656,42.632 C96.3413318,42.2799982 96.184,41.741337 96.184,41.016 L96.184,31.32 L97.464,31.32 L97.464,40.856 Z M107.704,42.072 C107.917334,42.072 108.130666,42.0453336 108.344,41.992 L108.264,43 C107.965332,43.1066672 107.645335,43.16 107.304,43.16 C106.887998,43.16 106.560001,43.0693342 106.32,42.888 C106.079999,42.7066658 105.928,42.4026688 105.864,41.976 C105.618665,42.3493352 105.258669,42.639999 104.784,42.848 C104.309331,43.056001 103.810669,43.16 103.288,43.16 C102.498663,43.16 101.848003,42.9760018 101.336,42.608 C100.823997,42.2399982 100.568,41.7093368 100.568,41.016 C100.568,40.407997 100.834664,39.8826689 101.368,39.44 C101.901336,38.9973311 102.674662,38.6906675 103.688,38.52 L105.816,38.168 L105.816,37.72 C105.816,37.186664 105.650668,36.7600016 105.32,36.44 C104.989332,36.1199984 104.53067,35.96 103.944,35.96 C103.410664,35.96 102.949335,36.0879987 102.56,36.344 C102.170665,36.6000013 101.869334,36.9786642 101.656,37.48 L100.712,36.792 C100.925334,36.1946637 101.322664,35.7200018 101.904,35.368 C102.485336,35.0159982 103.165329,34.84 103.944,34.84 C104.893338,34.84 105.655997,35.069331 106.232,35.528 C106.808003,35.986669 107.096,36.6639955 107.096,37.56 L107.096,41.496 C107.096,41.688001 107.144,41.8319995 107.24,41.928 C107.336,42.0240005 107.490666,42.072 107.704,42.072 Z M103.352,42.04 C104.024003,42.04 104.602664,41.8800016 105.088,41.56 C105.573336,41.2399984 105.816,40.8240026 105.816,40.312 L105.816,39.208 L104.024,39.544 C103.30933,39.6720006 102.776002,39.8559988 102.424,40.096 C102.071998,40.3360012 101.896,40.6426648 101.896,41.016 C101.896,41.3466683 102.023999,41.5999991 102.28,41.776 C102.536001,41.9520009 102.893331,42.04 103.352,42.04 Z M113.24,44.344 C112.930665,45.1120038 112.584002,45.6533318 112.2,45.968 C111.815998,46.2826682 111.320003,46.44 110.712,46.44 C110.306665,46.44 109.968001,46.3866672 109.696,46.28 C109.423999,46.1733328 109.176001,46.0026678 108.952,45.768 L109.4,44.68 C109.709335,45.1066688 110.141331,45.32 110.696,45.32 C111.005335,45.32 111.279999,45.2266676 111.52,45.04 C111.760001,44.8533324 111.970666,44.5146691 112.152,44.024 L112.568,42.984 L109.224,35 L110.68,35 L112.68,40.216 L113.176,41.64 L113.752,40.056 L115.624,35 L117,35 L113.24,44.344 Z M134.664,43 L133.448,43 L133.448,36.36 L133.592,33.576 L133.576,33.576 L130.104,43 L129.016,43 L125.544,33.576 L125.528,33.576 L125.672,36.36 L125.672,43 L124.456,43 L124.456,32.44 L126.424,32.44 L128.744,38.856 L129.544,41.496 L129.576,41.496 L130.392,38.872 L132.696,32.44 L134.664,32.44 L134.664,43 Z M144.808,35 L144.808,43 L143.688,43 L143.608,41.784 C143.074664,42.7013379 142.120007,43.16 140.744,43.16 C139.879996,43.16 139.173336,42.9200024 138.624,42.44 C138.074664,41.9599976 137.8,41.224005 137.8,40.232 L137.8,35 L139.08,35 L139.08,39.896 C139.08,40.6746706 139.239998,41.226665 139.56,41.552 C139.880002,41.877335 140.34933,42.04 140.968,42.04 C141.704004,42.04 142.314664,41.8160022 142.8,41.368 C143.285336,40.9199978 143.528,40.2480045 143.528,39.352 L143.528,35 L144.808,35 Z M150.504,43.16 C149.735996,43.16 149.04267,43.0080015 148.424,42.704 C147.80533,42.3999985 147.352001,41.9493363 147.064,41.352 L148.104,40.632 C148.285334,41.1013357 148.599998,41.4533322 149.048,41.688 C149.496002,41.9226678 150.023997,42.04 150.632,42.04 C151.261336,42.04 151.741332,41.9280011 152.072,41.704 C152.402668,41.4799989 152.568,41.197335 152.568,40.856 C152.568,40.5466651 152.413335,40.2986676 152.104,40.112 C151.794665,39.9253324 151.250671,39.7626674 150.472,39.624 C149.703996,39.4853326 149.096002,39.3173343 148.648,39.12 C148.199998,38.9226657 147.874668,38.6720015 147.672,38.368 C147.469332,38.0639985 147.368,37.6880022 147.368,37.24 C147.368,36.8026645 147.495999,36.4026685 147.752,36.04 C148.008001,35.6773315 148.375998,35.3866678 148.856,35.168 C149.336002,34.9493322 149.890664,34.84 150.52,34.84 C151.373338,34.84 152.058664,34.9973318 152.576,35.312 C153.093336,35.6266682 153.463999,36.1093301 153.688,36.76 L152.6,37.4 C152.429332,36.8879974 152.170668,36.5200011 151.824,36.296 C151.477332,36.0719989 151.042669,35.96 150.52,35.96 C149.997331,35.96 149.554668,36.0773322 149.192,36.312 C148.829332,36.5466678 148.648,36.8186651 148.648,37.128 C148.648,37.4800018 148.805332,37.751999 149.12,37.944 C149.434668,38.136001 149.997329,38.3013326 150.808,38.44 C151.917339,38.6213342 152.701331,38.8933315 153.16,39.256 C153.618669,39.6186685 153.848,40.1306634 153.848,40.792 C153.848,41.250669 153.712001,41.6586649 153.44,42.016 C153.167999,42.3733351 152.778669,42.6533323 152.272,42.856 C151.765331,43.0586677 151.176003,43.16 150.504,43.16 Z M156.856,33.464 C156.567999,33.464 156.336001,33.3760009 156.16,33.2 C155.983999,33.0239991 155.896,32.7920014 155.896,32.504 C155.896,32.2159986 155.983999,31.9840009 156.16,31.808 C156.336001,31.6319991 156.567999,31.544 156.856,31.544 C157.144001,31.544 157.375999,31.6319991 157.552,31.808 C157.728001,31.9840009 157.816,32.2159986 157.816,32.504 C157.816,32.7920014 157.728001,33.0239991 157.552,33.2 C157.375999,33.3760009 157.144001,33.464 156.856,33.464 Z M157.496,43 L156.216,43 L156.216,35 L157.496,35 L157.496,43 Z M163.848,34.84 C164.648004,34.84 165.322664,35.0239982 165.872,35.392 C166.421336,35.7600018 166.850665,36.2853299 167.16,36.968 L165.944,37.544 C165.602665,36.4879947 164.893339,35.96 163.816,35.96 C163.015996,35.96 162.389336,36.2293306 161.936,36.768 C161.482664,37.3066694 161.256,38.0506619 161.256,39 C161.256,39.9493381 161.482664,40.6933306 161.936,41.232 C162.389336,41.7706694 163.015996,42.04 163.816,42.04 C164.43467,42.04 164.933331,41.8986681 165.312,41.616 C165.690669,41.3333319 165.938666,40.925336 166.056,40.392 L167.24,40.808 C166.962665,41.5546704 166.536003,42.1333313 165.96,42.544 C165.383997,42.9546687 164.680004,43.16 163.848,43.16 C162.642661,43.16 161.696003,42.7920037 161.008,42.056 C160.319997,41.3199963 159.976,40.3013398 159.976,39 C159.976,37.6986602 160.319997,36.6800037 161.008,35.944 C161.696003,35.2079963 162.642661,34.84 163.848,34.84 Z" id="Play-Music" fill="#FFFFFF"></path>
            </g>
        </g>
    </g>
</svg>