<?xml version="1.0" encoding="UTF-8" standalone="no"?>
<svg width="204px" height="52px" viewBox="0 0 204 52" version="1.1" xmlns="http://www.w3.org/2000/svg" xmlns:xlink="http://www.w3.org/1999/xlink">
    <!-- Generator: Sketch 45.2 (43514) - http://www.bohemiancoding.com/sketch -->
    <title>google</title>
    <desc>Created with Sketch.</desc>
    <defs>
        <linearGradient x1="19.2147947%" y1="-35.1571758%" x2="69.3023416%" y2="93.5367562%" id="linearGradient-1">
            <stop stop-color="#19A3B4" offset="0%"></stop>
            <stop stop-color="#5BC3AF" offset="34.816763%"></stop>
            <stop stop-color="#C8F7A6" offset="92.2336229%"></stop>
            <stop stop-color="#D7FEA5" offset="100%"></stop>
        </linearGradient>
        <path d="M19.435271,9.25175943 L3.00393135,0.276642476 C2.5380289,0.0234236126 2.10832053,-0.0354822862 1.76024134,0.0723843597 L15.2190464,13.4409633 L19.435271,9.25175943" id="path-2"></path>
        <linearGradient x1="-14.698314%" y1="-114.321644%" x2="74.8444046%" y2="114.156353%" id="linearGradient-4">
            <stop stop-color="#FC227C" offset="0%"></stop>
            <stop stop-color="#FEEB7B" offset="100%"></stop>
        </linearGradient>
        <linearGradient x1="28.1511582%" y1="-14.8137139%" x2="48.1878808%" y2="82.8944571%" id="linearGradient-5">
            <stop stop-color="#0E4DA0" offset="0%"></stop>
            <stop stop-color="#6BFED4" offset="100%"></stop>
        </linearGradient>
        <path d="M1.75947126,0.0723843597 C1.259685,0.227681729 0.936248586,0.730294399 0.936248586,1.490716 L0.939328933,25.4233412 C0.939328933,26.1753477 1.25275422,26.6703102 1.73790883,26.8355527 L15.2190464,13.4432584 L1.75947126,0.0723843597" id="path-6"></path>
        <linearGradient x1="132.244588%" y1="16.465744%" x2="5.95853392%" y2="126.310354%" id="linearGradient-8">
            <stop stop-color="#FC472E" offset="0%"></stop>
            <stop stop-color="#FC472F" offset="0.331892433%"></stop>
            <stop stop-color="#893CD8" offset="100%"></stop>
        </linearGradient>
        <path d="M1.73790883,26.8355527 C2.08829827,26.9533645 2.5264776,26.8982837 3.00393135,26.6381797 L19.4545232,17.6508226 L15.2190464,13.4432584 L1.73790883,26.8355527" id="path-9"></path>
    </defs>
    <g id="Web" stroke="none" stroke-width="1" fill="none" fill-rule="evenodd">
        <g id="1" transform="translate(-500.000000, -560.000000)">
            <g id="google" transform="translate(500.000000, 560.000000)">
                <rect id="Rectangle-1" stroke="#879BA3" stroke-width="0.96" x="0.48" y="0.48" width="202.24" height="50.88" rx="3.84"></rect>
                <g id="Google-Play-Icon" transform="translate(19.520000, 12.480000)">
                    <mask id="mask-3" fill="white">
                        <use xlink:href="#path-2"></use>
                    </mask>
                    <use id="Fill-1" fill="url(#linearGradient-1)" xlink:href="#path-2"></use>
                    <path d="M19.4568335,17.6508226 L25.0661449,14.5869508 C26.203563,13.9634663 26.203563,12.9490608 25.0661449,12.3271064 L19.4360411,9.25175943 L15.2190464,13.4409633 L19.4568335,17.6508226" id="Fill-2" fill="url(#linearGradient-4)"></path>
                    <mask id="mask-7" fill="white">
                        <use xlink:href="#path-6"></use>
                    </mask>
                    <use id="Fill-3" fill="url(#linearGradient-5)" xlink:href="#path-6"></use>
                    <mask id="mask-10" fill="white">
                        <use xlink:href="#path-9"></use>
                    </mask>
                    <use id="Fill-4" fill="url(#linearGradient-8)" xlink:href="#path-9"></use>
                </g>
                <path d="M69.068,31.162 C67.88,31.976 66.406,32.46 65.02,32.46 C61.5,32.46 58.662,29.732 58.662,26.3 C58.662,22.89 61.478,20.162 64.998,20.162 C66.714,20.162 68.408,20.822 69.662,21.944 L70.674,20.668 C69.2,19.37 67.132,18.556 64.998,18.556 C60.466,18.556 56.88,21.966 56.88,26.3 C56.88,30.634 60.444,34.066 64.91,34.066 C66.978,34.066 69.112,33.274 70.63,32.064 L70.63,26.476 L69.068,26.476 L69.068,31.162 Z M79.364,22.362 C82.796,22.362 85.238,24.76 85.238,28.192 C85.238,31.668 82.796,34.066 79.364,34.066 C75.932,34.066 73.49,31.668 73.49,28.192 C73.49,24.76 75.932,22.362 79.364,22.362 Z M79.364,23.88 C76.944,23.88 75.206,25.662 75.206,28.214 C75.206,30.81 76.944,32.57 79.364,32.57 C81.784,32.57 83.522,30.81 83.522,28.214 C83.522,25.662 81.784,23.88 79.364,23.88 Z M92.96,22.362 C96.392,22.362 98.834,24.76 98.834,28.192 C98.834,31.668 96.392,34.066 92.96,34.066 C89.528,34.066 87.086,31.668 87.086,28.192 C87.086,24.76 89.528,22.362 92.96,22.362 Z M92.96,23.88 C90.54,23.88 88.802,25.662 88.802,28.214 C88.802,30.81 90.54,32.57 92.96,32.57 C95.38,32.57 97.118,30.81 97.118,28.214 C97.118,25.662 95.38,23.88 92.96,23.88 Z M110.23,22.428 L111.946,22.428 L111.946,32.79 C111.946,36.178 109.636,38.312 106.116,38.312 C104.29,38.29 102.772,37.696 101.364,36.618 L102.156,35.364 C103.3,36.31 104.51,36.816 106.05,36.838 C108.58,36.838 110.23,35.276 110.23,32.834 L110.23,31.074 C109.416,32.614 107.92,33.494 105.962,33.494 C102.838,33.494 100.682,31.184 100.682,27.906 C100.682,24.65 102.816,22.384 105.918,22.362 C107.898,22.34 109.394,23.242 110.23,24.782 L110.23,22.428 Z M106.27,32.086 C108.58,32.086 110.23,30.348 110.23,27.95 C110.23,25.53 108.58,23.792 106.27,23.792 C103.938,23.792 102.31,25.53 102.288,27.95 C102.31,30.348 103.938,32.086 106.27,32.086 Z M115.95,17.676 L115.95,34 L117.666,34 L117.666,17.676 L115.95,17.676 Z M126.532,22.362 C130.272,22.362 132.12,24.936 131.944,28.852 L122.484,28.852 C122.77,31.14 124.42,32.636 126.686,32.636 C128.116,32.636 129.37,32.108 130.272,31.162 L131.218,32.152 C130.118,33.362 128.49,34.066 126.554,34.066 C123.144,34.066 120.79,31.668 120.79,28.214 C120.79,24.76 123.166,22.384 126.532,22.362 Z M122.484,27.488 L130.404,27.488 C130.294,25.244 128.798,23.792 126.532,23.792 C124.31,23.792 122.726,25.244 122.484,27.488 Z M146.948,18.6 C150.754,18.6 152.954,20.492 152.954,23.77 C152.954,27.158 150.754,29.116 146.948,29.116 L142.922,29.116 L142.922,34 L141.162,34 L141.162,18.6 L146.948,18.6 Z M146.882,27.488 C149.654,27.488 151.26,26.234 151.26,23.814 C151.26,21.46 149.654,20.228 146.882,20.228 L142.922,20.228 L142.922,27.488 L146.882,27.488 Z M155.748,17.676 L155.748,34 L157.464,34 L157.464,17.676 L155.748,17.676 Z M170.62,34 L168.948,34 L168.948,32.196 C168.024,33.45 166.55,34.066 164.702,34.066 C162.304,34.066 160.764,32.548 160.764,30.568 C160.764,28.544 162.37,27.268 165.098,27.246 L168.904,27.246 L168.904,26.52 C168.904,24.826 167.848,23.792 165.802,23.792 C164.526,23.792 163.338,24.276 162.128,25.134 L161.402,23.924 C162.898,22.934 164.152,22.362 166.132,22.362 C168.992,22.362 170.576,23.88 170.598,26.344 L170.62,34 Z M165.032,32.636 C166.99,32.636 168.486,31.668 168.926,30.018 L168.926,28.61 L165.318,28.61 C163.382,28.61 162.37,29.204 162.37,30.502 C162.37,31.778 163.404,32.636 165.032,32.636 Z M177.66,35.65 L182.984,22.428 L181.224,22.428 L177.55,32.064 L173.7,22.428 L171.896,22.428 L176.692,33.912 L176.208,35.012 C175.746,36.112 174.998,36.684 174.096,36.684 C173.524,36.684 172.996,36.508 172.468,36.134 L171.742,37.498 C172.446,38.07 173.216,38.334 174.184,38.334 C175.724,38.334 176.934,37.41 177.66,35.65 Z" id="Google-Play" fill="#879BA3"></path>
            </g>
        </g>
    </g>
</svg>